<?xml version="1.0" encoding="UTF-8" standalone="no"?>
<svg width="78px" height="74px" viewBox="0 0 78 74" version="1.1" xmlns="http://www.w3.org/2000/svg" xmlns:xlink="http://www.w3.org/1999/xlink">
    <!-- Generator: Sketch 41.2 (35397) - http://www.bohemiancoding.com/sketch -->
    <title>Stroke 1089 + Stroke 1090</title>
    <desc>Created with Sketch.</desc>
    <defs></defs>
    <g id="Page-1" stroke="none" stroke-width="1" fill="none" fill-rule="evenodd">
        <g id="Stroke-1089-+-Stroke-1090" transform="translate(0.000000, 2.000000)">
            <path d="M68,36.4014 C68,51.9459 52.7783478,64.5489 34,64.5489 C29.8091304,64.5489 25.7956522,63.9219 22.0881739,62.7729 L2.55,71.9994 L10.2,56.5014 C3.90556522,51.3924 0,44.2749 0,36.4014 C0,20.8554 15.2216522,8.2524 34,8.2524 C52.7783478,8.2524 68,20.8554 68,36.4014 L68,36.4014 Z" id="Stroke-1089" fill-opacity="0.5" fill="#EA215A" opacity="0.800000012"></path>
            <path d="M76,28.4014 C76,43.9459 60.5545,56.5489 41.5,56.5489 C37.2475,56.5489 33.175,55.9219 29.413,54.7729 L9.5875,63.9994 L17.35,48.5014 C10.963,43.3924 7,36.2749 7,28.4014 C7,12.8554 22.4455,0.2524 41.5,0.2524 C60.5545,0.2524 76,12.8554 76,28.4014 L76,28.4014 Z" id="Stroke-1089" stroke="#FFFFFF" stroke-width="3" stroke-linejoin="round"></path>
            <path d="M43,45.253 C43,45.253 59.5,33.253 59.5,24.364 C59.5,14.107 46,10.864 43,23.3395 C40,10.864 26.5,14.107 26.5,24.364 C26.5,33.253 43,45.253 43,45.253 L43,45.253 Z" id="Stroke-1090" stroke="#FFFFFF" stroke-width="3" stroke-linejoin="round"></path>
        </g>
    </g>
</svg>