<?xml version="1.0" encoding="UTF-8"?>
<svg width="16px" height="12px" viewBox="0 0 16 12" version="1.1" xmlns="http://www.w3.org/2000/svg" xmlns:xlink="http://www.w3.org/1999/xlink">
    <!-- Generator: Sketch 42 (36781) - http://www.bohemiancoding.com/sketch -->
    <title>Group</title>
    <desc>Created with Sketch.</desc>
    <defs></defs>
    <g id="About" stroke="none" stroke-width="1" fill="none" fill-rule="evenodd">
        <g id="About/about" transform="translate(-626.000000, -4108.000000)" fill="#FFFFFF">
            <g id="Group-11" transform="translate(0.000000, 3860.000000)">
                <g id="Group-4" transform="translate(197.000000, 51.000000)">
                    <g id="Group-29" transform="translate(184.000000, 191.000000)">
                        <g id="Group" transform="translate(245.000000, 6.000000)">
                            <path d="M7.292,0.0736634706 C6.819,-0.161336529 6.267,0.195663471 6.29,0.723663471 C6.368,2.58466347 7.588,3.18666347 7.665,4.21566347 C5.671,3.98866347 4.571,4.03566347 1.39,3.77866347 C0.639,3.71866347 0,4.31166347 0,5.06566347 L0,7.23066347 C0,7.90466347 0.517,8.46466347 1.189,8.51766347 C4.37,8.76666347 6.116,7.84266347 8.027,7.55166347 C7.929,8.70266347 6.511,9.36866347 6.373,11.2256635 C6.332,11.7806635 6.928,12.1496635 7.411,11.8726635 L14.981,6.07066347 C15.462,5.79466347 15.441,5.09366347 14.944,4.84666347 L7.292,0.0736634706 Z" id="Fill-1"></path>
                        </g>
                    </g>
                </g>
            </g>
        </g>
    </g>
</svg>