<?xml version="1.0" encoding="UTF-8"?>
<svg width="20px" height="9px" viewBox="0 0 20 9" version="1.1" xmlns="http://www.w3.org/2000/svg" xmlns:xlink="http://www.w3.org/1999/xlink">
    <defs></defs>
    <g id="Symbols" stroke="none" stroke-width="1" fill="none" fill-rule="evenodd">
        <g id="icon-assets" transform="translate(-56.000000, -61.000000)" fill="#FFFFFF">
            <g id="Group-6" transform="translate(1.000000, 50.000000)">
                <path d="M55.672,19.055 L56,17.654 L55.672,16.207 C55.663,16.164 55.58,16.131 55.481,16.131 C55.379,16.131 55.297,16.164 55.29,16.207 L55,17.654 L55.289,19.054 C55.297,19.099 55.379,19.13 55.48,19.13 C55.58,19.131 55.663,19.1 55.672,19.055 Z M57.723,19.832 L58,17.668 L57.723,14.32 C57.714,14.236 57.609,14.168 57.484,14.168 C57.357,14.168 57.251,14.236 57.246,14.32 L57,17.668 L57.246,19.832 C57.252,19.918 57.357,19.984 57.484,19.984 C57.609,19.984 57.714,19.918 57.723,19.832 Z M59.768,19.797 L60,17.67 L59.768,13.213 C59.762,13.107 59.639,13.025 59.486,13.025 C59.334,13.025 59.211,13.107 59.205,13.213 L59,17.67 L59.205,19.799 C59.211,19.902 59.334,19.985 59.486,19.985 C59.639,19.984 59.762,19.902 59.768,19.797 Z M61.81,19.766 L62,17.67 L61.81,13.18 C61.805,13.057 61.664,12.959 61.49,12.959 C61.314,12.959 61.174,13.057 61.169,13.18 L61,17.67 L61.17,19.766 C61.174,19.889 61.315,19.987 61.49,19.987 C61.664,19.986 61.805,19.891 61.81,19.766 Z M63.85,19.738 L64,17.672 L63.85,12.523 C63.846,12.381 63.686,12.268 63.492,12.268 C63.298,12.268 63.138,12.383 63.135,12.524 L63,17.67 L63.135,19.738 C63.138,19.879 63.298,19.994 63.492,19.994 C63.686,19.994 63.846,19.881 63.85,19.738 Z M65.277,19.996 C65.285,19.996 72.377,20 72.422,20 C73.846,20 75,18.883 75,17.506 C75,16.129 73.846,15.014 72.422,15.014 C72.069,15.014 71.733,15.084 71.426,15.207 C71.221,12.961 69.273,11.199 66.897,11.199 C66.316,11.199 65.749,11.31 65.249,11.496 C65.053,11.57 65.002,11.644 65,11.791 L65,19.701 C65.002,19.854 65.124,19.98 65.277,19.996 Z" id="icon-soundcloud"></path>
            </g>
        </g>
    </g>
</svg>