<?xml version="1.0" encoding="UTF-8"?>
<svg width="18px" height="18px" viewBox="0 0 18 18" version="1.1" xmlns="http://www.w3.org/2000/svg" xmlns:xlink="http://www.w3.org/1999/xlink">
    <!-- Generator: Sketch 41.2 (35397) - http://www.bohemiancoding.com/sketch -->
    <title>icon-facebook</title>
    <desc>Created with Sketch.</desc>
    <defs></defs>
    <g id="Symbols" stroke="none" stroke-width="1" fill="none" fill-rule="evenodd">
        <g id="LS-Profile-Links" transform="translate(-157.000000, -39.000000)" fill="#FFFFFF">
            <g id="Group-6" transform="translate(1.000000, 33.000000)">
                <path d="M172,6 L158,6 C156.9,6 156,6.9 156,8 L156,22 C156,23.101 156.9,24 158,24 L165,24 L165,17 L163,17 L163,14.525 L165,14.525 L165,12.475 C165,10.311 166.212,8.791 168.766,8.791 L170.569,8.793 L170.569,11.398 L169.372,11.398 C168.378,11.398 168,12.144 168,12.836 L168,14.526 L170.568,14.526 L170,17 L168,17 L168,24 L172,24 C173.1,24 174,23.101 174,22 L174,8 C174,6.9 173.1,6 172,6 Z" id="icon-facebook"></path>
            </g>
        </g>
    </g>
</svg>