<?xml version="1.0" encoding="UTF-8" standalone="no"?>
<svg width="71px" height="72px" viewBox="0 0 71 72" version="1.1" xmlns="http://www.w3.org/2000/svg" xmlns:xlink="http://www.w3.org/1999/xlink">
    <defs></defs>
    <g id="About" stroke="none" stroke-width="1" fill="none" fill-rule="evenodd">
        <g id="About/Team-member" transform="translate(-477.000000, -2233.000000)">
            <g id="Group" transform="translate(0.000000, 2233.000000)">
                <g id="Group-3" transform="translate(477.000000, 0.000000)">
                    <g id="Group-4">
                        <path d="M37.1890614,16.980568 L37.1890614,0 L32.1218772,0 L32.1218772,17.2113741 C33.2173222,17.0099883 34.3463829,16.9047619 35.5,16.9047619 C36.0693652,16.9047619 36.6327487,16.9303939 37.1890614,16.980568 Z M24.4259368,20.5672958 L12.312638,8.45399699 L8.45400904,12.3126259 L20.5705281,24.429145 C21.6594686,22.9606247 22.9595876,21.6583464 24.4259368,20.5672958 Z M17.2262609,32.121333 L3.91132645e-13,32.121333 L3.90798505e-13,37.5782584 L17.0350628,37.5782584 C16.959251,36.8959667 16.9203246,36.202533 16.9203246,35.5 C16.9203246,34.3462189 17.0253169,33.2169805 17.2262609,32.121333 Z M20.5582753,46.5543122 L8.45400904,58.6585785 L12.312638,62.5172074 L24.4094343,50.4204111 C22.9443328,49.3277753 21.6456304,48.0240803 20.5582753,46.5543122 Z M32.1218772,53.7886259 L32.1218772,71 L37.1890614,71 L37.1890614,54.019432 C36.6327487,54.0696061 36.0693652,54.0952381 35.5,54.0952381 C34.3463829,54.0952381 33.2173222,53.9900117 32.1218772,53.7886259 Z M46.574077,50.4326939 L58.6585905,62.5172074 L62.5172194,58.6585785 L50.4294822,46.5708412 C49.340543,48.0393625 48.0404251,49.341642 46.574077,50.4326939 Z M53.9649372,37.5782584 L71,37.5782584 L71,32.121333 L53.7737391,32.121333 C53.9746831,33.2169805 54.0796754,34.3462189 54.0796754,35.5 C54.0796754,36.202533 54.040749,36.8959667 53.9649372,37.5782584 Z M50.4172132,24.4126322 L62.5172194,12.3126259 L58.6585905,8.45399699 L46.5575582,20.5550293 C48.0251545,21.6444955 49.3266889,22.9453584 50.4172132,24.4126322 Z" id="Combined-Shape" fill="#FFDA69"></path>
                        <path d="M54.3240987,29.1855469 C51.7104609,21.329362 43.9628359,14 35.6853941,14 C21.023863,14 15.9318901,24.211983 15,33.4930013 L15.0900183,38.6256511 L16.8658345,44.8268229 C16.8658345,44.8268229 26.6581922,52.1575517 26.6581922,59.2986654 L42.6298992,59.4793294 C42.6298992,59.4793294 43.0104312,51.5179033 52.3764294,43.741211 C54.521254,41.9603393 56.3399024,35.2447361 54.3240987,29.1855469 Z" id="Path-2" fill="#FFFFFF"></path>
                        <path d="M54.6711672,34.4030484 L54.6686533,34.1155484 C54.7356924,30.8788817 54.0041281,27.5813817 52.3767538,24.5163817 C47.260832,14.8838817 35.260832,11.199715 25.5745192,16.287215 C18.6342957,19.9330484 14.7661393,27.0930484 15.012508,34.4030484 C14.9454689,35.749715 14.9722846,41.6155484 19.8812231,46.6805484 C20.3211672,47.1838817 20.7837371,47.6613817 21.2672566,48.112215 C25.2837371,52.4130484 27.0342957,56.0480484 27.2639047,57.869715 L27.2639047,58.652215 L42.4122287,58.652215 L42.4122287,58.259715 C42.4122287,56.579715 44.1627873,52.6188817 48.6477035,47.8863817 C48.9711672,47.574715 49.285413,47.257215 49.5845751,46.927215 C49.586251,46.9255484 49.587089,46.9238817 49.588765,46.922215 C55.4337371,41.1105484 54.6711672,34.4030484 54.6711672,34.4030484 L54.6711672,34.4030484 Z" id="Stroke-21" stroke="#333333" stroke-width="4.2288961"></path>
                        <path d="M39.2111732,59.1641667 L39.2111732,37.4925 C39.2111732,36.1158333 40.3332402,35 41.7175978,35 C43.1019553,35 44.2240223,36.1158333 44.2240223,37.4925 C44.2240223,38.8691667 43.1019553,39.985 41.7175978,39.985 L29.5064246,39.985 C28.122067,39.985 27,38.8691667 27,37.4925 C27,36.1158333 28.122067,35 29.5064246,35 C30.8907821,35 32.0128492,36.1158333 32.0128492,37.4925 L32.0128492,59.1641667" id="Stroke-23" stroke="#333333" stroke-width="2.53747206"></path>
                        <path d="M25,69 L45.4326816,69" id="Stroke-25" stroke="#333333" stroke-width="4.60588811"></path>
                    </g>
                </g>
            </g>
        </g>
    </g>
</svg>