<?xml version="1.0" encoding="UTF-8"?>
<svg width="12px" height="19px" viewBox="0 0 12 19" version="1.1" xmlns="http://www.w3.org/2000/svg" xmlns:xlink="http://www.w3.org/1999/xlink">
    <defs></defs>
    <g id="Symbols" stroke="none" stroke-width="1" fill="none" fill-rule="evenodd">
        <g id="LS-Profile-Links" transform="translate(-110.000000, -39.000000)" fill="#FFFFFF">
            <g id="Group-6" transform="translate(1.000000, 33.000000)">
                <path d="M120.6,23.396 C119.823,23.767 119.12,24.027 118.491,24.177 C117.861,24.325 117.18,24.4 116.448,24.4 C115.617,24.4 114.882,24.293 114.243,24.082 C113.604,23.869 113.06,23.566 112.608,23.174 C112.157,22.779 111.844,22.362 111.67,21.92 C111.496,21.477 111.409,20.834 111.409,19.994 L111.409,13.539 L109.4,13.539 L109.4,10.935 C110.114,10.701 110.726,10.365 111.235,9.925 C111.745,9.487 112.153,8.96 112.462,8.345 C112.77,7.732 112.981,6.949 113.098,6 L115.683,6 L115.683,10.652 L119.997,10.652 L119.997,13.539 L115.683,13.539 L115.683,18.258 C115.683,19.324 115.739,20.01 115.851,20.313 C115.962,20.616 116.17,20.858 116.473,21.038 C116.876,21.282 117.336,21.405 117.854,21.405 C118.774,21.405 119.69,21.102 120.6,20.497 L120.6,23.396 Z" id="icon-tumblr"></path>
            </g>
        </g>
    </g>
</svg>