<?xml version="1.0" encoding="UTF-8"?>
<svg width="71px" height="71px" viewBox="0 0 71 71" version="1.1" xmlns="http://www.w3.org/2000/svg" xmlns:xlink="http://www.w3.org/1999/xlink">
    <!-- Generator: Sketch 41.2 (35397) - http://www.bohemiancoding.com/sketch -->
    <title>icon-clock</title>
    <desc>Created with Sketch.</desc>
    <defs>
        <circle id="path-1" cx="35" cy="34" r="22"></circle>
        <mask id="mask-2" maskContentUnits="userSpaceOnUse" maskUnits="objectBoundingBox" x="0" y="0" width="44" height="44" fill="white">
            <use xlink:href="#path-1"></use>
        </mask>
    </defs>
    <g id="Events" stroke="none" stroke-width="1" fill="none" fill-rule="evenodd">
        <g id="Events/events" transform="translate(-477.000000, -1933.000000)">
            <g id="icon-clock" transform="translate(477.000000, 1933.000000)">
                <g id="Group-4" fill="#A9439A">
                    <path d="M37.1890614,16.980568 L37.1890614,0 L32.1218772,0 L32.1218772,17.2113741 C33.2173222,17.0099883 34.3463829,16.9047619 35.5,16.9047619 C36.0693652,16.9047619 36.6327487,16.9303939 37.1890614,16.980568 Z M24.4259368,20.5672958 L12.312638,8.45399699 L8.45400904,12.3126259 L20.5705281,24.429145 C21.6594686,22.9606247 22.9595876,21.6583464 24.4259368,20.5672958 Z M17.2262609,32.121333 L3.91132645e-13,32.121333 L3.90798505e-13,37.5782584 L17.0350628,37.5782584 C16.959251,36.8959667 16.9203246,36.202533 16.9203246,35.5 C16.9203246,34.3462189 17.0253169,33.2169805 17.2262609,32.121333 Z M20.5582753,46.5543122 L8.45400904,58.6585785 L12.312638,62.5172074 L24.4094343,50.4204111 C22.9443328,49.3277753 21.6456304,48.0240803 20.5582753,46.5543122 Z M32.1218772,53.7886259 L32.1218772,71 L37.1890614,71 L37.1890614,54.019432 C36.6327487,54.0696061 36.0693652,54.0952381 35.5,54.0952381 C34.3463829,54.0952381 33.2173222,53.9900117 32.1218772,53.7886259 Z M46.574077,50.4326939 L58.6585905,62.5172074 L62.5172194,58.6585785 L50.4294822,46.5708412 C49.340543,48.0393625 48.0404251,49.341642 46.574077,50.4326939 Z M53.9649372,37.5782584 L71,37.5782584 L71,32.121333 L53.7737391,32.121333 C53.9746831,33.2169805 54.0796754,34.3462189 54.0796754,35.5 C54.0796754,36.202533 54.040749,36.8959667 53.9649372,37.5782584 Z M50.4172132,24.4126322 L62.5172194,12.3126259 L58.6585905,8.45399699 L46.5575582,20.5550293 C48.0251545,21.6444955 49.3266889,22.9453584 50.4172132,24.4126322 Z" id="Combined-Shape"></path>
                </g>
                <use id="Oval" stroke="#333333" mask="url(#mask-2)" stroke-width="8" fill="#FFFFFF" xlink:href="#path-1"></use>
                <path d="M34,35 L34,26.9985023 C34,26.4474894 33.5480902,26 32.9906311,26 L31.0093689,26 C30.4433532,26 30,26.4470447 30,26.9985023 L30,38.0014977 C30,38.5525106 30.4519098,39 31.0093689,39 L32.4965522,39 L41.9975267,39 C42.544239,39 43,38.5480902 43,37.9906311 L43,36.0093689 C43,35.4433532 42.5511774,35 41.9975267,35 L34,35 Z" id="Combined-Shape" fill="#333333"></path>
            </g>
        </g>
    </g>
</svg>