<?xml version="1.0" encoding="UTF-8"?>
<svg width="18px" height="18px" viewBox="0 0 18 18" version="1.1" xmlns="http://www.w3.org/2000/svg" xmlns:xlink="http://www.w3.org/1999/xlink">
    <defs></defs>
    <g id="Symbols" stroke="none" stroke-width="1" fill="none" fill-rule="evenodd">
        <g id="icon-assets" transform="translate(-257.000000, -6.000000)" fill="#FFFFFF">
            <g id="Group-6" transform="translate(1.000000, 0.000000)">
                <path d="M265,6.2 C260.139,6.2 256.2,10.138 256.2,15 C256.2,19.859 260.139,23.8 265,23.8 C269.862,23.8 273.799,19.86 273.799,15 C273.799,10.139 269.863,6.2 265,6.2 Z M268.478,19.502 C268.305,19.502 268.184,19.436 268.057,19.359 C266.868,18.638 265.395,18.26 263.799,18.26 C262.985,18.26 262.106,18.357 261.189,18.545 L261.077,18.573 C260.961,18.601 260.842,18.632 260.751,18.632 C260.38,18.632 260.09,18.344 260.09,17.976 C260.09,17.603 260.3,17.339 260.652,17.273 C261.748,17.023 262.78,16.901 263.804,16.901 C265.659,16.901 267.317,17.331 268.735,18.18 C268.978,18.322 269.131,18.486 269.131,18.848 C269.13,19.209 268.838,19.502 268.478,19.502 Z M269.391,16.941 C269.184,16.941 269.048,16.862 268.928,16.792 C266.785,15.521 263.595,15.099 260.967,15.799 C260.923,15.812 260.883,15.824 260.847,15.836 C260.748,15.867 260.656,15.898 260.526,15.898 C260.094,15.898 259.743,15.545 259.743,15.11 C259.743,14.691 259.962,14.398 260.357,14.286 C261.37,14.008 262.321,13.824 263.69,13.824 C265.902,13.824 268.047,14.379 269.728,15.385 C270.034,15.56 270.173,15.799 270.173,16.156 C270.173,16.59 269.822,16.941 269.391,16.941 Z M270.427,14.021 C270.232,14.021 270.112,13.974 269.932,13.877 C268.479,13.005 266.212,12.486 263.863,12.486 C262.639,12.486 261.527,12.621 260.557,12.883 C260.524,12.891 260.493,12.9 260.459,12.91 C260.356,12.941 260.227,12.978 260.094,12.978 C259.578,12.978 259.175,12.57 259.175,12.049 C259.175,11.596 259.429,11.25 259.855,11.124 C261.026,10.778 262.374,10.603 263.861,10.603 C266.539,10.603 269.087,11.198 270.852,12.234 C271.184,12.423 271.347,12.709 271.347,13.106 C271.347,13.619 270.943,14.021 270.427,14.021 Z" id="icon-spotify"></path>
            </g>
        </g>
    </g>
</svg>