<?xml version="1.0" encoding="UTF-8"?>
<svg width="20px" height="20px" viewBox="0 0 20 20" version="1.1" xmlns="http://www.w3.org/2000/svg" xmlns:xlink="http://www.w3.org/1999/xlink">
    <!-- Generator: Sketch 41.2 (35397) - http://www.bohemiancoding.com/sketch -->
    <title>icon-dribbble</title>
    <desc>Created with Sketch.</desc>
    <defs></defs>
    <g id="Symbols" stroke="none" stroke-width="1" fill="none" fill-rule="evenodd">
        <g id="LS-Profile-Links" transform="translate(-6.000000, -38.000000)" fill="#FFFFFF">
            <g id="Group-6" transform="translate(1.000000, 33.000000)">
                <path d="M14.565,12.421 C13.207,10.007 11.754,8.038 11.648,7.893 C9.457,8.929 7.822,10.948 7.311,13.38 C7.517,13.384 10.793,13.423 14.565,12.421 Z M15.543,15.061 C15.645,15.028 15.749,14.997 15.852,14.967 C15.655,14.52 15.44,14.072 15.215,13.631 C11.169,14.843 7.287,14.755 7.15,14.751 C7.147,14.835 7.143,14.917 7.143,15.001 C7.143,17.02 7.906,18.862 9.159,20.253 L9.154,20.247 C9.154,20.247 11.304,16.433 15.543,15.061 Z M10.171,21.194 L10.171,21.19 C10.113,21.145 10.051,21.104 9.993,21.055 C10.099,21.14 10.171,21.194 10.171,21.194 Z M13.118,7.372 C13.111,7.374 13.103,7.376 13.103,7.376 C13.109,7.374 13.117,7.374 13.117,7.374 L13.118,7.372 Z M20.189,9.104 C18.805,7.886 16.99,7.143 15,7.143 C14.361,7.143 13.742,7.221 13.148,7.364 C13.268,7.524 14.743,9.483 16.086,11.948 C19.048,10.839 20.167,9.136 20.189,9.104 Z M15,24.2 C9.92,24.2 5.801,20.081 5.801,15.001 C5.8,9.919 9.919,5.8 15,5.8 C20.082,5.8 24.2,9.919 24.2,15.001 C24.2,20.081 20.082,24.2 15,24.2 Z M16.336,16.286 C11.725,17.893 10.202,21.124 10.171,21.19 C11.505,22.231 13.177,22.856 14.999,22.856 C16.087,22.856 17.124,22.635 18.066,22.235 C17.95,21.546 17.493,19.139 16.387,16.268 C16.371,16.274 16.354,16.28 16.336,16.286 Z M16.69,13.12 C16.874,13.493 17.048,13.874 17.213,14.259 C17.272,14.394 17.327,14.531 17.383,14.665 C20.096,14.323 22.768,14.903 22.856,14.921 C22.837,13.058 22.17,11.349 21.069,10.009 C21.051,10.032 19.79,11.852 16.69,13.12 Z M17.861,15.905 C18.892,18.741 19.31,21.047 19.39,21.516 C21.154,20.325 22.408,18.436 22.757,16.246 C22.601,16.196 20.401,15.499 17.861,15.905 Z" id="icon-dribbble"></path>
            </g>
        </g>
    </g>
</svg>