<?xml version="1.0" encoding="UTF-8"?>
<svg width="19px" height="15px" viewBox="0 0 19 15" version="1.1" xmlns="http://www.w3.org/2000/svg" xmlns:xlink="http://www.w3.org/1999/xlink">
    <!-- Generator: Sketch 42 (36781) - http://www.bohemiancoding.com/sketch -->
    <title>icon-twitter</title>
    <desc>Created with Sketch.</desc>
    <defs></defs>
    <g id="Symbols" stroke="none" stroke-width="1" fill="none" fill-rule="evenodd">
        <g id="LS-Profile-Links" transform="translate(-7.000000, -41.000000)" fill="#FFFFFF">
            <g id="Group-6">
                <path d="M23.516,44.722 C23.524,44.884 23.527,45.048 23.527,45.21 C23.527,50.2 19.73,55.952 12.787,55.952 C10.654,55.952 8.671,55.327 7,54.255 C7.296,54.29 7.596,54.308 7.9,54.308 C9.67,54.308 11.297,53.704 12.588,52.693 C10.937,52.662 9.542,51.572 9.062,50.072 C9.292,50.115 9.529,50.138 9.772,50.138 C10.117,50.138 10.451,50.093 10.767,50.007 C9.04,49.659 7.739,48.134 7.739,46.304 L7.739,46.257 C8.248,46.54 8.831,46.71 9.449,46.73 C8.436,46.052 7.769,44.898 7.769,43.587 C7.769,42.896 7.955,42.247 8.281,41.689 C10.142,43.974 12.925,45.476 16.062,45.634 C15.998,45.357 15.965,45.07 15.965,44.773 C15.965,42.689 17.654,41 19.739,41 C20.825,41 21.806,41.457 22.495,42.191 C23.354,42.021 24.162,41.707 24.892,41.275 C24.61,42.156 24.011,42.896 23.232,43.363 C23.996,43.271 24.722,43.07 25.4,42.769 C24.894,43.527 24.254,44.191 23.516,44.722 Z" id="icon-twitter"></path>
            </g>
        </g>
    </g>
</svg>