<?xml version="1.0" encoding="UTF-8"?>
<svg width="18px" height="14px" viewBox="0 0 18 14" version="1.1" xmlns="http://www.w3.org/2000/svg" xmlns:xlink="http://www.w3.org/1999/xlink">
    <defs></defs>
    <g id="Symbols" stroke="none" stroke-width="1" fill="none" fill-rule="evenodd">
        <g id="LS-Profile-Links" transform="translate(-257.000000, -42.000000)" fill="#FFFFFF">
            <g id="Group-6">
                <path d="M274.750238,44 C274.750238,44 274,44 274,44.7501426 L274,53.2504211 C274,53.2504211 274,54 274.750238,54 L275,54 L275,56 L269,56 L269,54 L270,54 L270,44.6999512 L269.900024,44.6999512 L266.835449,56 L264.136597,56 L261.099976,44.6999512 L261.000001,44.6999512 L261.000001,54 L262.000001,54 L262.000001,56 L257.000001,56 L257.000001,54 L257.249763,54 C257.249763,54 258.000001,54 258.000001,53.2498569 L258.000001,44.7495794 C258.000001,44.7495794 258.000001,44 257.249763,44 L257.000001,44 L257.000001,42 L263.634034,42 L265.960938,50.6591797 L266.037598,50.6591797 L268.385986,42 L275,42 L275,44 L274.750238,44 Z" id="icon-medium"></path>
            </g>
        </g>
    </g>
</svg>