<?xml version="1.0" encoding="UTF-8" standalone="no"?>
<svg width="16px" height="12px" viewBox="0 0 16 12" version="1.1" xmlns="http://www.w3.org/2000/svg" xmlns:xlink="http://www.w3.org/1999/xlink">
    <!-- Generator: Sketch 41.2 (35397) - http://www.bohemiancoding.com/sketch -->
    <title>Fill 1</title>
    <desc>Created with Sketch.</desc>
    <defs></defs>
    <g id="Symbols" stroke="none" stroke-width="1" fill="none" fill-rule="evenodd">
        <g id="Last-Next" transform="translate(-968.000000, -47.000000)" fill="#EA215A">
            <path d="M983,52 L975,47 C974.672397,46.8382171 974.132265,47.1962048 974,48 C974.231094,49.5918138 975.424865,50.1954792 976,51 C973.549078,50.9996979 972.472728,51.0468279 969,51 C968.625262,50.7289509 968,51.3235914 968,52 L968,54 C968,54.9265312 968.505885,55.4880805 969,56 C972.276049,55.7909159 973.984511,54.8643597 976,55 C975.758533,55.7267389 974.371019,56.3945813 974,58 C974.195868,58.813254 974.779054,59.1832748 975,59 L983,53 C983.129581,52.8106941 983.109032,52.1077548 983,52" id="Fill-1"></path>
        </g>
    </g>
</svg>