<svg width="175" height="142" viewBox="0 0 175 142" xmlns="http://www.w3.org/2000/svg"><title>picto-rocket</title><g fill="none" fill-rule="evenodd"><circle fill="#00D495" opacity=".1" cx="71" cy="71" r="71"/><path d="M174.764 93.55c0-4.62-2.844-8.572-6.873-10.21-1.183-8.497-8.467-15.038-17.28-15.038-5.924 0-11.155 2.958-14.31 7.477-4.305-4.356-10.276-7.055-16.88-7.055-8.92 0-16.688 4.927-20.748 12.21-4.06-7.283-11.828-12.21-20.748-12.21-6.63 0-12.623 2.722-16.93 7.108-3.152-4.55-8.403-7.53-14.35-7.53-8.846 0-16.15 6.588-17.293 15.13-3.906 1.693-6.643 5.584-6.643 10.118 0 5.583 4.148 10.183 9.525 10.91 2 11.105 11.696 19.532 23.364 19.532 6.395 0 12.194-2.535 16.464-6.65 2.854 5.58 8.65 9.404 15.343 9.404 4.52 0 8.63-1.744 11.703-4.594 3.074 2.85 7.184 4.594 11.703 4.594 6.25 0 11.722-3.332 14.743-8.32 4.127 3.472 9.45 5.566 15.262 5.566 11.636 0 21.31-8.38 23.348-19.44 5.89-.216 10.6-5.052 10.6-11" fill="#FFF"/><path d="M136.73 117.988c-5.433 0-10.717-1.927-14.876-5.424l-.536-.45c-3.28-3.84-3.272-9.63.218-13.455l-.885-.81c-3.988 4.37-3.913 11.038.004 15.326-3.087 4.745-8.25 7.566-13.93 7.566-4.2 0-8.212-1.575-11.295-4.434l-.408-.378-.408.378c-3.083 2.86-7.094 4.434-11.295 4.434-6.115 0-11.654-3.312-14.582-8.665 2.286-1.986 3.664-4.745 3.88-7.77.216-3.026-.757-5.957-2.743-8.25l-.906.786c3.6 4.16 3.21 10.433-.814 14.133l-.015-.03-.58.56c-4.337 4.18-10.037 6.482-16.048 6.482-11.208 0-20.786-8.007-22.775-19.038l-.078-.43-.433-.06c-5.133-.692-9.005-5.127-9.005-10.313 0-3.766 2.027-7.195 5.242-9.037-.238 2.476.613 4.122 1.53 5.42l.978-.69c-.913-1.297-1.68-2.848-1.21-5.37l.054-.024.045-.337c1.116-8.33 8.295-14.612 16.7-14.612 5.4 0 10.468 2.605 13.64 6.98-1.8 2.177-2.728 4.9-2.6 7.742.136 3.032 1.443 5.83 3.68 7.877l.81-.886c-2.002-1.83-3.172-4.333-3.293-7.044-.122-2.712.818-5.31 2.647-7.313l-.057-.052c4.384-4.436 10.223-6.88 16.452-6.88 8.27 0 15.916 4.445 20.05 11.614-.708 1.27-.91 2.803-.538 4.26.41 1.612 1.462 2.957 2.962 3.79l.58-1.05c-1.207-.67-2.053-1.75-2.38-3.035-.268-1.053-.165-2.15.272-3.095l.325-.582c4.094-7.342 11.844-11.902 20.227-11.902 6.226 0 12.07 2.443 16.453 6.877l.506.51.41-.588c3.158-4.523 8.324-7.222 13.82-7.222 8.36 0 15.534 6.243 16.687 14.522l.048.343.322.13c2.45.995 4.36 2.832 5.458 5.1l-.156.082c1.437 2.77 1.466 5.903.355 8.583-.084.195-.174.386-.268.574-.034.068-.064.138-.1.205-1.35 2.553-3.737 4.464-6.62 5.192-.097.023-.193.048-.29.068-.16.036-.326.063-.49.09-1.54.248-3.13.143-4.66-.342-2.585-.82-4.696-2.597-5.945-5.007l-1.064.552c1.397 2.694 3.757 4.682 6.647 5.598.954.302 1.928.468 2.902.515-2.282 10.633-11.685 18.283-22.622 18.283m32.77-23.64c.16-.257.31-.517.447-.784.08-.155.154-.314.23-.473.056-.126.117-.25.17-.38.596-1.4.932-2.94.932-4.563 0-4.636-2.708-8.772-6.93-10.632-1.383-8.7-8.984-15.217-17.823-15.217-5.653 0-10.98 2.664-14.387 7.162-4.55-4.352-10.49-6.74-16.803-6.74-8.472 0-16.328 4.43-20.75 11.625C90.168 67.15 82.312 62.72 73.84 62.72c-6.342 0-12.3 2.406-16.855 6.79-3.408-4.53-8.747-7.212-14.426-7.212-8.89 0-16.5 6.562-17.84 15.32h-.002c-4.078 1.91-6.695 6.005-6.695 10.53 0 5.638 4.104 10.48 9.614 11.437 2.257 11.385 12.23 19.603 23.875 19.603 6.06 0 11.82-2.225 16.305-6.28 3.172 5.592 9.04 9.034 15.502 9.034 4.32 0 8.455-1.554 11.702-4.388 3.248 2.834 7.382 4.388 11.703 4.388 6.058 0 11.574-2.988 14.888-8.026 4.29 3.405 9.63 5.272 15.117 5.272 11.586 0 21.54-8.16 23.848-19.468.157-.012.31-.04.464-.06.144-.014.287-.032.43-.052.102-.016.203-.028.304-.046 1.145-.196 2.267-.568 3.328-1.12 1.863-.97 3.336-2.392 4.375-4.058l.02-.037" fill="#1D1D1B"/><path d="M136.73 117.988c-5.433 0-10.717-1.927-14.876-5.424l-.536-.45c-3.28-3.84-3.272-9.63.218-13.455l-.885-.81c-3.988 4.37-3.913 11.038.004 15.326-3.087 4.745-8.25 7.566-13.93 7.566-4.2 0-8.212-1.575-11.295-4.434l-.408-.378-.408.378c-3.083 2.86-7.094 4.434-11.295 4.434-6.115 0-11.654-3.312-14.582-8.665 2.286-1.986 3.664-4.745 3.88-7.77.216-3.026-.757-5.957-2.743-8.25l-.906.786c3.6 4.16 3.21 10.433-.814 14.133l-.015-.03-.58.56c-4.337 4.18-10.037 6.482-16.048 6.482-11.208 0-20.786-8.007-22.775-19.038l-.078-.43-.433-.06c-5.133-.692-9.005-5.127-9.005-10.313 0-3.766 2.027-7.195 5.242-9.037-.238 2.476.613 4.122 1.53 5.42l.978-.69c-.913-1.297-1.68-2.848-1.21-5.37l.054-.024.045-.337c1.116-8.33 8.295-14.612 16.7-14.612 5.4 0 10.468 2.605 13.64 6.98-1.8 2.177-2.728 4.9-2.6 7.742.136 3.032 1.443 5.83 3.68 7.877l.81-.886c-2.002-1.83-3.172-4.333-3.293-7.044-.122-2.712.818-5.31 2.647-7.313l-.057-.052c4.384-4.436 10.223-6.88 16.452-6.88 8.27 0 15.916 4.445 20.05 11.614-.708 1.27-.91 2.803-.538 4.26.41 1.612 1.462 2.957 2.962 3.79l.58-1.05c-1.207-.67-2.053-1.75-2.38-3.035-.268-1.053-.165-2.15.272-3.095l.325-.582c4.094-7.342 11.844-11.902 20.227-11.902 6.226 0 12.07 2.443 16.453 6.877l.506.51.41-.588c3.158-4.523 8.324-7.222 13.82-7.222 8.36 0 15.534 6.243 16.687 14.522l.048.343.322.13c2.45.995 4.36 2.832 5.458 5.1l-.156.082c1.437 2.77 1.466 5.903.355 8.583-.084.195-.174.386-.268.574-.034.068-.064.138-.1.205-1.35 2.553-3.737 4.464-6.62 5.192-.097.023-.193.048-.29.068-.16.036-.326.063-.49.09-1.54.248-3.13.143-4.66-.342-2.585-.82-4.696-2.597-5.945-5.007l-1.064.552c1.397 2.694 3.757 4.682 6.647 5.598.954.302 1.928.468 2.902.515-2.282 10.633-11.685 18.283-22.622 18.283zm32.77-23.64c.16-.257.31-.517.447-.784.08-.155.154-.314.23-.473.056-.126.117-.25.17-.38.596-1.4.932-2.94.932-4.563 0-4.636-2.708-8.772-6.93-10.632-1.383-8.7-8.984-15.217-17.823-15.217-5.653 0-10.98 2.664-14.387 7.162-4.55-4.352-10.49-6.74-16.803-6.74-8.472 0-16.328 4.43-20.75 11.625C90.168 67.15 82.312 62.72 73.84 62.72c-6.342 0-12.3 2.406-16.855 6.79-3.408-4.53-8.747-7.212-14.426-7.212-8.89 0-16.5 6.562-17.84 15.32h-.002c-4.078 1.91-6.695 6.005-6.695 10.53 0 5.638 4.104 10.48 9.614 11.437 2.257 11.385 12.23 19.603 23.875 19.603 6.06 0 11.82-2.225 16.305-6.28 3.172 5.592 9.04 9.034 15.502 9.034 4.32 0 8.455-1.554 11.702-4.388 3.248 2.834 7.382 4.388 11.703 4.388 6.058 0 11.574-2.988 14.888-8.026 4.29 3.405 9.63 5.272 15.117 5.272 11.586 0 21.54-8.16 23.848-19.468.157-.012.31-.04.464-.06.144-.014.287-.032.43-.052.102-.016.203-.028.304-.046 1.145-.196 2.267-.568 3.328-1.12 1.863-.97 3.336-2.392 4.375-4.058l.02-.037z" stroke="#000" stroke-width="1.8"/><path d="M80.864 59.89s-22.906 16.938 0 39.663c0 0-3.188-13.375 2.63-13.375" fill="#00D494"/><path d="M80.864 59.89s-22.906 16.938 0 39.663c0 0-3.188-13.375 2.63-13.375" stroke="#1D1D1B" stroke-width="3"/><path d="M108.098 59.89s22.906 16.938 0 39.663c0 0 3.188-13.375-2.63-13.375" fill="#00D495"/><path d="M108.098 59.89s22.906 16.938 0 39.663c0 0 3.188-13.375-2.63-13.375" stroke="#1D1D1B" stroke-width="3"/><path d="M109.116 87.38c-14.644 0-23.14 4.752-24.906-11.918-1.974-18.647 6.5-35.702 13.895-52.228 8.907 19.574 20.08 42.59 11.01 64.145" fill="#00D495"/><path d="M105.517 86.178H83.495s-5.775-12-1.8-31.17c1.712-8.253 12.81-32.975 12.81-32.975s11.276 24.688 12.81 32.974c3.963 21.372-1.798 31.17-1.798 31.17zM89.69 33.158s4.512 3.73 9.696 0" stroke="#1D1D1B" stroke-width="3"/><path d="M100.36 44.108c0 3.22-2.607 5.796-5.822 5.83-3.016.032-5.79-2.605-5.823-5.83-.033-3.22 2.607-5.83 5.823-5.83s5.822 2.61 5.822 5.83" fill="#FFF"/><path d="M100.36 44.108c0 3.22-2.607 5.796-5.822 5.83-3.016.032-5.79-2.605-5.823-5.83-.033-3.22 2.607-5.83 5.823-5.83s5.822 2.61 5.822 5.83z" stroke="#1D1D1B" stroke-width="1.8"/><path d="M97.464 44.108c0 1.618-1.31 2.93-2.926 2.93s-2.926-1.312-2.926-2.93 1.31-2.93 2.926-2.93 2.926 1.312 2.926 2.93" fill="#4FCBE8"/><path d="M97.464 44.108c0 1.618-1.31 2.93-2.926 2.93s-2.926-1.312-2.926-2.93 1.31-2.93 2.926-2.93 2.926 1.312 2.926 2.93z" stroke="#1D1D1B" stroke-width="1.8"/><path d="M94.784 100.903s7.766-1.05 0-42.375c0 0-9.362 38.175 0 42.375z" fill="#00D494"/><path d="M94.784 58.528s-9.362 38.175 0 42.375c0 0 7.766-1.05 0-42.375z" stroke="#1D1D1B" stroke-width="3"/></g></svg>