<svg width="142" height="142" viewBox="0 0 142 142" xmlns="http://www.w3.org/2000/svg" xmlns:xlink="http://www.w3.org/1999/xlink"><title>picto-map</title><defs><path id="a" d="M.367 105.796H35.31V.656H.366v105.14z"/></defs><g fill="none" fill-rule="evenodd"><circle fill="#00D495" opacity=".1" cx="71" cy="71" r="71"/><path fill="#FFF" d="M36.447 57.346l-29.42-23.06v76.12l29.743 26.642 28.018-29.007L99.27 137.05l25.217-21.268V34.285L98.84 58.368 64.14 31.27"/><path d="M60.296 58.414c-.215 0-.405-.154-.444-.373-.043-.244.12-.478.367-.52.91-.16 1.836-.26 2.753-.294.245-.016.46.184.47.433.01.247-.185.457-.434.467-.878.033-1.764.128-2.635.28-.027.005-.053.007-.08.007zm8.07.262c-.035 0-.073-.004-.11-.014-.844-.212-1.72-.366-2.603-.455-.248-.025-.43-.246-.404-.494.025-.247.246-.422.494-.403.927.094 1.847.255 2.734.478.24.06.388.306.327.547-.05.205-.235.34-.438.34zm-13.22 1.373c-.17 0-.333-.097-.41-.26-.107-.224-.01-.493.214-.6.83-.393 1.697-.733 2.578-1.012.242-.076.493.057.568.293.075.238-.056.492-.294.568-.843.266-1.67.592-2.464.967-.063.03-.13.044-.193.044zm18.207.703c-.08 0-.16-.02-.232-.065-.76-.455-1.554-.856-2.358-1.192-.23-.096-.338-.36-.242-.59.097-.23.362-.338.59-.242.845.353 1.677.773 2.476 1.25.214.13.284.406.155.62-.084.14-.234.22-.387.22zm34.187.494c-.042 0-.086-.006-.13-.02-.238-.07-.374-.32-.302-.56.3-1.003.786-1.848 1.445-2.512.175-.176.46-.178.64-.003.176.175.178.46.002.638-.553.557-.964 1.275-1.222 2.136-.06.195-.238.32-.433.32zM50.634 63.02c-.124 0-.248-.05-.338-.15-.166-.187-.15-.472.037-.638.684-.608 1.425-1.176 2.2-1.686.21-.136.49-.08.627.128.137.208.08.488-.13.625-.738.485-1.443 1.025-2.095 1.605-.087.076-.194.114-.3.114zm26.93 1.113c-.118 0-.237-.047-.326-.14-.61-.64-1.264-1.244-1.947-1.793-.194-.156-.224-.44-.067-.634.156-.194.44-.225.635-.068.714.574 1.4 1.205 2.035 1.874.172.18.165.466-.016.637-.088.082-.2.123-.312.123zm30.283 2.417c-.18 0-.35-.11-.42-.286-.073-.184-.14-.37-.205-.558-.236-.702-.378-1.444-.425-2.207-.015-.25.175-.463.424-.478.253-.008.464.175.48.423.04.683.168 1.348.38 1.974.058.172.12.344.188.513.09.232-.023.493-.255.585-.054.02-.11.032-.166.032zm-60.797.518c-.094 0-.19-.03-.27-.09-.2-.15-.24-.432-.09-.63.643-.856 1.186-1.534 1.71-2.14.165-.188.45-.21.638-.045.19.162.21.447.046.636-.51.587-1.042 1.252-1.672 2.088-.09.118-.224.18-.362.18zm33.676 1.442c-.163 0-.32-.087-.4-.24-.41-.77-.88-1.525-1.4-2.242-.145-.202-.1-.484.103-.63.203-.144.485-.098.63.103.542.75 1.035 1.54 1.464 2.348.118.22.033.493-.187.61-.067.035-.14.052-.21.052zm29.927 2.65c-.138 0-.274-.062-.362-.18-.49-.652-1.065-1.43-1.58-2.243-.133-.21-.07-.49.142-.622.21-.132.49-.07.623.14.497.787 1.056 1.545 1.538 2.183.15.2.11.48-.09.632-.08.06-.176.09-.27.09zm-66.81.27c-.094 0-.186-.028-.267-.086-.202-.147-.245-.43-.098-.63l1.6-2.184c.148-.2.43-.245.633-.098.202.148.245.43.098.63l-1.6 2.184c-.09.12-.226.185-.366.185zm38.685 2.117c-.2 0-.373-.117-.416-.324-.186-.903-.42-1.732-.712-2.54-.085-.235.036-.493.27-.578.235-.084.494.037.58.27.307.85.554 1.722.732 2.59.05.244-.1.52-.344.57-.037.008-.074.012-.11.012zm-8.467.66c-.146 0-.29-.07-.376-.2-.138-.208-.08-.488.127-.625.385-.253.795-.457 1.22-.606.487-.17.994-.292 1.507-.358.248-.032.474.143.506.39.032.246-.143.473-.39.504-.45.058-.895.164-1.323.315-.355.124-.7.295-1.02.506-.077.052-.163.075-.25.075zm7.732.266c-.078 0-.155-.02-.226-.06-.773-.446-1.575-.77-2.383-.958-.243-.057-.394-.3-.337-.542.057-.242.304-.393.543-.336.894.21 1.778.565 2.628 1.054.216.126.29.402.165.618-.084.144-.236.225-.39.225zm31.967 1.116c-.16 0-.315-.085-.398-.233-.344-.62-.76-1.273-1.238-1.94l-.205-.28c-.147-.202-.104-.485.097-.63.202-.15.485-.105.632.096l.21.29c.497.694.932 1.376 1.294 2.027.12.217.04.49-.177.613-.07.038-.144.056-.218.056zm-73.12.207c-.092 0-.186-.028-.266-.086-.2-.146-.245-.428-.098-.63l1.602-2.183c.146-.2.43-.245.63-.098.202.147.246.43.1.63l-1.602 2.183c-.09.12-.226.184-.365.184zm45 2.415c-.152 0-.3-.076-.385-.214-.454-.73-1-1.41-1.626-2.018-.18-.175-.183-.46-.01-.64.176-.176.462-.18.64-.006.678.66 1.27 1.397 1.763 2.19.132.21.066.49-.146.62-.074.046-.156.068-.237.068zm-14.347.48c-.026 0-.052 0-.08-.005-.244-.044-.41-.278-.366-.523.167-.948.51-1.875.99-2.678.127-.214.404-.283.62-.157.213.128.283.404.156.618-.425.71-.727 1.53-.876 2.372-.038.22-.23.373-.444.373zm11.336.265c-.032 0-.063-.002-.094-.01-.244-.05-.4-.29-.35-.533.15-.72.226-1.49.226-2.294l-.003-.293c-.007-.25.19-.455.44-.46.263.022.457.192.463.44l.002.315c0 .863-.082 1.698-.244 2.477-.044.21-.232.357-.44.357zm-44.835 1.435c-.06 0-.12-.012-.18-.038-.23-.1-.333-.365-.233-.594.334-.762.768-1.56 1.33-2.435.134-.21.412-.27.622-.137.21.133.273.412.14.622-.536.836-.95 1.592-1.264 2.312-.074.17-.24.27-.415.27zm77.445.335h-.012c-.25-.005-.446-.212-.44-.462v-.153c0-.75-.127-1.547-.38-2.365-.074-.24.06-.49.298-.564.24-.074.492.06.565.297.28.905.423 1.79.423 2.632v.176c-.007.245-.208.44-.453.44zM87.315 83.31c-.226 0-.422-.168-.448-.398-.104-.888-.285-1.75-.542-2.56-.075-.237.058-.49.296-.564.238-.074.492.056.568.294.273.864.467 1.782.577 2.726.028.248-.15.472-.397.5l-.053.003zm-7.337.244c-.132 0-.262-.057-.35-.167-.16-.193-.13-.477.064-.634.56-.456 1.03-.983 1.4-1.568.076-.12.148-.24.216-.364.12-.217.394-.297.614-.176.22.12.298.395.177.613-.077.14-.16.274-.243.41-.42.666-.957 1.267-1.594 1.785-.084.07-.186.102-.285.102zm-7.415.197c-.118 0-.236-.044-.324-.135-.657-.672-1.124-1.566-1.35-2.587-.055-.243.1-.483.343-.538.243-.052.484.1.54.343.19.856.575 1.6 1.114 2.153.174.18.17.464-.01.638-.087.085-.2.127-.314.127zm3.34 1.336c-.36 0-.72-.034-1.066-.1-.244-.05-.404-.286-.357-.53.048-.245.284-.406.53-.356.777.15 1.626.097 2.462-.156.24-.073.492.062.564.3.072.24-.063.49-.302.563-.61.185-1.227.28-1.83.28zm-39.012.257l-.013-.04c-.213-.638-.322-1.31-.322-2 0-.274.017-.55.05-.823.028-.246.243-.427.5-.396.248.03.425.253.397.5-.03.24-.043.48-.043.72 0 .59.09 1.168.274 1.713l-.843.326zm76.29.264c-.103 0-.208-.036-.294-.11-.19-.16-.21-.445-.048-.634.623-.725 1.08-1.428 1.398-2.147.1-.227.37-.33.596-.23.23.1.332.366.23.593-.353.8-.857 1.577-1.54 2.37-.088.104-.214.157-.34.157zM87.124 88.7c-.024 0-.048 0-.074-.006-.247-.04-.414-.272-.373-.518.15-.908.244-1.794.28-2.633.01-.25.235-.443.47-.433.248.01.442.22.43.47-.035.876-.132 1.8-.288 2.743-.038.22-.23.377-.447.377zm22.084.585c-.125 0-.25-.052-.34-.154-.164-.187-.145-.472.043-.636.292-.255.587-.507.882-.758.393-.336.785-.672 1.167-1.01.184-.166.47-.15.636.036.167.187.15.472-.036.637-.386.343-.783.68-1.18 1.02-.293.25-.585.5-.875.753-.086.075-.192.112-.298.112zm-68.257.203c-.07 0-.142-.016-.208-.05-.905-.47-1.68-1.026-2.306-1.655-.176-.177-.175-.462.002-.638.178-.175.465-.174.64.003.56.563 1.26 1.064 2.08 1.49.22.114.308.385.193.607-.08.155-.238.243-.4.243zm5.188 1.488c-.023 0-.045-.002-.068-.005-.834-.124-1.505-.246-2.113-.383-.2-.045-.4-.094-.598-.148-.242-.066-.384-.315-.318-.555.066-.24.316-.382.554-.317.187.052.375.098.56.14.586.132 1.237.25 2.048.37.247.038.418.268.38.514-.034.224-.226.384-.446.384zm5.34.915c-.04 0-.078-.004-.118-.014-.74-.2-1.544-.362-2.606-.524-.248-.038-.417-.267-.38-.514.038-.246.263-.416.516-.377 1.097.168 1.932.336 2.706.545.24.066.383.313.318.553-.054.2-.237.333-.436.333zm54.167 1.435c-.073 0-.148-.018-.216-.056-.22-.12-.3-.395-.18-.613.415-.757.96-1.497 1.664-2.26.17-.185.456-.195.638-.028.184.168.196.453.027.637-.655.71-1.158 1.39-1.538 2.084-.083.15-.237.235-.397.235zm-19.87.61c-.05 0-.097-.007-.145-.023-.237-.08-.364-.335-.285-.57.298-.885.558-1.747.77-2.562.065-.24.313-.383.553-.322.242.062.386.31.323.55-.218.835-.483 1.716-.788 2.62-.064.188-.24.308-.428.308zm-29.648.6c-.12 0-.242-.048-.33-.143-.557-.597-1.257-1.14-2.024-1.568-.218-.122-.296-.397-.174-.614.12-.218.398-.295.615-.173.848.475 1.623 1.077 2.242 1.74.17.182.16.468-.022.637-.088.08-.198.12-.308.12zm48.337 4.01c-.25 0-.452-.202-.45-.45.002-1.028.088-1.936.266-2.78.05-.244.29-.402.535-.35.243.052.4.29.35.534-.165.783-.246 1.632-.248 2.596 0 .25-.203.45-.453.45zm-20.568.465c-.053 0-.108-.01-.16-.03-.234-.087-.35-.347-.263-.58l.36-.94c.202-.53.404-1.058.603-1.588.087-.234.347-.35.582-.263.234.086.352.345.264.58-.2.53-.403 1.06-.606 1.59l-.358.94c-.068.18-.24.29-.422.29zm-26.27.482c-.038 0-.075-.005-.113-.014-.24-.06-.388-.307-.327-.548.063-.244.103-.497.122-.75.008-.103.01-.205.01-.306 0-.455-.073-.912-.22-1.358-.078-.237.052-.49.288-.57.24-.077.494.054.57.29.177.536.267 1.088.267 1.638 0 .122-.004.247-.014.37-.022.307-.072.612-.147.908-.052.204-.236.34-.438.34zm-43.405 1.082c-.186 0-.362-.118-.426-.305-.293-.86-.573-1.72-.85-2.578-.077-.236.053-.49.29-.567.24-.077.492.053.57.29.275.852.554 1.71.845 2.563.08.235-.047.492-.283.572-.048.016-.097.024-.146.024zm39.968 2.91c-.158 0-.31-.08-.394-.227-.123-.217-.047-.492.17-.615.806-.457 1.486-.985 2.02-1.568.166-.185.453-.198.638-.03.184.168.198.453.03.637-.6.655-1.353 1.243-2.242 1.746-.07.04-.147.06-.222.06zm50.73.45c-.228 0-.423-.17-.45-.4l-.1-.876c-.072-.607-.142-1.214-.202-1.82-.024-.246.157-.467.406-.492.253-.022.47.157.493.405.06.6.13 1.202.2 1.803l.102.88c.03.248-.15.47-.398.5h-.052zm-22.784.193c-.042 0-.083-.006-.125-.017-.24-.07-.38-.32-.31-.558.23-.806.504-1.657.835-2.6.082-.236.34-.36.575-.278.236.082.36.34.278.575-.325.926-.594 1.762-.82 2.55-.057.2-.238.327-.434.327zm-33.085 1.007c-.214 0-.404-.15-.445-.367-.047-.245.115-.48.36-.527.704-.133 1.53-.3 2.327-.512l.275-.078c.24-.067.49.07.56.308.07.24-.07.49-.31.56l-.29.08c-.825.223-1.673.392-2.393.527-.03.006-.057.01-.085.01zm-32.847.474c-.17 0-.333-.096-.41-.26-.364-.775-.716-1.6-1.072-2.517-.09-.232.027-.493.26-.583.233-.09.493.025.584.258.35.9.692 1.705 1.048 2.46.106.226.008.495-.217.6-.063.03-.128.043-.192.043zm27.586.804c-.18 0-.352-.107-.422-.285-.09-.232.023-.494.255-.585.762-.3 1.61-.548 2.667-.782.24-.056.485.1.54.343.053.243-.1.483-.345.537-1.01.223-1.814.46-2.53.74-.055.022-.11.032-.166.032zm61.292 2.92c-.014 0-.03 0-.044-.003-.25-.025-.43-.245-.407-.493.06-.59.087-1.188.087-1.78 0-.207-.003-.413-.01-.62l-.01-.237c-.01-.25.18-.46.43-.472.24-.018.46.18.473.428l.01.252c.007.214.01.43.01.648 0 .622-.03 1.25-.09 1.868-.02.233-.218.407-.448.407zm-23.936.103h-.03c-.248-.016-.437-.23-.422-.478.034-.566.095-1.137.18-1.698.052-.35.112-.697.18-1.042.047-.244.282-.403.528-.357.245.048.406.285.358.53-.064.332-.122.666-.172 1.003-.08.535-.14 1.08-.172 1.62-.014.238-.214.422-.45.422zm-41.753.07c-.114 0-.23-.044-.317-.13-.178-.176-.18-.46-.004-.638.765-.774 1.427-1.358 2.083-1.838.2-.15.483-.105.632.096.147.2.104.483-.097.63-.616.45-1.243 1.005-1.975 1.744-.088.09-.205.134-.322.134zm-20.4.728c-.133 0-.266-.06-.355-.173-.547-.696-1.072-1.463-1.56-2.28-.128-.214-.057-.49.157-.62.215-.126.492-.055.62.158.467.784.97 1.52 1.494 2.186.153.196.12.48-.077.633-.083.065-.182.096-.28.096zm16.596 3.124c-.128 0-.256-.054-.345-.16-.162-.19-.14-.473.05-.634.7-.594 1.357-1.27 1.907-1.852.172-.18.458-.19.64-.017.18.17.19.456.018.637-.567.6-1.246 1.297-1.978 1.92-.086.07-.19.107-.293.107zm-12.59.478c-.08 0-.162-.02-.235-.066-.796-.484-1.55-1.045-2.238-1.667-.186-.167-.2-.452-.033-.637s.453-.2.638-.032c.648.584 1.355 1.11 2.103 1.565.213.13.28.406.15.62-.085.138-.233.215-.386.215zm80.79.73c-.06 0-.118-.01-.175-.034-.23-.095-.34-.36-.243-.588.332-.798.607-1.64.82-2.503.058-.244.306-.393.546-.333.242.06.39.304.33.546-.222.908-.512 1.795-.86 2.635-.074.173-.242.277-.42.277zm-22.163.237c-.2 0-.384-.134-.437-.338-.226-.87-.383-1.793-.465-2.74-.02-.247.163-.465.41-.486.256-.024.47.162.49.41.078.896.226 1.767.44 2.59.063.24-.082.488-.324.55-.037.01-.076.014-.113.014zm-50.863.85c-.22 0-.415-.16-.446-.386-.037-.245.134-.475.382-.51.86-.124 1.684-.377 2.446-.75.225-.11.495-.017.605.207.11.223.018.493-.206.603-.847.414-1.76.694-2.715.832-.023.004-.045.005-.066.005zm-2.702.012c-.02 0-.038-.002-.058-.004-.903-.116-1.82-.342-2.724-.674-.235-.086-.355-.345-.27-.58.088-.232.35-.352.58-.266.842.307 1.692.518 2.53.625.247.032.422.258.39.505-.03.228-.223.394-.448.394zm72.833 3.443c-.11 0-.222-.04-.31-.122-.182-.17-.19-.456-.02-.637.585-.625 1.123-1.323 1.6-2.073.133-.21.412-.272.622-.14.212.132.274.41.142.62-.507.8-1.08 1.543-1.705 2.21-.09.094-.21.142-.33.142zm-16.856.49c-.128 0-.255-.055-.345-.16-.593-.695-1.11-1.486-1.538-2.352-.11-.223-.02-.494.206-.604.225-.108.494-.016.605.207.394.798.87 1.527 1.415 2.167.162.19.14.474-.05.635-.086.07-.19.106-.294.106zm12.426 2.553c-.18 0-.35-.106-.42-.283-.092-.23.02-.494.253-.586.817-.326 1.59-.738 2.296-1.225.204-.14.486-.09.628.115.142.205.09.486-.115.628-.762.524-1.595.968-2.476 1.32-.055.022-.112.032-.168.032zm-7.97.397c-.045 0-.09-.006-.136-.02-.92-.29-1.78-.698-2.555-1.21-.208-.138-.265-.417-.126-.626.135-.206.416-.263.625-.125.705.467 1.488.838 2.327 1.102.238.075.37.328.295.565-.06.193-.24.315-.43.315zm3.32.5c-.228 0-.456-.008-.684-.02-.25-.015-.44-.228-.425-.477.015-.25.235-.44.478-.424.217.013.436.027.652.02.646 0 1.302-.056 1.948-.164.245-.04.48.125.52.37.04.247-.124.48-.37.52-.704.117-1.42.148-2.12.174z" fill="#00D495"/><path d="M60.296 58.414c-.215 0-.405-.154-.444-.373-.043-.244.12-.478.367-.52.91-.16 1.836-.26 2.753-.294.245-.016.46.184.47.433.01.247-.185.457-.434.467-.878.033-1.764.128-2.635.28-.027.005-.053.007-.08.007zm8.07.262c-.035 0-.073-.004-.11-.014-.844-.212-1.72-.366-2.603-.455-.248-.025-.43-.246-.404-.494.025-.247.246-.422.494-.403.927.094 1.847.255 2.734.478.24.06.388.306.327.547-.05.205-.235.34-.438.34zm-13.22 1.373c-.17 0-.333-.097-.41-.26-.107-.224-.01-.493.214-.6.83-.393 1.697-.733 2.578-1.012.242-.076.493.057.568.293.075.238-.056.492-.294.568-.843.266-1.67.592-2.464.967-.063.03-.13.044-.193.044zm18.207.703c-.08 0-.16-.02-.232-.065-.76-.455-1.554-.856-2.358-1.192-.23-.096-.338-.36-.242-.59.097-.23.362-.338.59-.242.845.353 1.677.773 2.476 1.25.214.13.284.406.155.62-.084.14-.234.22-.387.22zm34.187.494c-.042 0-.086-.006-.13-.02-.238-.07-.374-.32-.302-.56.3-1.003.786-1.848 1.445-2.512.175-.176.46-.178.64-.003.176.175.178.46.002.638-.553.557-.964 1.275-1.222 2.136-.06.195-.238.32-.433.32zM50.634 63.02c-.124 0-.248-.05-.338-.15-.166-.187-.15-.472.037-.638.684-.608 1.425-1.176 2.2-1.686.21-.136.49-.08.627.128.137.208.08.488-.13.625-.738.485-1.443 1.025-2.095 1.605-.087.076-.194.114-.3.114zm26.93 1.113c-.118 0-.237-.047-.326-.14-.61-.64-1.264-1.244-1.947-1.793-.194-.156-.224-.44-.067-.634.156-.194.44-.225.635-.068.714.574 1.4 1.205 2.035 1.874.172.18.165.466-.016.637-.088.082-.2.123-.312.123zm30.283 2.417c-.18 0-.35-.11-.42-.286-.073-.184-.14-.37-.205-.558-.236-.702-.378-1.444-.425-2.207-.015-.25.175-.463.424-.478.253-.008.464.175.48.423.04.683.168 1.348.38 1.974.058.172.12.344.188.513.09.232-.023.493-.255.585-.054.02-.11.032-.166.032zm-60.797.518c-.094 0-.19-.03-.27-.09-.2-.15-.24-.432-.09-.63.643-.856 1.186-1.534 1.71-2.14.165-.188.45-.21.638-.045.19.162.21.447.046.636-.51.587-1.042 1.252-1.672 2.088-.09.118-.224.18-.362.18zm33.676 1.442c-.163 0-.32-.087-.4-.24-.41-.77-.88-1.525-1.4-2.242-.145-.202-.1-.484.103-.63.203-.144.485-.098.63.103.542.75 1.035 1.54 1.464 2.348.118.22.033.493-.187.61-.067.035-.14.052-.21.052zm29.927 2.65c-.138 0-.274-.062-.362-.18-.49-.652-1.065-1.43-1.58-2.243-.133-.21-.07-.49.142-.622.21-.132.49-.07.623.14.497.787 1.056 1.545 1.538 2.183.15.2.11.48-.09.632-.08.06-.176.09-.27.09zm-66.81.27c-.094 0-.186-.028-.267-.086-.202-.147-.245-.43-.098-.63l1.6-2.184c.148-.2.43-.245.633-.098.202.148.245.43.098.63l-1.6 2.184c-.09.12-.226.185-.366.185zm38.685 2.117c-.2 0-.373-.117-.416-.324-.186-.903-.42-1.732-.712-2.54-.085-.235.036-.493.27-.578.235-.084.494.037.58.27.307.85.554 1.722.732 2.59.05.244-.1.52-.344.57-.037.008-.074.012-.11.012zm-8.467.66c-.146 0-.29-.07-.376-.2-.138-.208-.08-.488.127-.625.385-.253.795-.457 1.22-.606.487-.17.994-.292 1.507-.358.248-.032.474.143.506.39.032.246-.143.473-.39.504-.45.058-.895.164-1.323.315-.355.124-.7.295-1.02.506-.077.052-.163.075-.25.075zm7.732.266c-.078 0-.155-.02-.226-.06-.773-.446-1.575-.77-2.383-.958-.243-.057-.394-.3-.337-.542.057-.242.304-.393.543-.336.894.21 1.778.565 2.628 1.054.216.126.29.402.165.618-.084.144-.236.225-.39.225zm31.967 1.116c-.16 0-.315-.085-.398-.233-.344-.62-.76-1.273-1.238-1.94l-.205-.28c-.147-.202-.104-.485.097-.63.202-.15.485-.105.632.096l.21.29c.497.694.932 1.376 1.294 2.027.12.217.04.49-.177.613-.07.038-.144.056-.218.056zm-73.12.207c-.092 0-.186-.028-.266-.086-.2-.146-.245-.428-.098-.63l1.602-2.183c.146-.2.43-.245.63-.098.202.147.246.43.1.63l-1.602 2.183c-.09.12-.226.184-.365.184zm45 2.415c-.152 0-.3-.076-.385-.214-.454-.73-1-1.41-1.626-2.018-.18-.175-.183-.46-.01-.64.176-.176.462-.18.64-.006.678.66 1.27 1.397 1.763 2.19.132.21.066.49-.146.62-.074.046-.156.068-.237.068zm-14.347.48c-.026 0-.052 0-.08-.005-.244-.044-.41-.278-.366-.523.167-.948.51-1.875.99-2.678.127-.214.404-.283.62-.157.213.128.283.404.156.618-.425.71-.727 1.53-.876 2.372-.038.22-.23.373-.444.373zm11.336.265c-.032 0-.063-.002-.094-.01-.244-.05-.4-.29-.35-.533.15-.72.226-1.49.226-2.294l-.003-.293c-.007-.25.19-.455.44-.46.263.022.457.192.463.44l.002.315c0 .863-.082 1.698-.244 2.477-.044.21-.232.357-.44.357zm-44.835 1.435c-.06 0-.12-.012-.18-.038-.23-.1-.333-.365-.233-.594.334-.762.768-1.56 1.33-2.435.134-.21.412-.27.622-.137.21.133.273.412.14.622-.536.836-.95 1.592-1.264 2.312-.074.17-.24.27-.415.27zm77.445.335h-.012c-.25-.005-.446-.212-.44-.462v-.153c0-.75-.127-1.547-.38-2.365-.074-.24.06-.49.298-.564.24-.074.492.06.565.297.28.905.423 1.79.423 2.632v.176c-.007.245-.208.44-.453.44zM87.315 83.31c-.226 0-.422-.168-.448-.398-.104-.888-.285-1.75-.542-2.56-.075-.237.058-.49.296-.564.238-.074.492.056.568.294.273.864.467 1.782.577 2.726.028.248-.15.472-.397.5l-.053.003zm-7.337.244c-.132 0-.262-.057-.35-.167-.16-.193-.13-.477.064-.634.56-.456 1.03-.983 1.4-1.568.076-.12.148-.24.216-.364.12-.217.394-.297.614-.176.22.12.298.395.177.613-.077.14-.16.274-.243.41-.42.666-.957 1.267-1.594 1.785-.084.07-.186.102-.285.102zm-7.415.197c-.118 0-.236-.044-.324-.135-.657-.672-1.124-1.566-1.35-2.587-.055-.243.1-.483.343-.538.243-.052.484.1.54.343.19.856.575 1.6 1.114 2.153.174.18.17.464-.01.638-.087.085-.2.127-.314.127zm3.34 1.336c-.36 0-.72-.034-1.066-.1-.244-.05-.404-.286-.357-.53.048-.245.284-.406.53-.356.777.15 1.626.097 2.462-.156.24-.073.492.062.564.3.072.24-.063.49-.302.563-.61.185-1.227.28-1.83.28zm-39.012.257l-.013-.04c-.213-.638-.322-1.31-.322-2 0-.274.017-.55.05-.823.028-.246.243-.427.5-.396.248.03.425.253.397.5-.03.24-.043.48-.043.72 0 .59.09 1.168.274 1.713l-.843.326zm76.29.264c-.103 0-.208-.036-.294-.11-.19-.16-.21-.445-.048-.634.623-.725 1.08-1.428 1.398-2.147.1-.227.37-.33.596-.23.23.1.332.366.23.593-.353.8-.857 1.577-1.54 2.37-.088.104-.214.157-.34.157zM87.124 88.7c-.024 0-.048 0-.074-.006-.247-.04-.414-.272-.373-.518.15-.908.244-1.794.28-2.633.01-.25.235-.443.47-.433.248.01.442.22.43.47-.035.876-.132 1.8-.288 2.743-.038.22-.23.377-.447.377zm22.084.585c-.125 0-.25-.052-.34-.154-.164-.187-.145-.472.043-.636.292-.255.587-.507.882-.758.393-.336.785-.672 1.167-1.01.184-.166.47-.15.636.036.167.187.15.472-.036.637-.386.343-.783.68-1.18 1.02-.293.25-.585.5-.875.753-.086.075-.192.112-.298.112zm-68.257.203c-.07 0-.142-.016-.208-.05-.905-.47-1.68-1.026-2.306-1.655-.176-.177-.175-.462.002-.638.178-.175.465-.174.64.003.56.563 1.26 1.064 2.08 1.49.22.114.308.385.193.607-.08.155-.238.243-.4.243zm5.188 1.488c-.023 0-.045-.002-.068-.005-.834-.124-1.505-.246-2.113-.383-.2-.045-.4-.094-.598-.148-.242-.066-.384-.315-.318-.555.066-.24.316-.382.554-.317.187.052.375.098.56.14.586.132 1.237.25 2.048.37.247.038.418.268.38.514-.034.224-.226.384-.446.384zm5.34.915c-.04 0-.078-.004-.118-.014-.74-.2-1.544-.362-2.606-.524-.248-.038-.417-.267-.38-.514.038-.246.263-.416.516-.377 1.097.168 1.932.336 2.706.545.24.066.383.313.318.553-.054.2-.237.333-.436.333zm54.167 1.435c-.073 0-.148-.018-.216-.056-.22-.12-.3-.395-.18-.613.415-.757.96-1.497 1.664-2.26.17-.185.456-.195.638-.028.184.168.196.453.027.637-.655.71-1.158 1.39-1.538 2.084-.083.15-.237.235-.397.235zm-19.87.61c-.05 0-.097-.007-.145-.023-.237-.08-.364-.335-.285-.57.298-.885.558-1.747.77-2.562.065-.24.313-.383.553-.322.242.062.386.31.323.55-.218.835-.483 1.716-.788 2.62-.064.188-.24.308-.428.308zm-29.648.6c-.12 0-.242-.048-.33-.143-.557-.597-1.257-1.14-2.024-1.568-.218-.122-.296-.397-.174-.614.12-.218.398-.295.615-.173.848.475 1.623 1.077 2.242 1.74.17.182.16.468-.022.637-.088.08-.198.12-.308.12zm48.337 4.01c-.25 0-.452-.202-.45-.45.002-1.028.088-1.936.266-2.78.05-.244.29-.402.535-.35.243.052.4.29.35.534-.165.783-.246 1.632-.248 2.596 0 .25-.203.45-.453.45zm-20.568.465c-.053 0-.108-.01-.16-.03-.234-.087-.35-.347-.263-.58l.36-.94c.202-.53.404-1.058.603-1.588.087-.234.347-.35.582-.263.234.086.352.345.264.58-.2.53-.403 1.06-.606 1.59l-.358.94c-.068.18-.24.29-.422.29zm-26.27.482c-.038 0-.075-.005-.113-.014-.24-.06-.388-.307-.327-.548.063-.244.103-.497.122-.75.008-.103.01-.205.01-.306 0-.455-.073-.912-.22-1.358-.078-.237.052-.49.288-.57.24-.077.494.054.57.29.177.536.267 1.088.267 1.638 0 .122-.004.247-.014.37-.022.307-.072.612-.147.908-.052.204-.236.34-.438.34zm-43.405 1.082c-.186 0-.362-.118-.426-.305-.293-.86-.573-1.72-.85-2.578-.077-.236.053-.49.29-.567.24-.077.492.053.57.29.275.852.554 1.71.845 2.563.08.235-.047.492-.283.572-.048.016-.097.024-.146.024zm39.968 2.91c-.158 0-.31-.08-.394-.227-.123-.217-.047-.492.17-.615.806-.457 1.486-.985 2.02-1.568.166-.185.453-.198.638-.03.184.168.198.453.03.637-.6.655-1.353 1.243-2.242 1.746-.07.04-.147.06-.222.06zm50.73.45c-.228 0-.423-.17-.45-.4l-.1-.876c-.072-.607-.142-1.214-.202-1.82-.024-.246.157-.467.406-.492.253-.022.47.157.493.405.06.6.13 1.202.2 1.803l.102.88c.03.248-.15.47-.398.5h-.052zm-22.784.193c-.042 0-.083-.006-.125-.017-.24-.07-.38-.32-.31-.558.23-.806.504-1.657.835-2.6.082-.236.34-.36.575-.278.236.082.36.34.278.575-.325.926-.594 1.762-.82 2.55-.057.2-.238.327-.434.327zm-33.085 1.007c-.214 0-.404-.15-.445-.367-.047-.245.115-.48.36-.527.704-.133 1.53-.3 2.327-.512l.275-.078c.24-.067.49.07.56.308.07.24-.07.49-.31.56l-.29.08c-.825.223-1.673.392-2.393.527-.03.006-.057.01-.085.01zm-32.847.474c-.17 0-.333-.096-.41-.26-.364-.775-.716-1.6-1.072-2.517-.09-.232.027-.493.26-.583.233-.09.493.025.584.258.35.9.692 1.705 1.048 2.46.106.226.008.495-.217.6-.063.03-.128.043-.192.043zm27.586.804c-.18 0-.352-.107-.422-.285-.09-.232.023-.494.255-.585.762-.3 1.61-.548 2.667-.782.24-.056.485.1.54.343.053.243-.1.483-.345.537-1.01.223-1.814.46-2.53.74-.055.022-.11.032-.166.032zm61.292 2.92c-.014 0-.03 0-.044-.003-.25-.025-.43-.245-.407-.493.06-.59.087-1.188.087-1.78 0-.207-.003-.413-.01-.62l-.01-.237c-.01-.25.18-.46.43-.472.24-.018.46.18.473.428l.01.252c.007.214.01.43.01.648 0 .622-.03 1.25-.09 1.868-.02.233-.218.407-.448.407zm-23.936.103h-.03c-.248-.016-.437-.23-.422-.478.034-.566.095-1.137.18-1.698.052-.35.112-.697.18-1.042.047-.244.282-.403.528-.357.245.048.406.285.358.53-.064.332-.122.666-.172 1.003-.08.535-.14 1.08-.172 1.62-.014.238-.214.422-.45.422zm-41.753.07c-.114 0-.23-.044-.317-.13-.178-.176-.18-.46-.004-.638.765-.774 1.427-1.358 2.083-1.838.2-.15.483-.105.632.096.147.2.104.483-.097.63-.616.45-1.243 1.005-1.975 1.744-.088.09-.205.134-.322.134zm-20.4.728c-.133 0-.266-.06-.355-.173-.547-.696-1.072-1.463-1.56-2.28-.128-.214-.057-.49.157-.62.215-.126.492-.055.62.158.467.784.97 1.52 1.494 2.186.153.196.12.48-.077.633-.083.065-.182.096-.28.096zm16.596 3.124c-.128 0-.256-.054-.345-.16-.162-.19-.14-.473.05-.634.7-.594 1.357-1.27 1.907-1.852.172-.18.458-.19.64-.017.18.17.19.456.018.637-.567.6-1.246 1.297-1.978 1.92-.086.07-.19.107-.293.107zm-12.59.478c-.08 0-.162-.02-.235-.066-.796-.484-1.55-1.045-2.238-1.667-.186-.167-.2-.452-.033-.637s.453-.2.638-.032c.648.584 1.355 1.11 2.103 1.565.213.13.28.406.15.62-.085.138-.233.215-.386.215zm80.79.73c-.06 0-.118-.01-.175-.034-.23-.095-.34-.36-.243-.588.332-.798.607-1.64.82-2.503.058-.244.306-.393.546-.333.242.06.39.304.33.546-.222.908-.512 1.795-.86 2.635-.074.173-.242.277-.42.277zm-22.163.237c-.2 0-.384-.134-.437-.338-.226-.87-.383-1.793-.465-2.74-.02-.247.163-.465.41-.486.256-.024.47.162.49.41.078.896.226 1.767.44 2.59.063.24-.082.488-.324.55-.037.01-.076.014-.113.014zm-50.863.85c-.22 0-.415-.16-.446-.386-.037-.245.134-.475.382-.51.86-.124 1.684-.377 2.446-.75.225-.11.495-.017.605.207.11.223.018.493-.206.603-.847.414-1.76.694-2.715.832-.023.004-.045.005-.066.005zm-2.702.012c-.02 0-.038-.002-.058-.004-.903-.116-1.82-.342-2.724-.674-.235-.086-.355-.345-.27-.58.088-.232.35-.352.58-.266.842.307 1.692.518 2.53.625.247.032.422.258.39.505-.03.228-.223.394-.448.394zm72.833 3.443c-.11 0-.222-.04-.31-.122-.182-.17-.19-.456-.02-.637.585-.625 1.123-1.323 1.6-2.073.133-.21.412-.272.622-.14.212.132.274.41.142.62-.507.8-1.08 1.543-1.705 2.21-.09.094-.21.142-.33.142zm-16.856.49c-.128 0-.255-.055-.345-.16-.593-.695-1.11-1.486-1.538-2.352-.11-.223-.02-.494.206-.604.225-.108.494-.016.605.207.394.798.87 1.527 1.415 2.167.162.19.14.474-.05.635-.086.07-.19.106-.294.106zm12.426 2.553c-.18 0-.35-.106-.42-.283-.092-.23.02-.494.253-.586.817-.326 1.59-.738 2.296-1.225.204-.14.486-.09.628.115.142.205.09.486-.115.628-.762.524-1.595.968-2.476 1.32-.055.022-.112.032-.168.032zm-7.97.397c-.045 0-.09-.006-.136-.02-.92-.29-1.78-.698-2.555-1.21-.208-.138-.265-.417-.126-.626.135-.206.416-.263.625-.125.705.467 1.488.838 2.327 1.102.238.075.37.328.295.565-.06.193-.24.315-.43.315zm3.32.5c-.228 0-.456-.008-.684-.02-.25-.015-.44-.228-.425-.477.015-.25.235-.44.478-.424.217.013.436.027.652.02.646 0 1.302-.056 1.948-.164.245-.04.48.125.52.37.04.247-.124.48-.37.52-.704.117-1.42.148-2.12.174z" stroke="#00D495" stroke-width=".7"/><g transform="translate(60.393 35.05)"><mask id="b" fill="#fff"><use xlink:href="#a"/></mask><path fill="#F3F2F2" mask="url(#b)" d="M35.31 27.497L.936.655l-.57.536v77.495l1.216-1.26 33.726 28.37"/></g><path d="M29.366 60.764L0 37.744v76.12l29.366 26.307" fill="#F3F2F2"/><path d="M61.59 108.65l33.48 28.163c.292.246.72.246 1.01 0l23.53-19.847c.177-.15.278-.367.278-.597V39.55c0-.685-.82-1.04-1.32-.57L95.69 60.465c-.283.265-.716.285-1.02.047L61.03 34.244c-.304-.238-.74-.22-1.02.047L33.296 59.443c-.282.266-.718.286-1.022.046L5.505 38.504c-.514-.404-1.268-.038-1.268.615v71.903c0 .222.095.434.26.582l27.97 25.056c.313.283.795.265 1.088-.038l26.965-27.917c.286-.297.754-.32 1.07-.055m-29.033 30.517L2.69 112.41c-.166-.148-.26-.36-.26-.582v-76.42c0-.652.753-1.018 1.268-.614l28.47 22.317c.304.24.74.22 1.022-.045l26.71-25.15c.283-.267.717-.286 1.022-.048l33.64 26.27c.303.237.737.218 1.02-.047l24.792-23.28c.5-.47 1.322-.117 1.322.57v81.825c0 .23-.102.45-.278.598l-25.335 21.37c-.292.245-.72.246-1.012 0L61.72 111.117c-.315-.266-.784-.242-1.07.054L33.646 139.13c-.293.303-.774.32-1.09.04" fill="#1D1D1B"/><path d="M61.59 108.65l33.48 28.163c.292.246.72.246 1.01 0l23.53-19.847c.177-.15.278-.367.278-.597V39.55c0-.685-.82-1.04-1.32-.57L95.69 60.465c-.283.265-.716.285-1.02.047L61.03 34.244c-.304-.238-.74-.22-1.02.047L33.296 59.443c-.282.266-.718.286-1.022.046L5.505 38.504c-.514-.404-1.268-.038-1.268.615v71.903c0 .222.095.434.26.582l27.97 25.056c.313.283.795.265 1.088-.038l26.965-27.917c.286-.297.754-.32 1.07-.055zm-29.033 30.517L2.69 112.41c-.166-.148-.26-.36-.26-.582v-76.42c0-.652.753-1.018 1.268-.614l28.47 22.317c.304.24.74.22 1.022-.045l26.71-25.15c.283-.267.717-.286 1.022-.048l33.64 26.27c.303.237.737.218 1.02-.047l24.792-23.28c.5-.47 1.322-.117 1.322.57v81.825c0 .23-.102.45-.278.598l-25.335 21.37c-.292.245-.72.246-1.012 0L61.72 111.117c-.315-.266-.784-.242-1.07.054L33.646 139.13c-.293.303-.774.32-1.09.04z" stroke="#000" stroke-width="1.4"/><path d="M60.76 32.436v78.26" fill="#1D1D1B"/><path d="M60.76 32.436v78.26" stroke="#1D1D1B" stroke-width="3.5"/><path d="M17.746 95.38c0 .937-1.882 1.695-4.203 1.695-2.32 0-4.203-.758-4.203-1.695s1.882-1.696 4.203-1.696c2.32 0 4.203.76 4.203 1.696M113.27 54.964l1.562-1.56c.253-.252.253-.66 0-.912-.252-.252-.66-.252-.914 0l-1.564 1.56-1.563-1.56c-.252-.252-.66-.252-.913 0-.253.25-.253.66 0 .912l1.563 1.56-1.563 1.56c-.253.252-.253.66 0 .912.126.126.29.19.457.19.165 0 .33-.064.457-.19l1.564-1.56 1.564 1.56c.126.126.292.19.457.19.166 0 .33-.064.457-.19.253-.252.253-.66 0-.913l-1.563-1.56zM21.83 113.7c-.75-.454-1.456-.98-2.104-1.565-.184-.167-.47-.153-.638.032-.167.185-.153.47.033.637.69.622 1.443 1.182 2.24 1.666.072.045.153.066.233.066.153 0 .302-.077.387-.216.13-.213.063-.49-.15-.62" fill="#00D495"/><path d="M21.83 113.7c-.75-.454-1.456-.98-2.104-1.565-.184-.167-.47-.153-.638.032-.167.185-.153.47.033.637.69.622 1.443 1.182 2.24 1.666.072.045.153.066.233.066.153 0 .302-.077.387-.216.13-.213.063-.49-.15-.62z" stroke="#00D495" stroke-width=".7"/><path d="M26.713 115.466c-.837-.107-1.687-.318-2.528-.625-.23-.085-.493.036-.58.268-.085.234.035.493.27.58.903.33 1.82.558 2.723.673.02.003.04.005.06.005.223 0 .417-.166.447-.394.03-.246-.144-.472-.392-.504" fill="#00D495"/><path d="M26.713 115.466c-.837-.107-1.687-.318-2.528-.625-.23-.085-.493.036-.58.268-.085.234.035.493.27.58.903.33 1.82.558 2.723.673.02.003.04.005.06.005.223 0 .417-.166.447-.394.03-.246-.144-.472-.392-.504z" stroke="#00D495" stroke-width=".7"/><path d="M16.45 108.02c-.13-.215-.405-.284-.62-.157-.215.127-.285.404-.157.618.487.818 1.012 1.585 1.56 2.28.088.115.22.174.355.174.098 0 .196-.03.28-.096.195-.154.23-.437.076-.633-.524-.666-1.027-1.402-1.495-2.186" fill="#00D495"/><path d="M16.45 108.02c-.13-.215-.405-.284-.62-.157-.215.127-.285.404-.157.618.487.818 1.012 1.585 1.56 2.28.088.115.22.174.355.174.098 0 .196-.03.28-.096.195-.154.23-.437.076-.633-.524-.666-1.027-1.402-1.495-2.186z" stroke="#00D495" stroke-width=".7"/><path d="M14.158 103.206c-.09-.233-.35-.347-.585-.258-.232.09-.348.35-.257.584.356.92.707 1.742 1.072 2.518.077.163.24.26.41.26.063 0 .13-.014.19-.044.227-.105.324-.374.218-.6-.356-.755-.7-1.56-1.048-2.46" fill="#00D495"/><path d="M14.158 103.206c-.09-.233-.35-.347-.585-.258-.232.09-.348.35-.257.584.356.92.707 1.742 1.072 2.518.077.163.24.26.41.26.063 0 .13-.014.19-.044.227-.105.324-.374.218-.6-.356-.755-.7-1.56-1.048-2.46z" stroke="#00D495" stroke-width=".7"/><path d="M12.398 98.116c-.077-.237-.33-.366-.57-.29-.237.076-.367.33-.29.568.277.856.558 1.718.85 2.576.064.188.24.305.428.305.048 0 .098-.007.145-.024.237-.08.365-.336.284-.57-.292-.854-.57-1.712-.846-2.564" fill="#00D495"/><path d="M12.398 98.116c-.077-.237-.33-.366-.57-.29-.237.076-.367.33-.29.568.277.856.558 1.718.85 2.576.064.188.24.305.428.305.048 0 .098-.007.145-.024.237-.08.365-.336.284-.57-.292-.854-.57-1.712-.846-2.564z" stroke="#00D495" stroke-width=".7"/><path d="M31.74 114.708c-.76.372-1.584.625-2.446.75-.247.034-.42.264-.382.51.032.224.225.386.446.386.022 0 .043 0 .066-.005.955-.14 1.868-.42 2.715-.833.223-.11.315-.38.205-.603-.11-.224-.38-.318-.604-.206" fill="#00D495"/><path d="M31.74 114.708c-.76.372-1.584.625-2.446.75-.247.034-.42.264-.382.51.032.224.225.386.446.386.022 0 .043 0 .066-.005.955-.14 1.868-.42 2.715-.833.223-.11.315-.38.205-.603-.11-.224-.38-.318-.604-.206z" stroke="#00D495" stroke-width=".7"/><path d="M78.143 63.875c.088.093.208.14.328.14.112 0 .225-.04.312-.123.18-.172.188-.457.017-.637-.638-.67-1.323-1.3-2.037-1.875-.194-.156-.48-.125-.635.07-.157.192-.126.477.068.632.683.55 1.338 1.153 1.947 1.793" fill="#00D495"/><path d="M78.143 63.875c.088.093.208.14.328.14.112 0 .225-.04.312-.123.18-.172.188-.457.017-.637-.638-.67-1.323-1.3-2.037-1.875-.194-.156-.48-.125-.635.07-.157.192-.126.477.068.632.683.55 1.338 1.153 1.947 1.793z" stroke="#00D495" stroke-width=".7"/><path d="M72.12 78.57c.026.003.05.005.077.005.216 0 .407-.154.445-.372.15-.842.452-1.663.876-2.373.128-.214.057-.49-.158-.618-.213-.128-.49-.057-.62.157-.478.802-.82 1.727-.988 2.676-.043.245.122.48.367.523" fill="#00D495"/><path d="M72.12 78.57c.026.003.05.005.077.005.216 0 .407-.154.445-.372.15-.842.452-1.663.876-2.373.128-.214.057-.49-.158-.618-.213-.128-.49-.057-.62.157-.478.802-.82 1.727-.988 2.676-.043.245.122.48.367.523z" stroke="#00D495" stroke-width=".7"/><path d="M72.677 80.715c-.054-.243-.295-.394-.54-.343-.243.054-.397.295-.343.538.227 1.02.693 1.914 1.35 2.586.088.09.205.137.323.137.114 0 .228-.042.316-.128.178-.173.182-.458.008-.637-.538-.553-.923-1.297-1.113-2.153" fill="#00D495"/><path d="M72.677 80.715c-.054-.243-.295-.394-.54-.343-.243.054-.397.295-.343.538.227 1.02.693 1.914 1.35 2.586.088.09.205.137.323.137.114 0 .228-.042.316-.128.178-.173.182-.458.008-.637-.538-.553-.923-1.297-1.113-2.153z" stroke="#00D495" stroke-width=".7"/><path d="M69.383 57.67c-.887-.223-1.807-.383-2.734-.477-.25-.02-.47.156-.496.403-.026.248.156.47.404.494.883.09 1.76.243 2.603.455.038.01.076.014.112.014.203 0 .387-.138.438-.342.06-.24-.086-.487-.327-.547" fill="#00D495"/><path d="M69.383 57.67c-.887-.223-1.807-.383-2.734-.477-.25-.02-.47.156-.496.403-.026.248.156.47.404.494.883.09 1.76.243 2.603.455.038.01.076.014.112.014.203 0 .387-.138.438-.342.06-.24-.086-.487-.327-.547z" stroke="#00D495" stroke-width=".7"/><path d="M63.878 57.108c-.268.01-.54.037-.807.06v.902c.28-.023.563-.05.843-.06.25-.01.444-.22.434-.47-.01-.247-.225-.438-.47-.432" fill="#00D495"/><path d="M63.878 57.108c-.268.01-.54.037-.807.06v.902c.28-.023.563-.05.843-.06.25-.01.444-.22.434-.47-.01-.247-.225-.438-.47-.432z" stroke="#00D495" stroke-width=".7"/><path d="M87.77 82.795c.028.23.223.4.45.4.017 0 .035-.002.052-.004.248-.028.426-.25.397-.498-.11-.946-.304-1.863-.578-2.727-.075-.237-.33-.37-.567-.295-.237.075-.37.33-.295.567.256.81.438 1.67.54 2.558" fill="#00D495"/><path d="M87.77 82.795c.028.23.223.4.45.4.017 0 .035-.002.052-.004.248-.028.426-.25.397-.498-.11-.946-.304-1.863-.578-2.727-.075-.237-.33-.37-.567-.295-.237.075-.37.33-.295.567.256.81.438 1.67.54 2.558z" stroke="#00D495" stroke-width=".7"/><path d="M88.33 84.993c-.233-.017-.46.183-.47.433-.035.838-.128 1.725-.278 2.633-.04.244.125.476.372.517.025.004.05.006.074.006.217 0 .41-.157.445-.377.156-.945.254-1.868.29-2.744.01-.25-.184-.46-.433-.47" fill="#00D495"/><path d="M88.33 84.993c-.233-.017-.46.183-.47.433-.035.838-.128 1.725-.278 2.633-.04.244.125.476.372.517.025.004.05.006.074.006.217 0 .41-.157.445-.377.156-.945.254-1.868.29-2.744.01-.25-.184-.46-.433-.47z" stroke="#00D495" stroke-width=".7"/><path d="M74.49 59.798c-.798-.478-1.63-.9-2.474-1.25-.23-.098-.494.01-.59.24-.097.23.01.495.24.59.805.336 1.6.738 2.36 1.193.072.045.153.065.232.065.154 0 .303-.078.388-.22.128-.212.06-.49-.155-.617" fill="#00D495"/><path d="M74.49 59.798c-.798-.478-1.63-.9-2.474-1.25-.23-.098-.494.01-.59.24-.097.23.01.495.24.59.805.336 1.6.738 2.36 1.193.072.045.153.065.232.065.154 0 .303-.078.388-.22.128-.212.06-.49-.155-.617z" stroke="#00D495" stroke-width=".7"/><path d="M81.23 68.153c.083.153.24.24.4.24.072 0 .145-.017.212-.054.22-.117.304-.39.187-.61-.43-.807-.923-1.597-1.465-2.347-.145-.2-.428-.247-.63-.102-.203.147-.25.428-.103.63.518.717.988 1.47 1.4 2.243" fill="#00D495"/><path d="M81.23 68.153c.083.153.24.24.4.24.072 0 .145-.017.212-.054.22-.117.304-.39.187-.61-.43-.807-.923-1.597-1.465-2.347-.145-.2-.428-.247-.63-.102-.203.147-.25.428-.103.63.518.717.988 1.47 1.4 2.243z" stroke="#00D495" stroke-width=".7"/><path d="M86.16 77.88c.085.14.233.215.384.215.082 0 .165-.023.238-.068.213-.13.278-.41.146-.62-.492-.793-1.085-1.53-1.763-2.19-.178-.174-.464-.17-.64.007-.173.18-.17.464.01.638.625.61 1.172 1.29 1.625 2.02" fill="#00D495"/><path d="M86.16 77.88c.085.14.233.215.384.215.082 0 .165-.023.238-.068.213-.13.278-.41.146-.62-.492-.793-1.085-1.53-1.763-2.19-.178-.174-.464-.17-.64.007-.173.18-.17.464.01.638.625.61 1.172 1.29 1.625 2.02z" stroke="#00D495" stroke-width=".7"/><path d="M84.015 100.556c-.236-.083-.494.042-.576.277-.332.944-.605 1.795-.837 2.6-.068.24.07.49.31.558.042.013.084.02.125.02.197 0 .378-.13.434-.328.227-.79.495-1.624.82-2.552.083-.234-.04-.49-.277-.574" fill="#00D495"/><path d="M84.015 100.556c-.236-.083-.494.042-.576.277-.332.944-.605 1.795-.837 2.6-.068.24.07.49.31.558.042.013.084.02.125.02.197 0 .378-.13.434-.328.227-.79.495-1.624.82-2.552.083-.234-.04-.49-.277-.574z" stroke="#00D495" stroke-width=".7"/><path d="M83.017 73.105l.442-.09.426-.168c-.178-.868-.425-1.74-.732-2.588-.085-.235-.344-.356-.578-.27-.236.083-.384.353-.272.575.206.41.46 1.33.713 2.54" fill="#00D495"/><path d="M83.017 73.105l.442-.09.426-.168c-.178-.868-.425-1.74-.732-2.588-.085-.235-.344-.356-.578-.27-.236.083-.384.353-.272.575.206.41.46 1.33.713 2.54z" stroke="#00D495" stroke-width=".7"/><path d="M83.313 75.71l.003.292c0 .805-.076 1.577-.226 2.295-.05.244.105.483.35.533.03.007.062.01.092.01.21 0 .4-.146.442-.36.164-.777.246-1.612.246-2.476l-.003-.314c-.006-.25-.2-.427-.46-.44-.25.005-.45.21-.444.46" fill="#00D495"/><path d="M83.313 75.71l.003.292c0 .805-.076 1.577-.226 2.295-.05.244.105.483.35.533.03.007.062.01.092.01.21 0 .4-.146.442-.36.164-.777.246-1.612.246-2.476l-.003-.314c-.006-.25-.2-.427-.46-.44-.25.005-.45.21-.444.46z" stroke="#00D495" stroke-width=".7"/><path d="M82.53 111.53c-.022-.247-.235-.44-.49-.41-.247.02-.432.24-.41.488.08.946.238 1.868.465 2.74.053.202.236.337.437.337.038 0 .076-.004.114-.015.24-.062.386-.308.324-.55-.215-.822-.362-1.693-.44-2.59" fill="#00D495"/><path d="M82.53 111.53c-.022-.247-.235-.44-.49-.41-.247.02-.432.24-.41.488.08.946.238 1.868.465 2.74.053.202.236.337.437.337.038 0 .076-.004.114-.015.24-.062.386-.308.324-.55-.215-.822-.362-1.693-.44-2.59z" stroke="#00D495" stroke-width=".7"/><path d="M77.558 73.195c.247-.032.422-.258.39-.505-.032-.247-.26-.42-.506-.39-.513.067-1.02.186-1.507.358-.426.15-.835.354-1.22.606-.207.137-.264.417-.126.625.086.13.23.2.376.2.086 0 .172-.023.25-.073.32-.213.664-.383 1.02-.508.427-.152.87-.258 1.322-.315" fill="#00D495"/><path d="M77.558 73.195c.247-.032.422-.258.39-.505-.032-.247-.26-.42-.506-.39-.513.067-1.02.186-1.507.358-.426.15-.835.354-1.22.606-.207.137-.264.417-.126.625.086.13.23.2.376.2.086 0 .172-.023.25-.073.32-.213.664-.383 1.02-.508.427-.152.87-.258 1.322-.315z" stroke="#00D495" stroke-width=".7"/><path d="M82.022 109.317h.028c.237 0 .436-.183.45-.423.033-.538.09-1.083.172-1.62.05-.335.108-.67.173-1.002.047-.245-.113-.482-.358-.53-.247-.045-.482.115-.53.358-.067.345-.126.692-.18 1.04-.083.563-.144 1.134-.18 1.7-.014.248.176.46.425.477" fill="#00D495"/><path d="M82.022 109.317h.028c.237 0 .436-.183.45-.423.033-.538.09-1.083.172-1.62.05-.335.108-.67.173-1.002.047-.245-.113-.482-.358-.53-.247-.045-.482.115-.53.358-.067.345-.126.692-.18 1.04-.083.563-.144 1.134-.18 1.7-.014.248.176.46.425.477z" stroke="#00D495" stroke-width=".7"/><path d="M82.762 81.547c.084-.133.165-.27.24-.408.122-.22.043-.494-.176-.613-.22-.122-.493-.042-.613.176-.07.123-.14.245-.217.365-.368.585-.84 1.113-1.4 1.568-.193.156-.222.44-.065.634.09.11.22.166.352.166.1 0 .2-.033.285-.1.637-.518 1.173-1.12 1.595-1.79" fill="#00D495"/><path d="M82.762 81.547c.084-.133.165-.27.24-.408.122-.22.043-.494-.176-.613-.22-.122-.493-.042-.613.176-.07.123-.14.245-.217.365-.368.585-.84 1.113-1.4 1.568-.193.156-.222.44-.065.634.09.11.22.166.352.166.1 0 .2-.033.285-.1.637-.518 1.173-1.12 1.595-1.79z" stroke="#00D495" stroke-width=".7"/><path d="M94.69 121.864c-.867.144-1.744.19-2.6.144-.245-.013-.464.176-.478.425-.014.25.176.462.426.476.233.012.47.02.704.02.695 0 1.4-.06 2.097-.177.245-.04.41-.273.37-.518-.04-.247-.273-.414-.52-.37" fill="#00D495"/><path d="M94.69 121.864c-.867.144-1.744.19-2.6.144-.245-.013-.464.176-.478.425-.014.25.176.462.426.476.233.012.47.02.704.02.695 0 1.4-.06 2.097-.177.245-.04.41-.273.37-.518-.04-.247-.273-.414-.52-.37z" stroke="#00D495" stroke-width=".7"/><path d="M78.377 83.826c-.838.254-1.687.306-2.462.156-.246-.05-.483.11-.53.356-.048.244.112.48.357.53.345.066.704.1 1.066.1.604 0 1.22-.093 1.83-.278.24-.072.375-.325.303-.563-.072-.238-.323-.373-.563-.3" fill="#00D495"/><path d="M78.377 83.826c-.838.254-1.687.306-2.462.156-.246-.05-.483.11-.53.356-.048.244.112.48.357.53.345.066.704.1 1.066.1.604 0 1.22-.093 1.83-.278.24-.072.375-.325.303-.563-.072-.238-.323-.373-.563-.3z" stroke="#00D495" stroke-width=".7"/><path d="M82.697 74.355c.156 0 .308-.08.392-.226.124-.216.05-.492-.167-.616-.85-.49-1.734-.845-2.63-1.054-.24-.055-.485.092-.54.335-.058.243.092.485.335.543.808.19 1.61.51 2.383.957.072.04.15.06.227.06" fill="#00D495"/><path d="M82.697 74.355c.156 0 .308-.08.392-.226.124-.216.05-.492-.167-.616-.85-.49-1.734-.845-2.63-1.054-.24-.055-.485.092-.54.335-.058.243.092.485.335.543.808.19 1.61.51 2.383.957.072.04.15.06.227.06z" stroke="#00D495" stroke-width=".7"/><path d="M86.678 93.817c.19 0 .366-.12.43-.306.304-.903.57-1.784.787-2.62.064-.24-.08-.487-.323-.55-.24-.06-.488.082-.55.323-.214.814-.474 1.676-.772 2.56-.08.236.048.492.284.57.048.017.097.024.144.024" fill="#00D495"/><path d="M86.678 93.817c.19 0 .366-.12.43-.306.304-.903.57-1.784.787-2.62.064-.24-.08-.487-.323-.55-.24-.06-.488.082-.55.323-.214.814-.474 1.676-.772 2.56-.08.236.048.492.284.57.048.017.097.024.144.024z" stroke="#00D495" stroke-width=".7"/><path d="M89.538 121.55c-.84-.265-1.623-.635-2.328-1.103-.21-.137-.49-.08-.627.127-.137.208-.08.488.127.626.777.513 1.637.92 2.556 1.21.045.013.09.02.135.02.194 0 .372-.123.433-.315.075-.238-.057-.49-.295-.566" fill="#00D495"/><path d="M89.538 121.55c-.84-.265-1.623-.635-2.328-1.103-.21-.137-.49-.08-.627.127-.137.208-.08.488.127.626.777.513 1.637.92 2.556 1.21.045.013.09.02.135.02.194 0 .372-.123.433-.315.075-.238-.057-.49-.295-.566z" stroke="#00D495" stroke-width=".7"/><path d="M85.922 95.492c-.234-.087-.494.03-.582.263-.2.53-.4 1.06-.604 1.588l-.358.94c-.088.232.03.493.262.58.053.02.107.03.16.03.183 0 .355-.11.423-.29l.358-.94c.204-.53.407-1.06.606-1.59.088-.234-.03-.494-.264-.58" fill="#00D495"/><path d="M85.922 95.492c-.234-.087-.494.03-.582.263-.2.53-.4 1.06-.604 1.588l-.358.94c-.088.232.03.493.262.58.053.02.107.03.16.03.183 0 .355-.11.423-.29l.358-.94c.204-.53.407-1.06.606-1.59.088-.234-.03-.494-.264-.58z" stroke="#00D495" stroke-width=".7"/><path d="M83.873 116.57c-.11-.224-.38-.315-.605-.206-.224.11-.316.38-.206.604.427.865.944 1.657 1.538 2.352.09.106.217.16.344.16.104 0 .208-.036.293-.108.19-.16.212-.446.05-.636-.544-.638-1.02-1.367-1.414-2.167" fill="#00D495"/><path d="M83.873 116.57c-.11-.224-.38-.315-.605-.206-.224.11-.316.38-.206.604.427.865.944 1.657 1.538 2.352.09.106.217.16.344.16.104 0 .208-.036.293-.108.19-.16.212-.446.05-.636-.544-.638-1.02-1.367-1.414-2.167z" stroke="#00D495" stroke-width=".7"/><path d="M33.583 58.26v78.26" fill="#1D1D1B"/><path d="M33.583 58.26v78.26" stroke="#1D1D1B" stroke-width="3.5"/><g><path d="M95.702 58.26v78.26" fill="#1D1D1B"/><path d="M95.702 58.26v78.26" stroke="#1D1D1B" stroke-width="3.5"/></g></g></svg>