<svg width="142" height="142" viewBox="0 0 142 142" xmlns="http://www.w3.org/2000/svg" xmlns:xlink="http://www.w3.org/1999/xlink"><title>picto-lighthouse</title><defs><path id="a" d="M19 130.99h103.436V4H19z"/></defs><g fill="none" fill-rule="evenodd"><circle fill="#00D495" opacity=".1" cx="71" cy="71" r="71"/><path d="M88.016 49.37H55.05c-1.157 0-2.094-.936-2.094-2.09V36.2c0-1.154.937-2.09 2.094-2.09h32.966c1.158 0 2.095.936 2.095 2.09v11.08c0 1.154-.936 2.09-2.094 2.09z" fill="#FFF"/><path d="M82.83 34.05l-1.104-11.58c-.078-.81-.76-1.427-1.573-1.427H63.44c-.815 0-1.496.618-1.573 1.428l-1.105 11.58" fill="#F3F3F6"/><mask id="b" fill="#fff"><use xlink:href="#a"/></mask><path fill="#F3F3F6" mask="url(#b)" d="M60.776 49.37h2.852V34.11h-2.852M66.402 49.37h2.852V34.11h-2.852M72.03 49.37h2.85V34.11h-2.85M77.655 49.37h2.85V34.11h-2.85M55.15 49.37H58V34.11h-2.85M83.28 49.37h2.852V34.11H83.28M55.95 118.42l5.437-68.593h24.54l5.438 68.594"/><path d="M88.016 49.37H55.05c-1.157 0-2.094-.936-2.094-2.09V36.2c0-1.154.937-2.09 2.094-2.09h32.966c1.158 0 2.095.936 2.095 2.09v11.08c0 1.154-.936 2.09-2.094 2.09z" stroke="#1D1D1B" stroke-width="2.8" mask="url(#b)"/><g mask="url(#b)"><path d="M81.21 20.747l-8.566-8.08c-.465-.69-1.485-.685-1.94.01l-8.118 7.916" fill="#F3F3F6"/><path d="M81.21 20.747l-8.566-8.08c-.465-.69-1.485-.685-1.94.01l-8.118 7.916" stroke="#1D1D1B" stroke-width="3.5"/></g><path stroke="#1D1D1B" stroke-width="3.5" mask="url(#b)" d="M53.84 118.42l5.437-68.593h24.54l5.438 68.594"/><path d="M82.83 33.348l-1.104-11.58c-.078-.81-.76-1.427-1.573-1.427H63.44c-.815 0-1.496.62-1.573 1.43l-1.105 11.578" stroke="#1D1D1B" stroke-width="3.5" stroke-linecap="round" mask="url(#b)"/><path d="M57.963 48.932V34.11" stroke="#1D1D1B" stroke-width="2.1" stroke-linecap="round" mask="url(#b)"/><path d="M71.796 12.152V5.754" stroke="#1D1D1B" stroke-width="3.5" stroke-linecap="round" mask="url(#b)"/><path d="M63.59 48.932V34.11M69.215 48.932V34.11M74.84 48.932V34.11M80.468 48.932V34.11M86.094 48.932V34.11" stroke="#1D1D1B" stroke-width="2.1" stroke-linecap="round" mask="url(#b)"/><path d="M52.786 19.368c-.112 0-.226-.027-.332-.084L36.94 10.942c-.34-.183-.47-.61-.285-.95.185-.34.61-.47.952-.285L53.12 18.05c.34.182.47.608.285.95-.126.235-.37.368-.62.368" fill="#FFDB5F" mask="url(#b)"/><path d="M52.786 19.368c-.112 0-.226-.027-.332-.084L36.94 10.942c-.34-.183-.47-.61-.285-.95.185-.34.61-.47.952-.285L53.12 18.05c.34.182.47.608.285.95-.126.235-.37.368-.62.368z" stroke="#1D1D1B" stroke-width="2.1" mask="url(#b)"/><path d="M52.787 25.044l-17.62-.015c-.39-.002-.703-.316-.703-.704 0-.387.316-.7.703-.7l17.62.015c.388 0 .702.316.702.703 0 .387-.315.7-.703.7" fill="#FFDB5F" mask="url(#b)"/><path d="M52.787 25.044l-17.62-.015c-.39-.002-.703-.316-.703-.704 0-.387.316-.7.703-.7l17.62.015c.388 0 .702.316.702.703 0 .387-.315.7-.703.7z" stroke="#1D1D1B" stroke-width="2.1" mask="url(#b)"/><path d="M37.197 38.483c-.252 0-.497-.137-.623-.375-.18-.343-.05-.767.295-.948l15.59-8.195c.342-.18.768-.05.948.294.18.34.05.765-.294.946l-15.59 8.196c-.105.055-.217.08-.327.08" fill="#FFDB5F" mask="url(#b)"/><path d="M37.197 38.483c-.252 0-.497-.137-.623-.375-.18-.343-.05-.767.295-.948l15.59-8.195c.342-.18.768-.05.948.294.18.34.05.765-.294.946l-15.59 8.196c-.105.055-.217.08-.327.08z" stroke="#1D1D1B" stroke-width="2.1" mask="url(#b)"/><path d="M91.43 19.368c-.25 0-.493-.133-.62-.37-.184-.34-.056-.766.286-.95l15.513-8.34c.34-.185.766-.057.95.284.184.34.056.767-.285.95l-15.513 8.342c-.106.056-.22.084-.333.084" fill="#FFDB5F" mask="url(#b)"/><path d="M91.43 19.368c-.25 0-.493-.133-.62-.37-.184-.34-.056-.766.286-.95l15.513-8.34c.34-.185.766-.057.95.284.184.34.056.767-.285.95l-15.513 8.342c-.106.056-.22.084-.333.084z" stroke="#1D1D1B" stroke-width="2.1" mask="url(#b)"/><path d="M91.43 25.044c-.39 0-.704-.314-.704-.7 0-.388.314-.703.702-.703l17.62-.015c.388 0 .702.314.702.7 0 .39-.314.703-.702.704l-17.62.014z" fill="#FFDB5F" mask="url(#b)"/><path d="M91.43 25.044c-.39 0-.704-.314-.704-.7 0-.388.314-.703.702-.703l17.62-.015c.388 0 .702.314.702.7 0 .39-.314.703-.702.704l-17.62.014z" stroke="#1D1D1B" stroke-width="2.1" mask="url(#b)"/><path d="M107.02 38.483c-.112 0-.223-.026-.328-.08l-15.59-8.197c-.344-.18-.476-.605-.295-.947.18-.345.605-.477.95-.295l15.59 8.195c.343.18.475.605.294.948-.125.238-.37.375-.62.375" fill="#FFDB5F" mask="url(#b)"/><path d="M107.02 38.483c-.112 0-.223-.026-.328-.08l-15.59-8.197c-.344-.18-.476-.605-.295-.947.18-.345.605-.477.95-.295l15.59 8.195c.343.18.475.605.294.948-.125.238-.37.375-.62.375z" stroke="#1D1D1B" stroke-width="2.1" mask="url(#b)"/><path d="M57.48 72.507c18.506-1.052 27.434-8.85 27.434-8.85l-.682-8.614s-7.543 7.54-26.05 8.593l-.702 8.87z" fill="#00D495" mask="url(#b)"/><path d="M57.48 72.507c18.506-1.052 27.434-8.85 27.434-8.85l-.682-8.614s-7.543 7.54-26.05 8.593l-.702 8.87z" stroke="#1D1D1B" stroke-width="2.8" mask="url(#b)"/><path d="M55.74 94.463c18.506-1.053 30.68-10.34 30.68-10.34l-.643-9.582c.106-.08-10.672 9.32-29.218 10.403l-.82 9.52z" fill="#00D495" mask="url(#b)"/><path d="M55.74 94.463c18.506-1.053 30.68-10.34 30.68-10.34l-.643-9.582c.106-.08-10.672 9.32-29.218 10.403l-.82 9.52z" stroke="#1D1D1B" stroke-width="2.8" mask="url(#b)"/><g mask="url(#b)"><path d="M65.31 114.3c-3.18.744-7.71 1.287-11.26 1.494l.848-9.307c18.575-1.103 32.643-12.16 32.458-12.024l.78 9.832c.063-.036-6.538 4.184-14.568 7.345" fill="#00D495"/><path d="M65.31 114.3c-3.18.744-7.71 1.287-11.26 1.494l.848-9.307c18.575-1.103 32.643-12.16 32.458-12.024l.78 9.832c.063-.036-6.538 4.184-14.568 7.345" stroke="#1D1D1B" stroke-width="2.8"/></g><path d="M73.97 31.69l1.554-2.61c.068-.116-.015-.26-.148-.26h-1.55c-.145 0-.226-.168-.136-.28l2.898-4.018c.128-.16.378-.003.29.182l-1.216 2.535c-.055.113.028.246.156.246h1.862c.15 0 .23.18.126.29l-3.563 4.12c-.14.15-.38-.03-.274-.206" fill="#FFF" mask="url(#b)"/><path d="M73.97 31.69l1.554-2.61c.068-.116-.015-.26-.148-.26h-1.55c-.145 0-.226-.168-.136-.28l2.898-4.018c.128-.16.378-.003.29.182l-1.216 2.535c-.055.113.028.246.156.246h1.862c.15 0 .23.18.126.29l-3.563 4.12c-.14.15-.38-.03-.274-.206z" stroke="#1D1D1B" stroke-width=".7" stroke-linecap="round" mask="url(#b)"/><path d="M45.404 125.198c2.435 1.912 5.362 3.406 8.342 3.65 4.328.353 8.26-1.865 10.192-3.563 2.964-2.606 4.472-3.84 7.61-3.924 2.927-.078 6.264 2.487 8.113 4.302 1.675 1.644 4.834 3.427 8.254 3.154 3.51-.28 6.78-2.63 8.583-4.194 3.452-2.99 22.96-6.96 22.96-6.96 0-1.823-18.905-7.087-22.96-3.573-1.804 1.562-5.074 3.913-8.583 4.193-3.42.273-6.58-1.51-8.253-3.154-1.848-1.816-5.185-4.382-8.112-4.302-3.138.085-4.646 1.317-7.61 3.924-1.93 1.697-5.864 3.916-10.192 3.562-2.98-.243-5.907-1.737-8.342-3.65-3.617-2.84-22.055 1.69-22.055 3.873 0 0 18.722 4.043 22.054 6.66" fill="#FFF" mask="url(#b)"/><path d="M45.404 125.198c2.435 1.912 5.362 3.406 8.342 3.65 4.328.353 8.26-1.865 10.192-3.563 2.964-2.606 4.472-3.84 7.61-3.924 2.927-.078 6.264 2.487 8.113 4.302 1.675 1.644 4.834 3.427 8.254 3.154 3.51-.28 6.78-2.63 8.583-4.194 3.452-2.99 22.96-6.96 22.96-6.96 0-1.823-18.905-7.087-22.96-3.573-1.804 1.562-5.074 3.913-8.583 4.193-3.42.273-6.58-1.51-8.253-3.154-1.848-1.816-5.185-4.382-8.112-4.302-3.138.085-4.646 1.317-7.61 3.924-1.93 1.697-5.864 3.916-10.192 3.562-2.98-.243-5.907-1.737-8.342-3.65-3.617-2.84-22.055 1.69-22.055 3.873 0 0 18.722 4.043 22.054 6.66z" stroke="#1D1D1B" stroke-width="4.2" stroke-linecap="round" mask="url(#b)"/><path d="M117.3 114.382c-9.618-7.515-12.646 7.448-6.8 6.232.97-.202 16.992 1.73 6.8-6.232z" fill="#FFF" mask="url(#b)"/><path d="M110.5 120.614c.97-.202 16.992 1.73 6.8-6.232-9.618-7.515-12.646 7.448-6.8 6.232z" stroke="#1D1D1B" stroke-width="3.5" mask="url(#b)"/><path d="M98.095 123.204c1.042 1.286 28.108 1.17 11.36-10.408-15.096-10.436-15.81 4.912-11.36 10.408" fill="#FFF" mask="url(#b)"/><path d="M98.095 123.204c1.042 1.286 28.108 1.17 11.36-10.408-15.096-10.436-15.81 4.912-11.36 10.408z" stroke="#1D1D1B" stroke-width="3.5" mask="url(#b)"/><path d="M22.873 125.023c13.754 1.78 6.26-7.89 4.248-7.89-5.54 0-8.715 7.312-4.247 7.89" fill="#FFF" mask="url(#b)"/><path d="M22.873 125.023c13.754 1.78 6.26-7.89 4.248-7.89-5.54 0-8.715 7.312-4.247 7.89z" stroke="#1D1D1B" stroke-width="3.5" mask="url(#b)"/><path d="M32.284 126.188c28.83 3.73 13.12-16.538 8.905-16.538-11.616 0-18.272 15.325-8.906 16.538" fill="#FFF" mask="url(#b)"/><path d="M32.284 126.188c28.83 3.73 13.12-16.538 8.905-16.538-11.616 0-18.272 15.325-8.906 16.538z" stroke="#1D1D1B" stroke-width="3.5" mask="url(#b)"/><path d="M34.83 128.607c11.863.812 4.183-5.272 2.838-5.272-4.677 0-5.842 5.066-2.838 5.272" fill="#E2ECF1" mask="url(#b)"/><path d="M34.83 128.607c11.863.812 4.183-5.272 2.838-5.272-4.677 0-5.842 5.066-2.838 5.272z" stroke="#1D1D1B" stroke-width="3.5" mask="url(#b)"/></g></svg>