<?xml version="1.0" encoding="UTF-8" standalone="no"?>
<svg width="16px" height="12px" viewBox="0 0 16 12" version="1.1" xmlns="http://www.w3.org/2000/svg" xmlns:xlink="http://www.w3.org/1999/xlink">
    <!-- Generator: Sketch 41.2 (35397) - http://www.bohemiancoding.com/sketch -->
    <title>Fill 1</title>
    <desc>Created with Sketch.</desc>
    <defs></defs>
    <g id="Symbols" stroke="none" stroke-width="1" fill="none" fill-rule="evenodd">
        <g id="Last-Next" transform="translate(-39.000000, -47.000000)" fill="#EA215A">
            <path d="M54.910355,52 L46.910355,47 C46.5827525,46.8382171 46.04262,47.1962048 45.910355,48 C46.1414486,49.5918138 47.3352196,50.1954792 47.910355,51 C45.4594335,50.9996979 44.3830825,51.0468279 40.910355,51 C40.5356171,50.7289509 39.910355,51.3235914 39.910355,52 L39.910355,54 C39.910355,54.9265312 40.41624,55.4880805 40.910355,56 C44.1864038,55.7909159 45.8948664,54.8643597 47.910355,55 C47.6688884,55.7267389 46.2813742,56.3945813 45.910355,58 C46.1062225,58.813254 46.6894091,59.1832748 46.910355,59 L54.910355,53 C55.0399355,52.8106941 55.019387,52.1077548 54.910355,52" id="Fill-1" transform="translate(47.455178, 53.003997) scale(-1, 1) translate(-47.455178, -53.003997) "></path>
        </g>
    </g>
</svg>