<?xml version="1.0" encoding="UTF-8" standalone="no"?>
<svg width="175px" height="142px" viewBox="0 0 175 142" version="1.1" xmlns="http://www.w3.org/2000/svg" xmlns:xlink="http://www.w3.org/1999/xlink">
    <!-- Generator: Sketch 41.2 (35397) - http://www.bohemiancoding.com/sketch -->
    <title>Group</title>
    <desc>Created with Sketch.</desc>
    <defs></defs>
    <g id="Page-1" stroke="none" stroke-width="1" fill="none" fill-rule="evenodd">
        <g id="Group">
            <circle id="Oval" fill="#00D495" opacity="0.100000001" cx="71" cy="71" r="71"></circle>
            <g id="Page-1" transform="translate(18.000000, 22.000000)">
                <path d="M156.76444,71.55078 C156.76444,66.92898 153.919864,62.97798 149.891196,61.34058 C148.706505,52.84338 141.423383,46.30158 132.611009,46.30158 C126.686356,46.30158 121.45502,49.26018 118.300039,53.77938 C113.995123,49.42398 108.02373,46.72458 101.420742,46.72458 C92.4999057,46.72458 84.7320011,51.65238 80.6721729,58.93458 C76.6129439,51.65238 68.8444401,46.72458 59.9236042,46.72458 C53.29365,46.72458 47.3012836,49.44738 42.9927721,53.83338 C39.8419859,49.28358 34.5914744,46.30158 28.6434515,46.30158 C19.7981195,46.30158 12.4952225,52.89138 11.3512798,61.43418 C7.44365763,63.12558 4.70694389,67.01658 4.70694389,71.55078 C4.70694389,77.13258 8.85545916,81.73338 14.2318103,82.45998 C16.2332607,93.56538 25.9283103,101.99178 37.5960469,101.99178 C43.9905011,101.99178 49.7899134,99.45738 54.0600737,95.34258 C56.9136385,100.92318 62.7106538,104.74578 69.4029286,104.74578 C73.9217721,104.74578 78.0325355,103.00158 81.1060202,100.15218 C84.179505,103.00158 88.2902683,104.74578 92.8091118,104.74578 C99.05915,104.74578 104.531978,101.41398 107.55273,96.42738 C111.680272,99.89838 117.002692,101.99178 122.814688,101.99178 C134.450665,101.99178 144.125341,93.61158 146.163345,82.55118 C152.052642,82.33578 156.76444,77.50038 156.76444,71.55078" id="Fill-1" fill="#FFFFFF"></path>
                <path d="M118.730471,95.98776 C113.296593,95.98776 108.013124,94.06116 103.853822,90.56376 L103.318105,90.11376 L103.318105,90.11376 C100.036685,86.27376 100.045673,80.48376 103.536227,76.65936 L102.651154,75.84996 C98.6620359,80.22036 98.7369405,86.88816 102.653551,91.17636 C99.5668832,95.92056 94.4050588,98.74176 88.7248947,98.74176 C84.5242458,98.74176 80.5123565,97.16736 77.429284,94.30776 L77.0218031,93.92976 L76.6143221,94.30776 C73.5312496,97.16736 69.5199595,98.74176 65.3187115,98.74176 C59.2047,98.74176 53.6659557,95.43036 50.7380855,90.07716 C53.0241733,88.09056 54.4018183,85.33176 54.6181427,82.30836 C54.8344672,79.28076 53.8607076,76.35036 51.8754366,74.05596 L50.9693908,74.84256 C54.5702038,79.00296 54.1807,85.27596 50.1562267,88.97556 L50.1412458,88.94616 L49.5599863,89.50596 C45.2227115,93.68616 39.5233718,95.98776 33.512429,95.98776 C22.3037076,95.98776 12.7255092,87.98076 10.7366427,76.94976 L10.6593412,76.52016 L10.2272916,76.46136 C5.0936313,75.76776 1.22196336,71.33316 1.22196336,66.14676 C1.22196336,62.38116 3.24858168,58.95216 6.4640855,57.10956 C6.22618855,59.58576 7.07710458,61.23156 7.99393664,62.53116 L8.97249008,61.83876 C8.0586542,60.54276 7.29342901,58.99236 7.76143282,56.46936 L7.81596336,56.44596 L7.86090611,56.10936 C8.9760855,47.77896 16.1549405,41.49756 24.5592344,41.49756 C29.9601542,41.49756 35.0284977,44.10336 38.199658,48.47796 C36.3995511,50.65476 35.4719328,53.37696 35.5995702,56.21976 C35.7355969,59.25156 37.0431313,62.04936 39.2806809,64.09716 L40.0896504,63.21096 C38.0876008,61.37976 36.9184901,58.87716 36.796845,56.16576 C36.6746008,53.45376 37.6148031,50.85636 39.4442725,48.85296 L39.3867458,48.80076 C43.7707611,44.36376 49.6097229,41.92056 55.839387,41.92056 C64.1094519,41.92056 71.7563107,46.36476 75.889845,53.53356 C75.1821466,54.80376 74.9808031,56.33736 75.3523298,57.79536 C75.7622076,59.40576 76.8144672,60.75096 78.3143565,61.58316 L78.8944176,60.53316 C77.6869557,59.86356 76.8414328,58.78536 76.5136504,57.49896 C76.2457916,56.44716 76.3494595,55.34916 76.7863031,54.40536 L77.1110893,53.82336 C81.2038756,46.48116 88.9538031,41.92056 97.3365244,41.92056 C103.562593,41.92056 109.40575,44.36256 113.789765,48.79716 L114.295521,49.30836 L114.706597,48.71916 C117.863975,44.19696 123.029994,41.49756 128.526792,41.49756 C136.885544,41.49756 144.059605,47.74056 145.213135,56.01996 L145.261074,56.36256 L145.581666,56.49276 C148.031345,57.48816 149.941112,59.32536 151.040112,61.59336 L150.883711,61.67496 C152.320681,64.44516 152.350044,67.57836 151.239059,70.25796 C151.155765,70.45296 151.065879,70.64376 150.971799,70.83216 C150.938242,70.89996 150.907681,70.96956 150.872925,71.03676 C149.521047,73.58976 147.134887,75.50136 144.250761,76.22916 C144.154883,76.25256 144.059005,76.27776 143.962528,76.29816 C143.801334,76.33356 143.635944,76.36056 143.471753,76.38876 C141.930517,76.63596 140.343139,76.53096 138.812089,76.04616 C136.226982,75.22596 134.115872,73.44876 132.867063,71.03856 L131.802818,71.59176 C133.199639,74.28576 135.560032,76.27416 138.45015,77.18976 C139.404135,77.49216 140.377895,77.65776 141.351654,77.70456 C139.07036,88.33836 129.667139,95.98776 118.730471,95.98776 M151.500925,72.34656 C151.659124,72.09096 151.810131,71.83116 151.946757,71.56416 C152.028253,71.40936 152.100761,71.24976 152.175666,71.09076 C152.233192,70.96356 152.294315,70.83876 152.347647,70.71036 C152.943288,69.30876 153.27946,67.76916 153.27946,66.14676 C153.27946,61.51056 150.571509,57.37536 146.349887,55.51536 C144.967448,46.81536 137.366131,40.29756 128.526792,40.29756 C122.874192,40.29756 117.548177,42.96216 114.140318,47.45976 C109.590315,43.10796 103.650681,40.72056 97.3365244,40.72056 C88.865116,40.72056 81.0085244,45.14916 76.5879557,52.34496 C72.167387,45.14916 64.3107954,40.72056 55.839387,40.72056 C49.4982649,40.72056 43.5412534,43.12596 38.984658,47.51076 C35.5773985,42.98076 30.2376008,40.29756 24.5592344,40.29756 C15.6689595,40.29756 8.05925344,46.86036 6.72055878,55.61796 L6.71995954,55.61796 L6.71876107,55.61796 C6.71876107,55.61796 6.71816183,55.61856 6.71816183,55.61916 C2.63975725,57.52776 0.0234900763,61.62276 0.0234900763,66.14676 C0.0234900763,71.78556 4.1270626,76.62696 9.63704351,77.58456 C11.8937687,88.96956 21.8662649,97.18776 33.512429,97.18776 C39.5725092,97.18776 45.3317725,94.96296 49.8170588,90.90696 C52.9894176,96.50016 58.8583412,99.94176 65.3187115,99.94176 C69.6398069,99.94176 73.7745397,98.38776 77.0218031,95.55396 C80.2696656,98.38776 84.4037992,99.94176 88.7248947,99.94176 C94.7831771,99.94176 100.298551,96.95436 103.612929,91.91616 C107.902864,95.32056 113.24386,97.18776 118.730471,97.18776 C130.315513,97.18776 140.269433,89.02896 142.578292,77.71956 C142.735292,77.70756 142.886898,77.67936 143.042101,77.66136 C143.185918,77.64636 143.329135,77.62836 143.472353,77.60796 C143.573624,77.59236 143.675494,77.58036 143.776166,77.56176 C144.921307,77.36616 146.043078,76.99356 147.104326,76.44216 C148.967353,75.47316 150.439677,74.04996 151.478753,72.38376 C151.486544,72.37176 151.493135,72.35916 151.500925,72.34656" id="Fill-3" fill="#1D1D1B"></path>
                <path d="M118.730471,95.98776 C113.296593,95.98776 108.013124,94.06116 103.853822,90.56376 L103.318105,90.11376 L103.318105,90.11376 C100.036685,86.27376 100.045673,80.48376 103.536227,76.65936 L102.651154,75.84996 C98.6620359,80.22036 98.7369405,86.88816 102.653551,91.17636 C99.5668832,95.92056 94.4050588,98.74176 88.7248947,98.74176 C84.5242458,98.74176 80.5123565,97.16736 77.429284,94.30776 L77.0218031,93.92976 L76.6143221,94.30776 C73.5312496,97.16736 69.5199595,98.74176 65.3187115,98.74176 C59.2047,98.74176 53.6659557,95.43036 50.7380855,90.07716 C53.0241733,88.09056 54.4018183,85.33176 54.6181427,82.30836 C54.8344672,79.28076 53.8607076,76.35036 51.8754366,74.05596 L50.9693908,74.84256 C54.5702038,79.00296 54.1807,85.27596 50.1562267,88.97556 L50.1412458,88.94616 L49.5599863,89.50596 C45.2227115,93.68616 39.5233718,95.98776 33.512429,95.98776 C22.3037076,95.98776 12.7255092,87.98076 10.7366427,76.94976 L10.6593412,76.52016 L10.2272916,76.46136 C5.0936313,75.76776 1.22196336,71.33316 1.22196336,66.14676 C1.22196336,62.38116 3.24858168,58.95216 6.4640855,57.10956 C6.22618855,59.58576 7.07710458,61.23156 7.99393664,62.53116 L8.97249008,61.83876 C8.0586542,60.54276 7.29342901,58.99236 7.76143282,56.46936 L7.81596336,56.44596 L7.86090611,56.10936 C8.9760855,47.77896 16.1549405,41.49756 24.5592344,41.49756 C29.9601542,41.49756 35.0284977,44.10336 38.199658,48.47796 C36.3995511,50.65476 35.4719328,53.37696 35.5995702,56.21976 C35.7355969,59.25156 37.0431313,62.04936 39.2806809,64.09716 L40.0896504,63.21096 C38.0876008,61.37976 36.9184901,58.87716 36.796845,56.16576 C36.6746008,53.45376 37.6148031,50.85636 39.4442725,48.85296 L39.3867458,48.80076 C43.7707611,44.36376 49.6097229,41.92056 55.839387,41.92056 C64.1094519,41.92056 71.7563107,46.36476 75.889845,53.53356 C75.1821466,54.80376 74.9808031,56.33736 75.3523298,57.79536 C75.7622076,59.40576 76.8144672,60.75096 78.3143565,61.58316 L78.8944176,60.53316 C77.6869557,59.86356 76.8414328,58.78536 76.5136504,57.49896 C76.2457916,56.44716 76.3494595,55.34916 76.7863031,54.40536 L77.1110893,53.82336 C81.2038756,46.48116 88.9538031,41.92056 97.3365244,41.92056 C103.562593,41.92056 109.40575,44.36256 113.789765,48.79716 L114.295521,49.30836 L114.706597,48.71916 C117.863975,44.19696 123.029994,41.49756 128.526792,41.49756 C136.885544,41.49756 144.059605,47.74056 145.213135,56.01996 L145.261074,56.36256 L145.581666,56.49276 C148.031345,57.48816 149.941112,59.32536 151.040112,61.59336 L150.883711,61.67496 C152.320681,64.44516 152.350044,67.57836 151.239059,70.25796 C151.155765,70.45296 151.065879,70.64376 150.971799,70.83216 C150.938242,70.89996 150.907681,70.96956 150.872925,71.03676 C149.521047,73.58976 147.134887,75.50136 144.250761,76.22916 C144.154883,76.25256 144.059005,76.27776 143.962528,76.29816 C143.801334,76.33356 143.635944,76.36056 143.471753,76.38876 C141.930517,76.63596 140.343139,76.53096 138.812089,76.04616 C136.226982,75.22596 134.115872,73.44876 132.867063,71.03856 L131.802818,71.59176 C133.199639,74.28576 135.560032,76.27416 138.45015,77.18976 C139.404135,77.49216 140.377895,77.65776 141.351654,77.70456 C139.07036,88.33836 129.667139,95.98776 118.730471,95.98776 Z M151.500925,72.34656 C151.659124,72.09096 151.810131,71.83116 151.946757,71.56416 C152.028253,71.40936 152.100761,71.24976 152.175666,71.09076 C152.233192,70.96356 152.294315,70.83876 152.347647,70.71036 C152.943288,69.30876 153.27946,67.76916 153.27946,66.14676 C153.27946,61.51056 150.571509,57.37536 146.349887,55.51536 C144.967448,46.81536 137.366131,40.29756 128.526792,40.29756 C122.874192,40.29756 117.548177,42.96216 114.140318,47.45976 C109.590315,43.10796 103.650681,40.72056 97.3365244,40.72056 C88.865116,40.72056 81.0085244,45.14916 76.5879557,52.34496 C72.167387,45.14916 64.3107954,40.72056 55.839387,40.72056 C49.4982649,40.72056 43.5412534,43.12596 38.984658,47.51076 C35.5773985,42.98076 30.2376008,40.29756 24.5592344,40.29756 C15.6689595,40.29756 8.05925344,46.86036 6.72055878,55.61796 L6.71995954,55.61796 L6.71876107,55.61796 C6.71876107,55.61796 6.71816183,55.61856 6.71816183,55.61916 C2.63975725,57.52776 0.0234900763,61.62276 0.0234900763,66.14676 C0.0234900763,71.78556 4.1270626,76.62696 9.63704351,77.58456 C11.8937687,88.96956 21.8662649,97.18776 33.512429,97.18776 C39.5725092,97.18776 45.3317725,94.96296 49.8170588,90.90696 C52.9894176,96.50016 58.8583412,99.94176 65.3187115,99.94176 C69.6398069,99.94176 73.7745397,98.38776 77.0218031,95.55396 C80.2696656,98.38776 84.4037992,99.94176 88.7248947,99.94176 C94.7831771,99.94176 100.298551,96.95436 103.612929,91.91616 C107.902864,95.32056 113.24386,97.18776 118.730471,97.18776 C130.315513,97.18776 140.269433,89.02896 142.578292,77.71956 C142.735292,77.70756 142.886898,77.67936 143.042101,77.66136 C143.185918,77.64636 143.329135,77.62836 143.472353,77.60796 C143.573624,77.59236 143.675494,77.58036 143.776166,77.56176 C144.921307,77.36616 146.043078,76.99356 147.104326,76.44216 C148.967353,75.47316 150.439677,74.04996 151.478753,72.38376 C151.486544,72.37176 151.493135,72.35916 151.500925,72.34656 Z" id="Stroke-5" stroke="#000000" stroke-width="1.79999989"></path>
                <g id="Group-10" transform="translate(52.133588, 37.878600)">
                    <path d="M10.7305305,0.01164 C10.7305305,0.01164 -12.1758893,16.94964 10.7305305,39.67464 C10.7305305,39.67464 7.5425916,26.29944 13.3617786,26.29944" id="Fill-7" fill="#00D494"></path>
                    <path d="M10.7305305,0.01164 C10.7305305,0.01164 -12.1758893,16.94964 10.7305305,39.67464 C10.7305305,39.67464 7.5425916,26.29944 13.3617786,26.29944" id="Stroke-9" stroke="#1D1D1B" stroke-width="2.99999982"></path>
                </g>
                <g id="Group-14" transform="translate(86.889313, 37.878600)">
                    <path d="M3.20873244,0.01164 C3.20873244,0.01164 26.1151523,16.94964 3.20873244,39.67464 C3.20873244,39.67464 6.39667137,26.29944 0.577484351,26.29944" id="Fill-11" fill="#00D495"></path>
                    <path d="M3.20873244,0.01164 C3.20873244,0.01164 26.1151523,16.94964 3.20873244,39.67464 C3.20873244,39.67464 6.39667137,26.29944 0.577484351,26.29944" id="Stroke-13" stroke="#1D1D1B" stroke-width="2.99999982"></path>
                </g>
                <path d="M91.115729,65.3793 C76.471584,65.3793 67.9750076,70.1325 66.2102557,53.4621 C64.235771,34.8147 72.7089771,17.7603 80.1047557,1.2339 C89.0124084,20.8083 100.185176,43.8231 91.115729,65.3793" id="Fill-15" fill="#00D495"></path>
                <path d="M87.5174328,64.17834 L65.4954863,64.17834 C65.4954863,64.17834 59.7200435,52.17834 63.6959786,33.00654 C65.4073985,24.75534 76.5064595,0.03294 76.5064595,0.03294 C76.5064595,0.03294 87.7810969,24.72114 89.3163412,33.00654 C93.2778947,54.37854 87.5174328,64.17834 87.5174328,64.17834 Z" id="Stroke-17" stroke="#1D1D1B" stroke-width="2.99999982"></path>
                <path d="M71.6895557,11.1576 C71.6895557,11.1576 76.2024069,14.8866 81.3864031,11.1576" id="Stroke-19" stroke="#1D1D1B" stroke-width="2.99999982"></path>
                <path d="M82.3602824,22.1082 C82.3602824,25.3278 79.7530038,27.9036 76.5380992,27.9378 C73.5221412,27.9702 70.748874,25.3332 70.7153168,22.1082 C70.6823588,18.8886 73.3219962,16.2786 76.5380992,16.2786 C79.7536031,16.2786 82.3602824,18.8886 82.3602824,22.1082" id="Fill-21" fill="#FFFFFF"></path>
                <path d="M82.3602824,22.1082 C82.3602824,25.3278 79.7530038,27.9036 76.5380992,27.9378 C73.5221412,27.9702 70.748874,25.3332 70.7153168,22.1082 C70.6823588,18.8886 73.3219962,16.2786 76.5380992,16.2786 C79.7536031,16.2786 82.3602824,18.8886 82.3602824,22.1082 Z" id="Stroke-23" stroke="#1D1D1B" stroke-width="1.79999989"></path>
                <path d="M79.463992,22.1082 C79.463992,23.7264 78.1540607,25.038 76.5379195,25.038 C74.9217782,25.038 73.6118469,23.7264 73.6118469,22.1082 C73.6118469,20.49 74.9217782,19.1784 76.5379195,19.1784 C78.1540607,19.1784 79.463992,20.49 79.463992,22.1082" id="Fill-25" fill="#4FCBE8"></path>
                <path d="M79.463992,22.1082 C79.463992,23.7264 78.1540607,25.038 76.5379195,25.038 C74.9217782,25.038 73.6118469,23.7264 73.6118469,22.1082 C73.6118469,20.49 74.9217782,19.1784 76.5379195,19.1784 C78.1540607,19.1784 79.463992,20.49 79.463992,22.1082 Z" id="Stroke-27" stroke="#1D1D1B" stroke-width="1.79999989"></path>
                <path d="M76.7840859,78.9033 C76.7840859,78.9033 84.5495935,77.8533 76.7840859,36.5283 C76.7840859,36.5283 67.4216126,74.7033 76.7840859,78.9033 Z" id="Fill-29" fill="#00D494"></path>
                <path d="M76.7840859,36.5283 C76.7840859,36.5283 67.4216126,74.7033 76.7840859,78.9033 C76.7840859,78.9033 84.5495935,77.8533 76.7840859,36.5283 Z" id="Stroke-31" stroke="#1D1D1B" stroke-width="2.99999982"></path>
            </g>
        </g>
    </g>
</svg>