<?xml version="1.0" encoding="UTF-8" standalone="no"?>
<svg width="339px" height="321px" viewBox="0 0 339 321" version="1.1" xmlns="http://www.w3.org/2000/svg" xmlns:xlink="http://www.w3.org/1999/xlink">
    
    <defs></defs>
    <g id="About" stroke="none" stroke-width="1" fill="none" fill-rule="evenodd">
        <g id="About/Values" transform="translate(-101.000000, -838.000000)">
            <g id="Page-1" transform="translate(104.000000, 841.000000)">
                <path d="M142.3125,33.578125 C142.3125,33.578125 160.78125,29.2373047 179.510742,33.578125 C198.240234,37.9189453 206.254341,48.8838298 210.826172,55.0810547 C222.415039,70.7900391 218.826172,114.702148 218.826172,114.702148" id="Path-3" stroke="#56CBE6" stroke-width="20"></path>
                <path d="M113.62793,164.27832 C110.508989,154.850898 101.263489,146.055664 91.3857422,146.055664 C73.8896484,146.055664 67.8132274,158.310044 66.7011719,169.447266 L66.8085937,175.606445 L68.9277344,183.047852 C68.9277344,183.047852 80.6132813,191.844726 80.6132812,200.414062 L99.6728516,200.630859 C99.6728516,200.630859 100.126953,191.077148 111.303711,181.745117 C113.863202,179.608071 116.033455,171.549347 113.62793,164.27832 Z" id="Path-2" fill="#56CBE6"></path>
                <path d="M262.1652,119.7662 C262.1652,117.7802 260.5552,116.1702 258.5692,116.1702 L231.6392,116.1702 L206.7742,116.1702 L179.8432,116.1702 C177.8572,116.1702 176.2472,117.7802 176.2472,119.7662 L176.2472,137.7772 L206.7742,159.9172 L206.7742,175.8552 L231.6392,175.8552 L231.6392,159.9172 L262.1652,137.7772 L262.1652,119.7662 L262.1652,119.7662 Z" id="Stroke-1" stroke="#1E6B9C" stroke-width="6.293"></path>
                <path d="M234.143587,130.877875 C242.402476,99.7817798 270.618371,76.8778753 304.155973,76.8778753 C337.693575,76.8778753 365.90947,99.7817798 374.168359,130.877875 L234.143587,130.877875 Z" id="Combined-Shape" fill="#56CCE7" transform="translate(304.155973, 103.877875) rotate(-294.000000) translate(-304.155973, -103.877875) "></path>
                <path d="M19,86 C22.8659932,86 26,82.8659932 26,79 C26,75.1340068 22.8659932,72 19,72 C15.1340068,72 12,75.1340068 12,79 C12,82.8659932 15.1340068,86 19,86 Z M41,86 C44.8659932,86 48,82.8659932 48,79 C48,75.1340068 44.8659932,72 41,72 C37.1340068,72 34,75.1340068 34,79 C34,82.8659932 37.1340068,86 41,86 Z M63,86 C66.8659932,86 70,82.8659932 70,79 C70,75.1340068 66.8659932,72 63,72 C59.1340068,72 56,75.1340068 56,79 C56,82.8659932 59.1340068,86 63,86 Z M85,86 C88.8659932,86 92,82.8659932 92,79 C92,75.1340068 88.8659932,72 85,72 C81.1340068,72 78,75.1340068 78,79 C78,82.8659932 81.1340068,86 85,86 Z M107,86 C110.865993,86 114,82.8659932 114,79 C114,75.1340068 110.865993,72 107,72 C103.134007,72 100,75.1340068 100,79 C100,82.8659932 103.134007,86 107,86 Z M129,86 C132.865993,86 136,82.8659932 136,79 C136,75.1340068 132.865993,72 129,72 C125.134007,72 122,75.1340068 122,79 C122,82.8659932 125.134007,86 129,86 Z M150,86 C153.865993,86 157,82.8659932 157,79 C157,75.1340068 153.865993,72 150,72 C146.134007,72 143,75.1340068 143,79 C143,82.8659932 146.134007,86 150,86 Z M173,86 C176.865993,86 180,82.8659932 180,79 C180,75.1340068 176.865993,72 173,72 C169.134007,72 166,75.1340068 166,79 C166,82.8659932 169.134007,86 173,86 Z" id="Combined-Shape" fill="#56CBE6"></path>
                <path d="M165.890227,179 C164.294389,185.008599 163.443676,191.323067 163.443676,197.837266 C163.443676,198.501004 163.452508,199.162668 163.47006,199.822146 L139.6085,242.110898 L155.896281,242.110898 C155.84342,242.701707 155.81642,243.299956 155.81642,243.904507 L155.81642,270.785165 C155.81642,281.766746 164.731589,290.669076 175.715906,290.669076 L207.300401,290.669076 L207.300401,317.328467 L287.386594,317.328467 L287.386594,249.090718 C300.353399,235.930017 308.361549,217.823726 308.361549,197.837266 C308.361549,191.323067 307.510837,185.008599 305.914999,179 L165.890227,179 Z" id="Combined-Shape" fill="#56CCE7"></path>
                <path d="M172.1841,99.0627 L20.6061,99.0627 C9.5561,99.0627 0.5991,90.1047 0.5991,79.0557 L0.5991,78.6507 C0.5991,67.6017 9.5561,58.6437 20.6061,58.6437 L172.1841,58.6437 C183.2341,58.6437 192.1911,67.6017 192.1911,78.6507 L192.1911,79.0557 C192.1911,90.1047 183.2341,99.0627 172.1841,99.0627 L172.1841,99.0627 Z" id="Stroke-3" stroke="#1E6B9C" stroke-width="6.293"></path>
                <path d="M80.2585,46.2718 L54.9755,46.2718 C53.0055,46.2718 51.4085,44.6748 51.4085,42.7038 L51.4085,17.4218 C51.4085,15.4508 53.0055,13.8538 54.9755,13.8538 L80.2585,13.8538 C82.2285,13.8538 83.8265,15.4508 83.8265,17.4218 L83.8265,42.7038 C83.8265,44.6748 82.2285,46.2718 80.2585,46.2718 L80.2585,46.2718 Z" id="Stroke-5" stroke="#1F6B9C" stroke-width="6.293"></path>
                <path d="M137.9514,46.2718 L98.9614,46.2718 C96.9914,46.2718 95.3944,44.6748 95.3944,42.7038 L95.3944,3.7148 C95.3944,1.7438 96.9914,0.1468 98.9614,0.1468 L137.9514,0.1468 C139.9214,0.1468 141.5194,1.7438 141.5194,3.7148 L141.5194,42.7038 C141.5194,44.6748 139.9214,46.2718 137.9514,46.2718 L137.9514,46.2718 Z" id="Stroke-7" stroke="#1F6B9C" stroke-width="6.293"></path>
                <path d="M142.8232,32.7068 L149.1162,32.7068" id="Stroke-9" stroke="#FFFFFF" stroke-width="3.776"></path>
                <path d="M155.6085,32.7068 L170.0775,32.7068 C197.0285,32.7068 218.8775,54.5548 218.8775,81.5068 L218.8775,104.0178" id="Stroke-11" stroke="#FFFFFF" stroke-width="3.776" stroke-dasharray="12.985,6.492"></path>
                <path d="M218.8773,107.2642 L218.8773,113.5572" id="Stroke-13" stroke="#FFFFFF" stroke-width="3.776"></path>
                <path d="M152.4835,254.7141 L146.1905,254.7141" id="Stroke-15" stroke="#FFFFFF" stroke-width="3.776"></path>
                <path d="M140.3879,254.7141 L121.7109,254.7141 C104.7749,254.7141 90.9049,241.5911 89.7139,224.9591" id="Stroke-17" stroke="#1E6B9C" stroke-width="3.776" stroke-dasharray="11.605,5.803"></path>
                <path d="M89.6311,222.0581 L89.6311,215.7651" id="Stroke-19" stroke="#FFFFFF" stroke-width="3.776"></path>
                <path d="M113.2823,171.34 L113.2793,170.995 C113.3593,167.111 112.4863,163.154 110.5443,159.476 C104.4393,147.917 90.1193,143.496 78.5603,149.601 C70.2783,153.976 65.6623,162.568 65.9563,171.34 C65.8763,172.956 65.9083,179.995 71.7663,186.073 C72.2913,186.677 72.8433,187.25 73.4203,187.791 C78.2133,192.952 80.3023,197.314 80.5763,199.5 L80.5763,200.439 L98.6533,200.439 L98.6533,199.968 C98.6533,197.952 100.7423,193.199 106.0943,187.52 C106.4803,187.146 106.8553,186.765 107.2123,186.369 C107.2143,186.367 107.2153,186.365 107.2173,186.363 C114.1923,179.389 113.2823,171.34 113.2823,171.34 L113.2823,171.34 Z" id="Stroke-21" stroke="#1F6B9C" stroke-width="6.293"></path>
                <path d="M93.9262,200.4393 L93.9262,174.4333 C93.9262,172.7813 95.2652,171.4423 96.9172,171.4423 C98.5692,171.4423 99.9082,172.7813 99.9082,174.4333 C99.9082,176.0853 98.5692,177.4243 96.9172,177.4243 L82.3452,177.4243 C80.6932,177.4243 79.3542,176.0853 79.3542,174.4333 C79.3542,172.7813 80.6932,171.4423 82.3452,171.4423 C83.9972,171.4423 85.3362,172.7813 85.3362,174.4333 L85.3362,200.4393" id="Stroke-23" stroke="#1F6B9C" stroke-width="3.776"></path>
                <path d="M77.4396,212.2873 L101.8226,212.2873" id="Stroke-25" stroke="#1F6B9C" stroke-width="6.854"></path>
                <path d="M38.1051,13.8538 L15.3051,13.8538" id="Stroke-27" stroke="#1F6B9C" stroke-width="3.776"></path>
                <path d="M11.7228,13.8538 L3.2088,13.8538" id="Stroke-29" stroke="#1F6B9C" stroke-width="3.776"></path>
                <path d="M30.3148,26.0324 L7.5148,26.0324" id="Stroke-31" stroke="#1F6B9C" stroke-width="3.776"></path>
            </g>
        </g>
    </g>
</svg>