<?xml version="1.0" encoding="UTF-8" standalone="no"?>
<svg width="239px" height="334px" viewBox="0 0 239 334" version="1.1" xmlns="http://www.w3.org/2000/svg" xmlns:xlink="http://www.w3.org/1999/xlink">
    
    <defs></defs>
    <g id="About" stroke="none" stroke-width="1" fill="none" fill-rule="evenodd">
        <g id="About/Values" transform="translate(-106.000000, -1886.000000)">
            <g id="Page-1" transform="translate(110.000000, 1890.000000)">
                <path d="M28.8333053,241.518892 C19.7590675,234.863777 24.4347071,215.394696 24.4347071,215.394696 L11.420863,231.156997 C11.420863,231.156997 3.31509061,239.330171 8.60115771,244.901461 L98.5452963,321.777057 L196.220733,325.407758 C196.220733,325.407758 209.159453,317.283742 206.470045,308.210499 L108.799304,305.91761 C108.799304,305.91761 37.9075432,248.174008 28.8333053,241.518892 Z" id="Path-3" fill="#00D494"></path>
                <ellipse id="Oval" fill="#00D494" cx="28.8497409" cy="28.7647059" rx="21.6373057" ry="21.5735294"></ellipse>
                <path d="M105.214216,120.846644 L159.220612,161.07931 L150.031331,171.478659 L150.499717,175.852589 L153.724417,181.657966 L150.421065,189.923606 L145.173737,193.959279 L137.132529,193.659646 L134.208347,190.991046 L117.825413,212.623097 L112.433695,217.178445 C112.433695,217.178445 94.3263034,227.685475 78.1135848,216.65877 C61.9008663,205.632066 55.9867633,188.721565 55.9867633,177.280525 L82.736399,146.459358 C82.736399,146.459358 72.1853951,137.974846 81.3911108,130.241757 C90.5968264,122.508667 98.1027364,129.668242 98.1027364,129.668242 L105.214216,120.846644 Z" id="Path-2" fill="#00D495"></path>
                <path d="M82.0757098,146.53676 C77.405658,142.629554 76.7974093,135.688871 80.7149637,131.032584 L80.8592124,130.862393 C84.7767668,126.207304 91.739171,125.59965 96.4080207,129.506856" id="Stroke-1" stroke="#1E6B9C" stroke-width="7.78680031"></path>
                <path d="M149.611751,174.017721 L149.871399,174.234655 C154.540249,178.141861 155.149699,185.082545 151.230943,189.738832 L151.087896,189.909023 C147.170342,194.564111 140.207938,195.171765 135.539088,191.26456 L135.27944,191.047626" id="Stroke-3" stroke="#1E6B9C" stroke-width="7.78680031"></path>
                <path d="M114.842404,215.73014 C115.908642,216.621846 153.599627,274.83442 153.599627,274.83442 L191.401202,289.315052 C200.339813,292.738052 206.171067,301.375854 205.98715,310.92214 L205.98114,311.233758 C205.823668,319.476045 198.953824,326.009229 190.688373,325.776714 L105.741513,323.39164 C102.583668,323.302949 99.5484352,322.15356 97.1286632,320.129243 L12.9859896,249.73242 C7.25450777,244.938302 6.50802073,236.419155 11.3163109,230.704567 L76.2186114,153.604368" id="Stroke-5" stroke="#1E6B9C" stroke-width="7.4568003"></path>
                <path d="M122.003872,230.40026 L90.5011565,248.988253" id="Stroke-7" stroke="#1E6B9C" stroke-width="7.4568003"></path>
                <path d="M133.634645,244.493168 L105.169567,261.288161" id="Stroke-9" stroke="#1E6B9C" stroke-width="7.4568003"></path>
                <path d="M143.814516,259.532315 L120.312796,273.398102" id="Stroke-11" stroke="#1E6B9C" stroke-width="7.4568003"></path>
                <path d="M93.9776705,132.467463 L177.863101,32.55925" id="Stroke-13" stroke="#1E6B9C" stroke-width="7.4568003"></path>
                <path d="M137.146499,188.307308 L116.244862,214.082882 C105.76279,224.534058 87.2797223,225.352654 72.6084269,212.950271 C57.7291731,200.371705 51.1646549,181.132911 62.8884684,169.443654 L84.5834736,143.610551" id="Stroke-15" stroke="#1E6B9C" stroke-width="7.4568003"></path>
                <path d="M161.006437,49.9636949 L123.352717,49.9636949" id="Stroke-17" stroke="#1E6B9C" stroke-width="7.4568003"></path>
                <path d="M112.493314,49.9636949 L101.645811,49.9636949" id="Stroke-19" stroke="#1E6B9C" stroke-width="7.4568003"></path>
                <path d="M143.721235,74.0637243 L106.067515,74.0637243" id="Stroke-21" stroke="#1E6B9C" stroke-width="7.4568003"></path>
                <path d="M95.2082321,74.0637243 L84.3607295,74.0637243" id="Stroke-23" stroke="#1E6B9C" stroke-width="7.4568003"></path>
                <polygon id="Fill-25" fill="#1F6B9C" points="36.0491938 31.7492838 26.3039917 31.7492838 26.3039917 18.1447765 30.202313 18.1447765 30.202313 27.8624529 36.0491938 27.8624529"></polygon>
                <path d="M231.250508,77.4284757 L147.184767,176.965145" id="Stroke-27" stroke="#1E6B9C" stroke-width="7.4568003"></path>
                <path d="M47.0578943,56.9314654 L10.1698943,56.9314654 C4.62473368,56.9314654 0.128982383,52.4489654 0.128982383,46.9189507 L0.128982383,10.1408772 C0.128982383,4.6108625 4.62473368,0.1283625 10.1698943,0.1283625 L47.0578943,0.1283625 C52.604257,0.1283625 57.1000083,4.6108625 57.1000083,10.1408772 L57.1000083,46.9189507 C57.1000083,52.4489654 52.604257,56.9314654 47.0578943,56.9314654 L47.0578943,56.9314654 Z" id="Stroke-29" stroke="#1F6B9C" stroke-width="7.4568003"></path>
                <polygon id="Fill-1" fill="#1F6B9C" points="28.3616995 12.2765368 32.2612228 12.2765368 32.2612228 8.38970588 28.3616995 8.38970588"></polygon>
                <polygon id="Fill-2" fill="#1F6B9C" points="10.8186528 29.7666765 14.7169741 29.7666765 14.7169741 25.8786471 10.8186528 25.8786471"></polygon>
                <polygon id="Fill-3" fill="#1F6B9C" points="28.3616995 47.2580147 32.2600207 47.2580147 32.2600207 43.3711838 28.3616995 43.3711838"></polygon>
                <polygon id="Fill-4" fill="#1F6B9C" points="45.903544 29.767875 49.8030674 29.767875 49.8030674 25.8798456 45.903544 25.8798456"></polygon>
            </g>
        </g>
    </g>
</svg>