<?xml version="1.0" encoding="UTF-8" standalone="no"?>
<svg width="276px" height="307px" viewBox="0 0 276 307" version="1.1" xmlns="http://www.w3.org/2000/svg" xmlns:xlink="http://www.w3.org/1999/xlink">
    
    <defs>
        <path d="M188.712195,307 L188.712195,275.803373 L226.5905,275.803373 C239.07828,275.803373 249.204353,265.667724 249.204353,253.164767 L249.204353,219.532866 C249.204353,219.120473 249.19334,218.710658 249.171594,218.303699 L268.146341,218.303709 L240.591636,169.499886 L240.591636,169.499886 C240.63037,168.441161 240.649906,167.37753 240.649906,166.309331 C240.649906,119.012881 202.350345,80.6715328 155.105441,80.6715328 C107.860537,80.6715328 69.5609756,119.012881 69.5609756,166.309331 C69.5609756,189.643247 78.8830368,210.797502 94.0022514,226.243345 L94.0022514,307" id="path-1"></path>
        <mask id="mask-2" maskContentUnits="userSpaceOnUse" maskUnits="objectBoundingBox" x="0" y="0" width="198.585366" height="226.328467" fill="white">
            <use xlink:href="#path-1"></use>
        </mask>
    </defs>
    <g id="About" stroke="none" stroke-width="1" fill="none" fill-rule="evenodd">
        <g id="About/Values" transform="translate(-649.000000, -2508.000000)">
            <g id="Group-5" transform="translate(787.000000, 2661.500000) scale(-1, 1) translate(-787.000000, -2661.500000) translate(649.000000, 2508.000000)">
                <use id="Combined-Shape" stroke="#EA215A" mask="url(#mask-2)" stroke-width="11.1999991" xlink:href="#path-1"></use>
                <path d="M182.847001,168.720805 C182.867656,167.944744 182.878049,167.16611 182.878049,166.385036 C182.878049,119.046776 144.702134,80.6715328 97.6097561,80.6715328 C50.5173784,80.6715328 12.3414634,119.046776 12.3414634,166.385036 C12.3414634,189.904721 21.7653022,211.211858 37.0243902,226.69912 L37.0243902,307 L131.268293,307 L131.268293,275.627737 L171.953341,275.627737 C182.94498,275.627737 191.853659,266.721447 191.853659,255.734981 L191.853659,218.485401 L210.926829,218.485401 L182.847001,168.720805 Z" id="Combined-Shape" fill="#56CCE7"></path>
                <path d="M76.2926829,96.3576642 L100.97561,96.3576642 L100.97561,28.0109489 L6.73170732,28.0109489 L6.73170732,96.3576642 L59.735071,96.3576642 L76.2926829,113.164234 L76.2926829,96.3576642 Z M83.0243902,101.959854 L106.585366,101.959854 L106.585366,21.2883212 L0,21.2883212 L0,101.959854 L54.3245296,101.959854 L83.0243902,131.091241 L83.0243902,101.959854 Z" id="Combined-Shape" fill="#EA215A"></path>
                <path d="M241.743769,95.2372263 L276,95.2372263 L276,48.1788321 L215.414634,48.1788321 L215.414634,95.2372263 L228.878049,95.2372263 L228.878049,108.682482 L241.743769,95.2372263 Z" id="Combined-Shape" fill="#56CCE7"></path>
                <path d="M19.0731707,40.3357664 L87.5121951,40.3357664 L87.5121951,45.9379562 L19.0731707,45.9379562 L19.0731707,40.3357664 Z M19.0731707,51.540146 L87.5121951,51.540146 L87.5121951,57.1423358 L19.0731707,57.1423358 L19.0731707,51.540146 Z M19.0731707,63.8649635 L87.5121951,63.8649635 L87.5121951,69.4671533 L19.0731707,69.4671533 L19.0731707,63.8649635 Z M19.0731707,75.0693431 L48.2439024,75.0693431 L48.2439024,80.6715328 L19.0731707,80.6715328 L19.0731707,75.0693431 Z" id="Combined-Shape" fill="#EA215A"></path>
                <path d="M225.512195,63.8649635 L263.658537,63.8649635 L263.658537,69.4671533 L225.512195,69.4671533 L225.512195,63.8649635 Z M225.512195,73.9489051 L241.219512,73.9489051 L241.219512,79.5510949 L225.512195,79.5510949 L225.512195,73.9489051 Z" id="Combined-Shape" fill="#EA215A"></path>
                <path d="M163.804878,11.2546234 L163.804878,0 L160.439024,0 L160.439024,11.4076004 C161.166669,11.274123 161.916642,11.2043796 162.682927,11.2043796 C163.061125,11.2043796 163.43535,11.2213683 163.804878,11.2546234 Z M155.339462,13.6226691 L147.317255,5.60046127 L144.754178,8.16353769 L152.772938,16.1822975 C153.497942,15.2085954 154.363436,14.3454143 155.339462,13.6226691 Z M150.545409,21.2858767 L139.15373,21.2858767 L139.15373,24.9106141 L150.418119,24.9106141 C150.367471,24.4571185 150.341463,23.9961909 150.341463,23.5291971 C150.341463,22.7630877 150.411458,22.0133043 150.545409,21.2858767 Z M152.764798,30.8651514 L144.754178,38.8757709 L147.317255,41.4388473 L155.328502,33.4275997 C154.353303,32.7038027 153.48875,31.8396816 152.764798,30.8651514 Z M160.439024,35.6507938 L160.439024,47.0583942 L163.804878,47.0583942 L163.804878,35.8037708 C163.43535,35.8370258 163.061125,35.8540146 162.682927,35.8540146 C161.916642,35.8540146 161.166669,35.7842712 160.439024,35.6507938 Z M170.026376,33.435736 L178.029488,41.4388473 L180.592564,38.8757709 L172.592905,30.8761115 C171.867899,31.8498124 171.002404,32.7129922 170.026376,33.435736 Z M174.947734,24.9106141 L186.212124,24.9106141 L186.212124,21.2858767 L174.820445,21.2858767 C174.954396,22.0133043 175.02439,22.7630877 175.02439,23.5291971 C175.02439,23.9961909 174.998382,24.4571185 174.947734,24.9106141 Z M172.584754,16.1713482 L180.592564,8.16353769 L178.029488,5.60046127 L170.015405,13.6145436 C170.992261,14.3362352 171.858696,15.1984751 172.584754,16.1713482 Z" id="Combined-Shape" fill="#EA215A"></path>
                <path d="M112.195122,152.379562 L122.292683,152.379562 L122.292683,145.656934 L112.195122,145.656934 L112.195122,152.379562 L112.195122,152.379562 Z M132.390244,152.379562 L142.487805,152.379562 L142.487805,145.656934 L132.390244,145.656934 L132.390244,152.379562 L132.390244,152.379562 Z M152.585366,152.379562 L162.682927,152.379562 L162.682927,145.656934 L152.585366,145.656934 L152.585366,152.379562 L152.585366,152.379562 Z M173.902439,152.243108 L183.243926,152.243108 L183.243926,148.950021 L182.872104,152.223873 C182.898195,152.226581 182.979016,152.236074 183.110721,152.253471 C183.349318,152.284988 183.631295,152.326653 183.95279,152.379562 L185.121951,145.888892 C184.432369,145.775405 183.920497,145.707791 183.615748,145.676169 L183.430382,145.656934 L183.243926,145.656934 L173.902439,145.656934 L173.902439,152.243108 L173.902439,152.243108 Z M192.97561,155.239592 C195.954875,156.559203 198.621163,158.212612 200.847526,160.222628 L205.317073,155.155418 C202.523054,152.632908 199.259408,150.609068 195.667839,149.018248 L192.97561,155.239592 L192.97561,155.239592 Z M111.864336,148.121592 L127.226008,132.75992 L123.303667,128.837579 L104.344112,147.797133 L104.668571,148.121592 L104.344112,148.446051 L123.303667,167.405606 L127.226008,163.483265 L111.864336,148.121592 Z M205.317073,167.320534 C206.512198,169.848293 207.159552,172.696051 207.196825,175.908759 L214.292683,175.838729 C214.245348,171.758698 213.401078,168.044692 211.821778,164.70438 L205.317073,167.320534 Z" id="Combined-Shape" fill="#EA215A"></path>
                <path d="M60.3234131,196.019569 L70.4209741,196.019569 L70.4209741,189.296941 L60.3234131,189.296941 L60.3234131,196.019569 L60.3234131,196.019569 Z M80.5185351,196.019569 L90.616096,196.019569 L90.616096,189.296941 L80.5185351,189.296941 L80.5185351,196.019569 L80.5185351,196.019569 Z M101.835608,196.019569 L111.933169,196.019569 L111.933169,189.296941 L101.835608,189.296941 L101.835608,196.019569 L101.835608,196.019569 Z M122.597535,195.742651 L131.939022,195.742651 L131.939022,192.449565 L131.567199,195.723417 C131.59329,195.726124 131.674112,195.735618 131.805817,195.753015 C132.044414,195.784532 132.326391,195.826196 132.647886,195.879105 L133.817047,189.388435 C133.127465,189.274949 132.615592,189.207334 132.310844,189.175712 L132.125477,189.156478 L131.939022,189.156478 L122.597535,189.156478 L122.597535,195.742651 L122.597535,195.742651 Z M141.383616,198.95607 C144.362881,200.275681 147.029169,201.92909 149.255532,203.939106 L153.725079,198.871896 C150.93106,196.349386 147.667414,194.325546 144.075845,192.734726 L141.383616,198.95607 L141.383616,198.95607 Z M52.5219472,191.931327 L52.2861873,192.167087 L56.2085285,196.089428 L56.4442884,195.853669 L71.2457418,210.655122 L75.168083,206.732781 L60.3666296,191.931327 L75.168083,177.129874 L71.2457418,173.207533 L56.4442884,188.008986 L56.2085285,187.773226 L52.2861873,191.695567 L52.5219472,191.931327 Z M154.20446,210.615809 C155.399585,213.143568 156.046939,215.991326 156.084212,219.204034 L163.18007,219.134004 C163.132735,215.053973 162.288465,211.339967 160.709165,207.999654 L154.20446,210.615809 Z" id="Combined-Shape" fill="#EA215A" transform="translate(107.707317, 196.076642) scale(-1, -1) translate(-107.707317, -196.076642) "></path>
            </g>
        </g>
    </g>
</svg>