<svg width="164" height="82" viewBox="0 0 164 82" xmlns="http://www.w3.org/2000/svg">
  <g fill="none" fill-rule="evenodd">
    <path d="M18.601 65.88c2.916 0 5.163 2.246 5.163 5.076 0 2.83-2.247 5.076-5.163 5.076h-2.657V81h-2.98V65.88H18.6zm0 7.366c1.275 0 2.203-.994 2.203-2.29 0-1.318-.928-2.29-2.203-2.29h-2.657v4.58h2.657zM40.302 81l-3.046-5.249h-2.268V81h-2.98V65.88h6.048c2.786 0 5.032 2.246 5.032 5.011 0 1.901-1.188 3.607-2.916 4.407L43.52 81h-3.218zm-5.314-12.334v4.472h3.068c1.123 0 2.052-.994 2.052-2.247s-.93-2.225-2.052-2.225h-3.068zm19.563 9.483h6.372V81H51.57V65.88h9.245v2.851H54.55v3.219h5.724v2.808H54.55v3.39zm19.93 3.153c-3.09 0-5.12-1.49-5.94-3.736l2.548-1.49c.54 1.403 1.599 2.31 3.478 2.31 1.793 0 2.419-.756 2.419-1.598 0-1.123-1.015-1.555-3.262-2.203-2.31-.67-4.557-1.642-4.557-4.515 0-2.85 2.376-4.492 4.968-4.492 2.484 0 4.385 1.274 5.4 3.39l-2.506 1.448c-.54-1.145-1.36-1.944-2.894-1.944-1.253 0-1.987.648-1.987 1.512 0 .929.583 1.426 2.872 2.117 2.398.756 4.947 1.555 4.947 4.644 0 2.83-2.268 4.557-5.487 4.557zm16.603-3.153h6.372V81h-9.353V65.88h9.245v2.851h-6.264v3.219h5.724v2.808h-5.724v3.39zm23.515-12.269h2.98V81h-2.267l-6.48-9.245V81h-2.981V65.88h2.268l6.48 9.223V65.88zm22.09 0v2.851h-4.083V81h-2.98V68.731h-4.062V65.88h11.124zm13.125 15.422c-3.089 0-5.12-1.49-5.94-3.736l2.549-1.49c.54 1.403 1.598 2.31 3.477 2.31 1.793 0 2.42-.756 2.42-1.598 0-1.123-1.016-1.555-3.262-2.203-2.311-.67-4.558-1.642-4.558-4.515 0-2.85 2.376-4.492 4.968-4.492 2.484 0 4.385 1.274 5.4 3.39l-2.505 1.448c-.54-1.145-1.361-1.944-2.895-1.944-1.252 0-1.987.648-1.987 1.512 0 .929.583 1.426 2.873 2.117 2.398.756 4.946 1.555 4.946 4.644 0 2.83-2.268 4.557-5.486 4.557z" fill="#333"/>
    <path d="M163.62 27.583v5.789h-2.549c-5.961 0-9.234-3.575-9.234-10.055v-7.322h-7.949v17.377h-6.058V15.995h-3.338l-.064-5.022h3.402v-.616c0-6.48 3.24-10.055 9.234-10.055h2.548v5.79h-2.548c-2.16 0-3.186 1.392-3.186 4.32v.615h7.948V6.815l6.06-3.834v7.992h4.32v5.022h-4.32v7.322c0 2.873 1.08 4.32 3.185 4.32l2.549-.054zM82.08 10.638h6.059v22.68H82.08v-2.16a9.19 9.19 0 0 1-6.944 2.808c-6.113 0-10.898-5.227-10.898-11.88 0-6.653 4.785-11.88 10.898-11.88a9.19 9.19 0 0 1 6.944 2.668v-2.236zm0 11.34c0-3.823-2.549-6.599-6.059-6.599-3.51 0-6.005 2.776-6.005 6.599 0 3.823 2.528 6.599 6.005 6.599 3.478 0 6.059-2.711 6.059-6.599zm13.91-9.364v-1.976h-5.8v22.68h6.049V23.101c0-4.86.831-7.322 5.4-7.322h1.62V9.947h-.249c-3.186 0-5.637.94-7.063 2.667h.043zm8.77 20.682h6.037V.476h-6.037v32.82zM17.28 6.588a9.504 9.504 0 0 1 8.251 4.892l.13.227.216-.14 5.216-3.316.216-.14-.14-.216A16.502 16.502 0 0 0 17.356.475 16.567 16.567 0 0 0 .54 17.13a16.621 16.621 0 0 0 16.859 16.729 16.416 16.416 0 0 0 13.791-7.225l.14-.205-5.615-3.748-.14.216a9.526 9.526 0 0 1-8.22 4.806c-5.572 0-9.935-4.666-9.935-10.627 0-5.13 3.704-10.487 9.86-10.487zm15.736 26.708h6.037V.476h-6.037v32.82zm101.52-11.35c0 .626 0 1.242-.098 1.825v.507h-15.984a5.562 5.562 0 0 0 5.8 4.44 9.914 9.914 0 0 0 5.95-2.16l.465-.368 2.992 4.32-.378.324a13.532 13.532 0 0 1-9.31 3.24c-6.88 0-11.685-4.936-11.685-12.01s4.687-12.01 11.394-12.01c6.35-.096 10.81 4.84 10.832 11.892h.022zm-6.08-2.398c-.616-2.743-2.334-4.255-4.86-4.255a4.957 4.957 0 0 0-5.098 4.255h9.957zm-65.59 2.398c0 .626 0 1.242-.096 1.825v.507H46.807a5.562 5.562 0 0 0 5.8 4.44 9.914 9.914 0 0 0 5.95-2.16l.465-.368 2.992 4.32-.378.324a13.532 13.532 0 0 1-9.31 3.24c-6.88 0-11.686-4.936-11.686-12.01S45.36 9.958 52.024 9.958c6.36 0 10.821 4.935 10.843 11.988zm-6.08-2.398c-.615-2.743-2.332-4.255-4.86-4.255a4.957 4.957 0 0 0-5.097 4.255h9.957z" fill="#25333A" fill-rule="nonzero"/>
    <path d="M162.864 45.36a1.912 1.912 0 0 0-2.354-1.534 7.376 7.376 0 0 1-3.575.26c-1.501-.195-3.089-.335-4.633-.497a262.24 262.24 0 0 0-7.776-.713c-2.84-.216-5.692-.367-8.532-.562-2.679-.183-5.346-.42-8.025-.55a785.91 785.91 0 0 0-16.988-.638c-4.72-.162-21.136-.345-25.866-.28-3.316 0-6.62.15-9.925.194-4.385 0-20.456.367-24.84.626-4.677.249-9.375.41-14.04.735-4.32.291-8.64.486-12.896.799-.978.023-1.953.124-2.916.302-2.538 0-4.784.238-7.041.357-1.793.097-3.629.14-5.4.41v.001c-.745 0-1.08-.433-2.236-.282-1.155.152-2.235.497-2.29 1.145-.593.13 0 .443-.669.562v.507c.464.216.605.443 0 .713v.205c.367-.15.421 0 .605.076v.421c-.432.205-.173.4-.097.583.075.184.54.476.453.767-.093.528.12 1.063.551 1.383v.248c.119.756 1.134 1.382 1.274 2.16.108.594 1.08 1.08 2.495.961 1.21-.065 1.631-.572 2.733-.734.205 0 .874-.097 1.08-.108 4.568-.303 9.136-.637 13.672-1.08 1.34-.119 2.787-.087 4.018-.324 1.62-.313 3.316-.313 4.957-.54a74.11 74.11 0 0 1 9.331-.54c2.603 0 5.152-.281 7.733-.389 1.437-.065 2.873.065 4.32-.086a8.77 8.77 0 0 1 1.696-.152c1.544.098 14.753-.13 16.308-.118 3.013 0 6.026-.152 9.029-.184 3.564-.065 18.748-.184 22.334 0 1.22 0 2.495.227 3.64.162 3.358-.184 6.685.108 10.022.184 2.927.064 5.821.334 8.759.42 2.937.087 5.637.25 8.424.552 1.08.118 2.246.27 3.402.378.907.086 1.523-.227 2.387-.12 2.16.292 4.438.498 6.706.66a29.43 29.43 0 0 1 3.51.302c1.685.352 3.392.59 5.109.713l1.08.389a4.32 4.32 0 0 0 2.98.313 1.577 1.577 0 0 0 .66-1.717v-.195c.107-.162.205-.335.097-.518.28-.108.302-.238.226-.4.27-.615.767-1.199.476-1.879-.12-.27-.422-.67.453-.853v-.508c-.421-.054-.464-.205-.55-.345.043-.562.107-1.102.129-1.642zm-79.358 1.36z" fill="#EA215A"/>
  </g>
</svg>
