<svg width="91px" height="auto" xmlns="http://www.w3.org/2000/svg" viewBox="0 0 91 48">
  <title>
    logo
  </title>
  <g fill="none" fill-rule="evenodd">
    <path fill="#333" d="M10.33 38.6c1.62 0 2.87 1.25 2.87 2.82 0 1.57-1.25 2.82-2.87 2.82H8.86V47H7.2v-8.4h3.13zm0 4.1c.7 0 1.23-.56 1.23-1.28 0-.73-.52-1.27-1.23-1.27H8.86v2.54h1.47zM22.4 47l-1.7-2.92h-1.26V47h-1.66v-8.4h3.36c1.55 0 2.8 1.25 2.8 2.78 0 1.06-.66 2-1.62 2.45L24.18 47h-1.8zm-2.96-6.85v2.48h1.7c.63 0 1.14-.55 1.14-1.25s-.5-1.23-1.14-1.23h-1.7zm10.87 5.27v-1.9h3.2v-1.55h-3.2v-1.8h3.5V38.6h-5.1V47h5.2v-1.58h-3.6zm11.1 1.75c1.8 0 3.1-.96 3.1-2.53 0-1.72-1.4-2.16-2.7-2.58-1.2-.4-1.6-.66-1.6-1.18 0-.48.4-.84 1.1-.84.9 0 1.3.44 1.6 1.08l1.4-.8c-.5-1.18-1.6-1.9-3-1.9s-2.7.92-2.7 2.5c0 1.6 1.3 2.14 2.6 2.52 1.3.36 1.8.6 1.8 1.22 0 .47-.3.9-1.3.9s-1.6-.52-1.9-1.3l-1.4.83c.5 1.2 1.6 2 3.3 2zm9.2-1.75v-1.9h3.2v-1.55h-3.2v-1.8h3.5V38.6H49V47h5.2v-1.58h-3.6zm13.1-6.82v5.12l-3.6-5.12h-1.3V47h1.7v-5.14L64.1 47h1.25v-8.4H63.7zm12.3 0h-6.2v1.58H72V47h1.67v-6.82h2.27V38.6zm7.3 8.57c1.8 0 3.1-.96 3.1-2.53 0-1.72-1.4-2.16-2.7-2.58-1.2-.4-1.6-.66-1.6-1.18 0-.48.4-.84 1.1-.84.9 0 1.3.44 1.6 1.08l1.4-.8c-.6-1.18-1.6-1.9-3-1.9s-2.7.92-2.7 2.5c0 1.6 1.3 2.14 2.5 2.52 1.3.36 1.8.6 1.8 1.22 0 .47-.3.9-1.3.9s-1.6-.52-1.9-1.3l-1.5.84c.5 1.2 1.6 2 3.3 2z"/>
    <path fill="#25333A" fill-rule="nonzero" d="M90.9 15.32v3.22h-1.42c-3.3 0-5.13-2-5.13-5.6V8.9h-4.4v9.64h-3.38V8.9h-1.85l-.04-2.8h1.9v-.35c0-3.6 1.8-5.58 5.12-5.58h1.42v3.2H81.7c-1.2 0-1.77.8-1.77 2.4v.36h4.42V3.8l3.36-2.14V6.1h2.4v2.8h-2.4v4.05c0 1.6.6 2.4 1.8 2.4l1.4-.03zm-45.3-9.4h3.37v12.6H45.6v-1.2c-1 1.03-2.4 1.6-3.86 1.55-3.4 0-6.05-2.9-6.05-6.6 0-3.7 2.6-6.6 6-6.6 1.4-.07 2.8.47 3.8 1.48V5.9zm0 6.3c0-2.13-1.42-3.68-3.37-3.68-1.95 0-3.33 1.55-3.33 3.67 0 2.2 1.4 3.7 3.33 3.7 1.94 0 3.37-1.5 3.37-3.6zM53.33 7V5.9H50.1v12.6h3.37v-5.7c0-2.7.46-4.05 3-4.05h.9V5.53h-.14c-1.77 0-3.13.52-3.93 1.48h.03zm4.87 11.5h3.35V.26H58.2V18.5zM9.6 3.66c1.9 0 3.66 1.05 4.58 2.72l.08.12.12-.07 2.9-1.85.1-.07-.06-.1C15.62 1.8 12.72.3 9.64.3c-2.47-.03-4.86.93-6.6 2.67C1.26 4.67.28 7.05.3 9.55c-.02 2.45.97 4.83 2.73 6.6s4.15 2.7 6.64 2.7c3.06 0 5.94-1.5 7.66-4l.08-.16-3.1-2.1-.1.1c-.9 1.6-2.6 2.6-4.5 2.6-3.1 0-5.5-2.6-5.5-5.9 0-2.9 2.1-5.9 5.5-5.9zm8.74 14.84h3.36V.26h-3.36V18.5zm56.4-6.3c0 .34 0 .68-.05 1v.3h-8.9c.3 1.5 1.7 2.55 3.2 2.45 1.2-.02 2.3-.45 3.3-1.2l.2-.2 1.6 2.4-.2.18c-1.5 1.23-3.3 1.87-5.2 1.8-3.8 0-6.5-2.74-6.5-6.67 0-3.93 2.6-6.67 6.3-6.67 3.5-.1 6 2.6 6 6.6zm-3.38-1.34c-.34-1.52-1.3-2.36-2.7-2.36-1.4-.06-2.63.96-2.83 2.36h5.53zM34.93 12.2c0 .34 0 .68-.06 1v.3H26c.3 1.5 1.7 2.55 3.23 2.45 1.2-.02 2.36-.45 3.3-1.2l.26-.2 1.6 2.4-.2.18c-1.5 1.23-3.3 1.87-5.2 1.8-3.8 0-6.5-2.74-6.5-6.67 0-3.93 2.6-6.73 6.3-6.73 3.5 0 6 2.74 6 6.66zm-3.38-1.34c-.34-1.52-1.3-2.36-2.7-2.36-1.4-.06-2.64.96-2.83 2.36h5.53z"/>
    <path fill="#EA215A" d="M90.48 25.2c-.05-.3-.22-.55-.47-.7-.2-.17-.5-.22-.8-.15-.6.2-1.3.26-2 .14-.8-.2-1.7-.2-2.6-.3-1.4-.2-2.8-.3-4.3-.4l-4.7-.3c-1.5-.1-2.9-.3-4.4-.3-3.1-.2-6.3-.3-9.4-.4-2.6-.1-11.7-.2-14.3-.2-1.8 0-3.7.1-5.5.1-2.4 0-11.4.2-13.8.3-2.6.1-5.2.2-7.8.4-2.4.1-4.8.3-7.2.4-.5 0-1.1 0-1.6.1-1.4 0-2.7.1-3.9.2-1 0-2 0-3 .2-.4 0-.6-.2-1.2-.2-.6.1-1.2.3-1.23.63-.35.06 0 .23-.4.3v.27c.26.1.34.25 0 .4v.1c.2-.1.23 0 .34.06v.2c-.24.1-.1.2-.06.3.06.1.3.24.27.4-.07.3.05.6.3.77v.2c.1.44.6.8.7 1.2.06.35.6.6 1.4.55.7-.06.9-.3 1.5-.4l.6-.1 7.6-.6c.8-.1 1.6-.07 2.27-.2.9-.2 1.9-.2 2.8-.3 1.7-.2 3.46-.3 5.2-.3 1.43 0 2.85-.17 4.3-.23.8-.03 1.6.05 2.4-.04.3-.06.6-.1.93-.1.8.07 8.2-.05 9-.05 1.65 0 3.32-.07 5-.1 2 0 10.4-.1 12.4 0 .7 0 1.4.14 2.02.1 1.83-.1 3.7.06 5.53.1 1.65.04 3.25.2 4.9.24 1.6.06 3.1.15 4.65.3.6.1 1.2.17 1.9.23.5.1.8-.1 1.3-.03 1.2.15 2.5.26 3.7.35.63 0 1.3.1 1.93.2.92.2 1.9.3 2.83.4l.6.2c.5.22 1.1.3 1.64.14.3-.2.45-.6.36-.97v-.1c.07-.1.1-.2.06-.3.2-.04.2-.12.2-.2.1-.35.4-.7.23-1.05-.08-.14-.25-.36.23-.46V26c-.2 0-.22-.1-.3-.2.05-.3.1-.6.1-.9zm-44.1.76h-.1.1z"/>
  </g>
</svg>
