<svg width="100" height="50" xmlns="http://www.w3.org/2000/svg">
  <g fill="none" fill-rule="evenodd">
    <path d="M11.342 40.17c1.778 0 3.148 1.37 3.148 3.096 0 1.725-1.37 3.095-3.148 3.095h-1.62v3.03H7.905v-9.22h3.437zm0 4.492c.777 0 1.344-.606 1.344-1.396 0-.804-.567-1.396-1.344-1.396h-1.62v2.792h1.62zm13.232 4.728l-1.857-3.2h-1.383v3.2h-1.817v-9.22h3.688a3.06 3.06 0 0 1 3.068 3.056c0 1.16-.724 2.2-1.778 2.687l2.042 3.477h-1.963zm-3.24-7.52v2.726h1.87c.686 0 1.252-.606 1.252-1.37 0-.764-.566-1.356-1.251-1.356h-1.87zm11.929 5.782h3.885v1.738h-5.703v-9.22h5.637v1.74h-3.82v1.962h3.49v1.712h-3.49v2.068zm12.152 1.923c-1.884 0-3.122-.91-3.622-2.279l1.554-.909c.33.856.975 1.41 2.12 1.41 1.094 0 1.476-.461 1.476-.975 0-.685-.62-.948-1.99-1.343-1.408-.409-2.778-1.001-2.778-2.753 0-1.739 1.449-2.74 3.03-2.74 1.514 0 2.673.777 3.292 2.068l-1.528.883c-.33-.698-.83-1.186-1.765-1.186-.764 0-1.212.395-1.212.922 0 .567.356.87 1.752 1.29 1.462.462 3.016.95 3.016 2.833 0 1.725-1.383 2.779-3.345 2.779zm10.124-1.923h3.885v1.738h-5.703v-9.22h5.637v1.74h-3.82v1.962h3.491v1.712h-3.49v2.068zm14.338-7.481h1.818v9.22h-1.383l-3.951-5.638v5.637h-1.818v-9.22h1.383l3.951 5.625V40.17zm13.47 0v1.738h-2.49v7.481H79.04v-7.48h-2.476v-1.74h6.783zm8.003 9.404c-1.883 0-3.121-.91-3.622-2.279l1.554-.909c.33.856.975 1.41 2.12 1.41 1.094 0 1.476-.461 1.476-.975 0-.685-.62-.948-1.989-1.343-1.41-.409-2.779-1.001-2.779-2.753 0-1.739 1.449-2.74 3.03-2.74 1.514 0 2.673.777 3.292 2.068l-1.528.883c-.33-.698-.83-1.186-1.765-1.186-.764 0-1.211.395-1.211.922 0 .567.355.87 1.751 1.29 1.462.462 3.016.95 3.016 2.833 0 1.725-1.383 2.779-3.345 2.779z" fill="#333"/>
    <path d="M99.768 16.819v3.53h-1.554c-3.635 0-5.63-2.18-5.63-6.131V9.753h-4.847v10.596h-3.695V9.753h-2.034l-.04-3.062h2.074v-.376c0-3.95 1.976-6.13 5.63-6.13h1.555v3.53h-1.554c-1.317 0-1.943.849-1.943 2.633v.376h4.847V4.155l3.694-2.337V6.69h2.635v3.062H96.27v4.465c0 1.752.659 2.634 1.943 2.634l1.554-.033zM50.048 6.487h3.695v13.829H50.05v-1.317a5.604 5.604 0 0 1-4.235 1.712c-3.727 0-6.644-3.187-6.644-7.244s2.917-7.244 6.644-7.244A5.604 5.604 0 0 1 50.05 7.85V6.487zm0 6.914c0-2.331-1.553-4.023-3.694-4.023-2.14 0-3.661 1.692-3.661 4.023 0 2.331 1.54 4.024 3.661 4.024 2.12 0 3.695-1.653 3.695-4.024zm8.483-5.71V6.488h-3.537v13.829h3.688v-6.23c0-2.963.507-4.465 3.293-4.465h.988V6.065h-.152c-1.942 0-3.437.573-4.307 1.627h.027zm5.347 12.612h3.681V.29h-3.68v20.013zM10.537 4.017A5.795 5.795 0 0 1 15.567 7l.08.139.132-.086 3.18-2.022.132-.085-.086-.132A10.062 10.062 0 0 0 10.583.29 10.102 10.102 0 0 0 .329 10.444a10.135 10.135 0 0 0 10.28 10.201 10.01 10.01 0 0 0 8.41-4.405l.085-.126-3.424-2.285-.086.132a5.808 5.808 0 0 1-5.011 2.93c-3.398 0-6.059-2.844-6.059-6.48 0-3.128 2.259-6.394 6.013-6.394zm9.594 16.286h3.682V.29H20.13v20.013zm61.903-6.922c0 .382 0 .758-.06 1.113v.31h-9.746a3.391 3.391 0 0 0 3.537 2.706 6.045 6.045 0 0 0 3.628-1.317l.283-.223 1.824 2.634-.23.197a8.251 8.251 0 0 1-5.677 1.976c-4.194 0-7.125-3.01-7.125-7.323 0-4.314 2.858-7.323 6.948-7.323 3.872-.06 6.592 2.95 6.605 7.25h.013zm-3.708-1.461c-.375-1.673-1.422-2.595-2.963-2.595a3.023 3.023 0 0 0-3.108 2.595h6.071zm-39.993 1.46c0 .382 0 .758-.059 1.113v.31h-9.733a3.391 3.391 0 0 0 3.536 2.706 6.045 6.045 0 0 0 3.629-1.317l.283-.223 1.824 2.634-.23.197a8.251 8.251 0 0 1-5.677 1.976c-4.195 0-7.125-3.01-7.125-7.323 0-4.314 2.878-7.382 6.94-7.382 3.88 0 6.6 3.01 6.612 7.31zm-3.707-1.461c-.376-1.673-1.423-2.595-2.964-2.595a3.023 3.023 0 0 0-3.108 2.595h6.072z" fill="#25333A" fill-rule="nonzero"/>
    <path d="M99.307 27.659a1.166 1.166 0 0 0-1.435-.936 4.498 4.498 0 0 1-2.18.158c-.915-.118-1.883-.204-2.825-.302-1.574-.172-3.155-.31-4.742-.435-1.732-.132-3.47-.224-5.202-.343-1.633-.111-3.26-.256-4.893-.335-3.45-.167-6.904-.297-10.359-.389-2.878-.099-12.887-.21-15.772-.171-2.021 0-4.037.092-6.052.118-2.673 0-12.472.224-15.146.382-2.851.152-5.716.25-8.561.448-2.634.178-5.268.296-7.863.487-.597.015-1.191.076-1.778.185-1.548 0-2.917.145-4.294.217-1.093.06-2.212.086-3.292.25-.455 0-.659-.263-1.363-.17-.705.091-1.364.302-1.397.697-.362.08 0 .27-.408.343v.31c.283.13.369.27 0 .434v.125c.224-.092.257 0 .369.046v.257c-.264.125-.105.244-.06.355.047.112.33.29.277.468a.863.863 0 0 0 .336.843v.151c.073.461.692.843.777 1.318.066.362.659.658 1.521.586.738-.04.995-.35 1.666-.448.126 0 .534-.06.659-.066 2.786-.184 5.571-.389 8.337-.659.817-.072 1.7-.052 2.45-.197.988-.191 2.022-.191 3.023-.33a45.262 45.262 0 0 1 5.69-.329c1.586 0 3.14-.17 4.714-.237.876-.04 1.752.04 2.635-.052.34-.065.687-.096 1.033-.093.942.06 8.996-.079 9.944-.072 1.838 0 3.675-.092 5.506-.112 2.173-.04 11.432-.112 13.618 0 .744 0 1.521.138 2.22.099 2.048-.112 4.076.066 6.11.112 1.785.04 3.55.204 5.341.257a64.28 64.28 0 0 1 5.137.335c.659.073 1.37.165 2.074.23.554.054.929-.137 1.456-.072 1.317.178 2.706.303 4.09.402.716.019 1.43.08 2.14.185a23.35 23.35 0 0 0 3.114.434l.659.237a2.634 2.634 0 0 0 1.818.191.961.961 0 0 0 .401-1.047v-.118c.066-.1.125-.205.06-.316.17-.066.184-.145.138-.244.164-.376.467-.731.29-1.146-.073-.165-.257-.408.276-.52v-.31c-.257-.033-.283-.125-.336-.21.027-.343.066-.672.08-1.001zm-48.389.83z" fill="#EA215A"/>
  </g>
</svg>
