<svg width="334" height="377" xmlns="http://www.w3.org/2000/svg"><path d="M311.49 162.162c-1.356 8.656-2.26 15.782-3.636 22.836-1.312 6.722-6.56 8.99-11.41 5.244-2.76-2.134-5.469-4.352-8.278-6.403-.506-.37-1.384-.105-1.63-.114l-7.14 24.9c5.466 3.923 11.536 8.17 17.485 12.622 1.496 1.12 3.787 2.861 3.693 4.365-.625 10.102-1.32 20.335-6.537 29.703 6.834 4.286 4.226 23.01-5.146 31.39 5.528 4.884 5.919 10.83 1.808 22.854a1425.4 1425.4 0 0 0-10.233 31.059c-2.83 8.946-4.495 9.492-10.65 3.394-1.138-1.128-2.88-1.455-3.851-1.917-4.094 9.708-2.64 21.43-12.132 28.22-9.13-15.427-24.243-19.792-37.348-27.408-15.367-8.934-31.065-17.211-46.782-25.416-8.672-4.528-17.61-8.481-26.537-12.423a6625.169 6625.169 0 0 0-60.818-26.509c-10.43-4.483-20.71-9.626-31.563-12.686-12.538-3.534-23.572-10.747-35.97-14.562-7.053-2.168-10.45-18.653-5.904-26.193 1.078-1.79 4.298-2.82 6.402-2.786 2.913.05 5.704 1.44 9.43 2.508-1.28-7.178 2.181-15.203-5.177-18.61-.523-.243-.878-1.398-.936-2.205-1.288-18.323-2.524-36.658-3.898-56.885l36.488 10.463c-1.973-12.178 3.884-24.9-8.368-30.08-.986-.417-1.737-2.628-1.789-4.129-.3-8.494-.352-17.027-.53-28.033 9.299 2.065 17.948 3.986 27.574 6.122-.13-7.04-.142-13.53-.45-19.967-.07-1.449-.882-3.582-1.855-3.94C56.22 74.037 54.16 65.32 54.319 54.577c.028-1.907-1.81-4.954-3.266-5.218-9.143-1.65-12.308-8.148-11.672-18.403.12-1.974-.514-3.912-.625-5.899-.72-12.864.855-14.382 11.618-11.3 8.385 2.401 16.753 4.864 25.164 7.17 2.02.553 4.183.592 7.041.97.129-5.651.272-10.138.32-14.616.07-6.254 2.023-9.433 7.924-7.882 20.68 5.434 41.386 10.781 62.134 15.963 8.915 2.225 18.092 3.5 26.906 6.047 9.66 2.794 18.931 6.918 28.561 9.822 19.258 5.807 38.755 10.817 57.929 16.877 10.04 3.174 19.603 7.904 29.405 11.862 1.611.649 3.316 1.212 5.042 1.351 11.096.89 14.811 5.315 10.546 18.09-3.937 11.787.474 15.2 7.609 18.916 4.765 2.48 8.827 6.501 13.525 9.164 4.706 2.67 6.092 7.615 4.656 12.63-4.115 14.365-8.532 28.727-13.958 42.599-2.84 7.259-7.48 2.967-11.688-.559" fill="#56CBE6" fill-rule="evenodd"/></svg>