<svg height="377" width="334" xmlns="http://www.w3.org/2000/svg"><path d="m261.323 189 .405-.078-.061-.922-.395.025zm-44.673-73-.3.042c.079.509.156 1.017.3 1.958zm-2.256-7 .275-.012-.075-1.988-.263.036zm-156.084 158 .518-.116-.282-1.884-.374.09zm202.03-26 .407-.044-.149-1.956-.345.04c.03.653.059 1.306.087 1.96zm0 4-.27.083.447 1.917c.139-.039.276-.08.413-.12-.195-.626-.392-1.253-.59-1.88zm-198.342-87.738c-2.63-18.929-2.869-37.885-2.212-57.305 2.171-.349 4.379-.798 6.637-1.05 11.169-1.235 22.352-2.419 33.99-3.67-1.214-5.996-2.372-11.83-3.584-17.66-1.206-5.804-3.722-11.493-4.234-17.782 4.45-.544 8.33-1.204 12.27-1.455 5.104-.322 9.992-1.037 14.96-1.894 5.549-.958 11.494-.923 17.779-1.356-.627-7.643-1.257-15.28-1.907-23.188 2.268-.41 4.347-1.08 6.446-1.114 9.557-.15 18.755-1.703 28.054-2.875.716-.09 1.456-.13 2.187-.173 9.995-.592 12.89.99 13.716 7.602.283 2.274.657 4.495 3.214 6.672 0-2.114.09-3.856-.018-5.594-.29-4.69-.577-9.384-1.03-14.068-.526-5.408-1.118-10.814-1.9-16.208-.424-2.919.51-4.035 4.974-4.434 2.516-.226 5.1-.085 7.64-.21 9.118-.455 18.224-.995 27.342-1.415 5.826-.268 6.26-.11 7.429 3.602 3.685 11.694 7.344 23.392 10.76 35.119 2.56 8.778 4.53 17.633 7.126 26.406 2.385 8.059 5.327 16.045 7.893 24.08 4.303 13.468 8.599 26.938 12.72 40.43 5.024 16.45 9.892 32.918 14.775 49.385 2.422 8.162 4.852 16.325 7.048 24.514 1.804 6.741 3.079 13.546 4.928 20.282 2.051 7.465 4.475 14.886 6.756 22.324 2.936 9.568 5.892 19.133 8.833 28.7 3.165 10.295 7.04 20.47 12.836 30.268 1.647 2.784 4.223 5.326 6.575 8.231-1.37.288-2.67.765-3.997.806-6.524.201-12.848 1.476-19.572.957-3.878-.299-8.043.734-12.017 1.341-5.095.778-9.196.315-10.971-1.694-1.808-2.044-3.678-4.13-4.802-6.356-2.832-5.612-5.265-11.312-7.851-16.977-.297-.65-.563-1.308-1.877-1.848 1.532 7.509 3.117 15.013 4.583 22.527 1.46 7.494 2.8 14.996 4.263 22.867-.622.236-1.782.867-3.115 1.15-9.31 1.973-18.547 4.179-28.05 5.626-3.072.47-5.82.881-8.34 2.066a5.78 5.78 0 0 1 -1.5.444c-5.095.793-10.236 1.467-15.28 2.378-4.186.757-8.284 1.737-12.374 2.706-3.579.848-7.098 1.804-10.629 2.736-3.544.932-5.55-.302-6.914-2.736-2.897.99-5.348 1.706-7.606 2.626-4.17 1.702-6.34 1.068-7.381-1.99-1.36-3.991-3.014-7.94-4.67-11.885-4.253-10.123-8.622-20.227-12.858-30.356-1.748-4.184-3.342-8.398-4.898-12.614-4.67-12.652-9.067-25.35-14.012-37.954-2.429-6.185-5.567-12.265-8.858-18.28-5.79-10.573-11.939-21.06-17.953-31.579-.5-.875-1.128-1.718-2.506-2.475.45 3.527.845 7.058 1.357 10.582 1.039 7.158 2.038 14.32 3.235 21.468 2.274 13.556 4.68 27.103 7.015 40.654.871 5.037 1.59 10.086 2.573 15.113 1.73 8.866 3.494 17.73 5.458 26.575 2.07 9.32 4.335 18.62 6.621 27.918 1.378 5.599 2.814 11.196 4.53 16.752.524 1.698.074 2.64-2.104 3.6-9.733 4.29-20.165 7.171-32.03 7.486-1.17.03-2.414.412-3.446.827-4.585 1.847-6.712 1.51-8.787-1.876-3.365-5.486-6.99-10.938-9.57-16.591-6.064-13.297-11.713-26.679-17.261-40.074-3.903-9.432-7.475-18.926-10.978-28.427-2.206-5.98-3.894-12.04-6.01-18.036-2.364-6.702-4.95-13.37-7.438-20.053-3.662-9.842-7.326-19.685-10.979-29.53-3.349-9.023-6.71-18.043-10.018-27.072-3.61-9.853-6.586-19.828-10.927-29.538-3.81-8.52-7.25-17.199-14.415-24.96-1.659-1.795-1.56-4.41-1.64-6.657-.03-.812 1.564-1.875 2.82-2.417 1.305-.563 3.072-.745 4.68-.902 3.935-.386 7.886-.877 11.846-.939 8.218-.13 16.444-.078 24.663.038 4.374.062 5.964.72 6.249 3.476.877 8.481 7.858 15.806 10.002 24.023.085.326.445.62.675.928l1.061-.018z" fill="#ea215a" fill-rule="evenodd"/></svg>