<svg width="334" height="377" xmlns="http://www.w3.org/2000/svg"><path d="M111.577 338.619c24.631-11.193 47.575-25.024 68.18-47.063-2.303 1.047-4.664 1.874-6.899 3.177-24.626 14.35-49.482 27.541-75.493 35.52-5.085 1.561-9.044 1.074-12.173-5.405-.894-1.853-1.996-3.51-2.771-5.457-1.87-4.694-3.6-9.508-5.389-14.273 3.05-1.102 6.255-1.649 9.125-3.4 16.432-10.013 32.788-20.296 49.157-30.533 4.385-2.743 8.728-5.64 13.09-8.465l-.792-2.83c-7.678 4.156-15.32 8.477-23.043 12.438-17.05 8.742-34.088 17.557-51.288 25.608-2.046.957-5.66-1.735-7.495-4.355-2.758-3.937-4.808-9.117-6.748-14.116-1.983-5.11-3.697-8.87-8.42-10.212-3.05-.866-5.411-7.734-7.878-12.161-1.376-2.47-2.098-5.767-3.533-8.133-3.454-5.689-5.091-10.859.968-14.981l-10.712-24.132c5.86-4.323 11.16-8.756 16.734-12.248 21.161-13.263 42.419-26.195 63.611-39.354 1.235-.769 2.208-2.458 2.765-5.233-11.845 5.805-23.58 12.153-35.555 17.286-19.676 8.432-39.476 16.237-59.315 23.782-1.864.71-5.098-1.397-6.445-3.759-3.666-6.423-6.684-13.662-9.914-20.622-2.956-6.367-.677-9.721 3.35-11.344 6.385-2.578 12.85-4.726 20.203-7.39-2.702-5.469-5.445-9.73-7.058-14.78-.972-3.037-1.19-8.773.064-10.66 1.598-2.404 5.009-2.705 7.668-2.876 2.664-.173 5.57 2.168 8.022 1.287 41.157-14.782 80.592-36.792 118.62-64.158 23.702-17.058 46.913-35.61 70.371-53.414 2.89-2.193 5.903-4.066 8.94-5.767 1.038-.582 2.736-.936 3.432-.106 6.382 7.62 12.609 15.523 19.683 24.344l-24.188 21.599c6.64 7.408 13.795 13.96 19.702 22.426 5.006 7.17-2.051 9.375-4.489 13.659.482.463.842 1.063 1.035.962 7.808-4.11 13.453.07 19.064 8.526 2.353 3.545 7.407 3.172 11.24 4.54 1.555.554 3.467.324 4.633 1.61 6.136 6.776 12.084 13.923 18.404 21.295a9650.995 9650.995 0 0 1-3.272 7.418l18.882 22.491a211472.05 211472.05 0 0 0-27.36 29.418l.225.78c6.08-3.622 12.254-6.933 18.213-10.945 7.13-4.8 12.95-1.824 18.678 4.95 11.508 13.607 11.584 13.474-.53 26.06-8.995 9.347-17.996 18.682-27.315 28.358 3.466 4.631 6.664 8.547 9.573 12.888 3.153 4.708 2.955 8.432-1.338 12.187-25.781 22.538-50.907 46.855-77.282 67.719-22.62 17.893-46.616 31.972-70.01 47.721-3.358 2.262-6.715 4.545-10.129 6.616-4.754 2.887-9.304 2.716-13.516-2.285-1.346-1.598-2.92-3.922-4.399-3.938-12.996-.143-13.938-17.42-18.983-28.824-.183-.415.084-1.265.1-1.446" fill="#FFDA69" fill-rule="evenodd"/></svg>