<?xml version="1.0" encoding="UTF-8" standalone="no"?>
<svg width="229px" height="307px" viewBox="0 0 229 307" version="1.1" xmlns="http://www.w3.org/2000/svg" xmlns:xlink="http://www.w3.org/1999/xlink">
    <!-- Generator: Sketch 41.2 (35397) - http://www.bohemiancoding.com/sketch -->
    <title>path2363</title>
    <desc>Created with Sketch.</desc>
    <defs></defs>
    <g id="Featured-Case-studies" stroke="none" stroke-width="1" fill="none" fill-rule="evenodd" opacity="0.100000001">
        <g id="Work/C4NewsLS-Copy" transform="translate(-60.000000, -405.000000)" fill="#FFFFFF">
            <g id="Group" transform="translate(0.000000, -21.000000)">
                <path d="M117,714 L117,687 L143,687 L152,694 L152,643 L203,643 L203,616 L85,616 L85,643 L60,623 L60,597 L78,596 L67,587 L143,490 L152,496 L152,478 L178,444 L187,451 L187,433 L193,426 L217,445 L212,452 L212,496 L232,470 L238,476 L212,510 L212,698 L238,698 L239,687 L247,687 L271,706 L212,707 L212,733 L203,726 L203,651 L177,651 L177,733 L168,726 L168,707 L142,707 L141,733 M163,597 L152,589 L152,574 L168,553 L168,510 L92,608 L125,608 L133,598 M177,498 L177,552 L177,607 L203,607 L203,535 L203,464 M239,597 L265,597 L289,616 L289,616 L248,617 L248,643 L239,636" id="path2363"></path>
            </g>
        </g>
    </g>
</svg>