<svg width="60" height="80" viewBox="0 0 60 80" xmlns="http://www.w3.org/2000/svg">
    <title>Channel 4 logo</title>
    <path d="M14.766 74.942v-6.914h6.93l2.232 1.72.04-13.323h13.337l.038-6.876H6.493l-.037 6.886L0 51.376v-6.91l4.71-.038-2.828-2.397 19.776-25.417 2.27 1.708.04-4.662 6.888-8.86 2.27 1.705.044-4.664L34.675 0l6.376 4.995-1.388 1.88v11.242l5.135-6.53 1.7 1.366-6.835 9.017v48.78l6.83.018.092-2.74h2.044l6.368 5.032-15.333.054-.037 6.884-2.32-1.81.004-19.435-6.85-.037L30.424 80l-2.247-1.762v-5.124H21.26l-.038 6.88m5.686-35.566l-2.94-2.29.003-3.87 4.207-5.395-.064-11.102L8.346 47.147l8.69.04 2.09-2.686M30.46 18.7v28.486h6.847l.018-18.623-.03-18.604m9.286 34.504l6.67.003 6.26 4.894.125.135-10.77.054-.037 6.873-2.247-1.75" fill="#FFF" fill-rule="evenodd" fill-opacity=".996" opacity=".701"/>
</svg>
