<svg width="94" height="38" viewBox="0 0 94 38" xmlns="http://www.w3.org/2000/svg">
    <title>Evo magazine logo</title>
    <path d="M9.51 37.332c-4.27-.708-6.74-2.175-8.054-4.78C.558 30.77.398 28.688.396 18.78.397 1.266.54 1.093 15.05 1.094c13.603.002 14.564.957 14.258 14.176l-.17 7.314-9.53.167-9.53.167v2.13c0 2.93 2.2 5.085 5.267 5.16 5.07.124 7.852-.218 10.753-1.32 1.672-.637 3.11-1.157 3.192-1.158.083 0 .15 1.888.15 4.196 0 4.75.334 4.45-6.05 5.46-4.595.73-9.27.71-13.88-.054zm9.644-24.615c0-1.93-.326-3.838-.726-4.238-1.09-1.09-5.94-.906-7.244.275-.81.732-1.106 1.872-1.106 4.237v3.236h9.076v-3.51zm16.354 9.433c-2.77-8.417-5.393-16.463-5.826-17.878L28.894 1.7h11.383l.526 1.967c.29 1.082 1.593 6.122 2.897 11.2 1.304 5.076 2.523 9.23 2.71 9.23.185 0 1.488-4.955 2.895-11.012C50.71 7.028 51.957 1.977 52.073 1.86l10.434.142-5.258 17.555-4.945 17.87-11.758.03-5.04-15.307zm31.46 14.34c-6.038-1.378-4.85-17.037-4.85-17.037 0-13.53.263-14.762 3.56-16.705C69.734.36 82.563-.172 88.384 1.805c4.56 1.55 4.876 2.57 5.067 16.433.194 14.042-.15 15.42-4.404 17.622-2.03 1.05-4.48 1.274-11.073 1.39-5.614.1-6.506.266-11.004-.76zm14.773-7.29c.783-.783.952-2.605.952-10.257 0-8.93-.054-9.343-1.345-10.248-1.727-1.21-5.266-1.21-6.992 0-1.29.904-1.345 1.324-1.345 10.092 0 10.788.248 11.364 4.89 11.364 1.82 0 3.242-.352 3.84-.95z" fill="#FFF" fill-rule="evenodd"/>
</svg>
