<svg width="36" height="16" viewBox="0 0 36 16" fill="none" xmlns="http://www.w3.org/2000/svg">
<path d="M22.8065 5.71608C21.819 5.40305 20.8276 5.10628 19.8522 4.76479C18.477 4.27695 17.8534 3.20369 18.2532 1.96375C18.581 0.83765 19.6523 0.28476 21.0275 0.577466C26.3443 1.70764 30.9576 4.34606 35.1791 7.77722C36.4543 8.81795 36.2145 10.5051 34.6634 10.7897C31.0136 11.4645 28.0633 13.5785 24.8412 15.1233C24.2199 15.4403 23.5673 15.6897 22.8944 15.8673C21.6232 16.1681 20.8316 15.3225 21.4393 14.1802C22.0469 13.0378 23.0383 12.0906 23.9418 10.9279C21.6511 11.0336 19.2246 10.9075 16.878 11.3019C11.6811 12.1759 6.55211 13.3346 1.37918 14.3143C0.979418 14.3956 0.459727 14.0379 0 13.8834C0.175895 13.4159 0.219869 12.7004 0.551672 12.5174C2.72238 11.2978 4.8731 9.98878 7.17973 9.09846C12.1848 7.17961 17.4256 6.23645 22.8065 5.71608Z" fill="#EA215A"/>
</svg>
