<?xml version="1.0" encoding="UTF-8" standalone="no"?>
<svg width="61px" height="47px" viewBox="0 0 61 47" version="1.1" xmlns="http://www.w3.org/2000/svg" xmlns:xlink="http://www.w3.org/1999/xlink">
    <!-- Generator: Sketch 41.2 (35397) - http://www.bohemiancoding.com/sketch -->
    <title>Quote mark</title>
    <desc>Created with Sketch.</desc>
    <defs></defs>
    <g id="Featured-Case-studies" stroke="none" stroke-width="1" fill="none" fill-rule="evenodd">
        <g id="Work/C4NewsLS-Copy" transform="translate(-199.000000, -3573.000000)">
            <g id="Group-16" transform="translate(200.000000, 3575.000000)">
                <g id="Quote-mark" transform="translate(1.000000, 0.000000)">
                    <g id="Group-2">
                        <path d="M5,45 L28.8604651,45 L28.8604651,20.9705882 L16.9302326,20.9705882 C18.4372093,16.0382353 22.5813953,13.3823529 28.8604651,13.3823529 L28.8604651,2 C13.1627907,2 5,10.2205882 5,26.0294118 L5,45 Z M35.1395349,45 L59,45 L59,20.9705882 L47.0697674,20.9705882 C48.5767442,16.0382353 52.7209302,13.3823529 59,13.3823529 L59,2 C43.3023256,2 35.1395349,10.2205882 35.1395349,26.0294118 L35.1395349,45 Z" id="“" fill="#56CCE7" opacity="0.300000012"></path>
                        <path d="M0.0343,23.0191 C0.0343,23.0191 -0.4057,33.1861 1.8673,39.3521 C2.9063,42.1691 6.4403,41.5811 10.8673,41.6861 C14.7193,41.7761 18.5123,41.7771 20.6733,39.4081 C22.9983,36.8571 22.5193,34.2591 22.4333,30.5171 C22.3603,27.3241 23.1173,23.0251 20.2013,20.1861 C18.4923,18.5221 15.2513,19.1431 12.0343,19.0191 C12.0343,19.0191 10.3373,10.3521 23.3523,10.3521 L23.7023,0.3521 C23.7023,0.3521 1.0343,-4.6479 0.0343,23.0191 Z M54.3774,10.3524 L54.7274,0.3524 C54.7274,0.3524 32.0594,-4.6476 31.0594,23.0194 C31.0594,23.0194 30.6184,33.1854 32.8924,39.3524 C33.9314,42.1684 37.4654,41.5814 41.8924,41.6854 C45.7434,41.7764 49.5374,41.7764 51.6974,39.4074 C54.0234,36.8574 53.5444,34.2594 53.4584,30.5174 C53.3854,27.3244 54.1424,23.0254 51.2254,20.1854 C49.5174,18.5224 46.2764,19.1424 43.0594,19.0194 C43.0594,19.0194 41.3624,10.3524 54.3774,10.3524 Z" id="Combined-Shape" stroke="#A9439A" stroke-width="4" stroke-linecap="round" fill="#A13791" opacity="0.5"></path>
                    </g>
                </g>
            </g>
        </g>
    </g>
</svg>