<?xml version="1.0" encoding="UTF-8" standalone="no"?>
<svg width="37px" height="37px" viewBox="0 0 37 37" version="1.1" xmlns="http://www.w3.org/2000/svg" xmlns:xlink="http://www.w3.org/1999/xlink">
    <!-- Generator: Sketch 41 (35326) - http://www.bohemiancoding.com/sketch -->
    <title>Group 7</title>
    <desc>Created with Sketch.</desc>
    <defs></defs>
    <g id="About" stroke="none" stroke-width="1" fill="none" fill-rule="evenodd" opacity="0.5">
        <g id="About/Team-member" transform="translate(-938.000000, -211.000000)">
            <g id="Group-7" transform="translate(939.000000, 212.000000)">
                <path d="M21.0433961,16.2195036 C21.0198395,15.7314183 20.9929591,15.214303 20.9702696,14.6968945 C20.945846,14.13902 20.9468576,13.5789461 20.895987,13.0237107 C20.8578341,12.6065876 21.0621835,12.3841709 21.3924086,12.2362352 C21.6656934,12.113664 21.9430248,11.9864012 22.231773,11.9189577 C22.4001373,11.8796646 22.6234186,11.9012172 22.7718393,11.9858147 C23.6087469,12.4629038 24.2972338,13.1269285 24.8237153,13.9300919 C25.4701472,14.9162323 26.207626,15.8138166 27.0432329,16.6361868 C27.3847305,16.972231 27.3663766,17.1733884 27.1014739,17.5971092 C26.6894512,18.2562956 26.1619581,18.8015611 25.6009366,19.3280599 C24.364435,20.4886735 23.1496111,21.6730391 21.9232257,22.844649 C21.5867863,23.1661782 21.2408086,23.4772978 20.891796,23.8 C20.7323919,23.68388 20.5634496,23.5783163 20.4209542,23.4438693 C20.3895936,23.4142528 20.4237,23.2387533 20.4754377,23.2042985 C21.1215807,22.7742732 21.1500509,22.1383988 21.1077069,21.4463704 C21.0730224,20.8786726 21.1191239,20.306283 21.1173896,19.7359461 C21.1168116,19.5570743 21.077358,19.3783492 21.0565473,19.2071015 C20.0196259,18.9184142 19.0298175,19.2016767 18.0345175,19.3122253 C16.6507513,19.4657324 15.2672741,19.5302436 13.8731026,19.4585483 C13.0762267,19.4174957 12.2727029,19.483473 11.4735147,19.5274579 C10.8672589,19.5608863 10.2625928,19.6308223 9.65807127,19.6934274 C9.00108943,19.7614573 8.83171355,19.7092619 8.65178782,19.0549139 C8.49455151,18.4831108 8.46521422,17.8731875 8.40249312,17.2777792 C8.37806947,17.0462722 8.53573933,16.9335244 8.7593097,16.9109455 C9.45993618,16.8399833 10.1596956,16.7593444 10.8607556,16.6933671 C11.4087704,16.6419048 11.9579413,16.5772471 12.5071122,16.5706493 C13.4519752,16.5590666 14.4010293,16.6480627 15.3414122,16.5867771 C16.8438282,16.4886909 18.3395964,16.2910523 19.8402782,16.1608571 C20.2111131,16.1287482 20.5901855,16.1944322 21.0433961,16.2195036" id="Fill-1" fill="#505050" transform="translate(17.850000, 17.850000) rotate(-360.000000) translate(-17.850000, -17.850000) "></path>
                <circle id="Oval-6" stroke="#505050" stroke-width="2" cx="17.5" cy="17.5" r="17.5"></circle>
            </g>
        </g>
    </g>
</svg>