<svg xmlns="http://www.w3.org/2000/svg" id="Layer_1" data-name="Layer 1" viewBox="0 0 367.92 9.38">
  <path fill="#adadad" d="M210.58 5.74c10.66-.08 22.19 0 30.66 0 2.46 0 4.84-.1 7.25-.06 5.66.08 12.08.25 17.85.12.72 0 1.51-.16 2.22-.18 4.63-.14 10.17.16 15.06.06 3.53-.08 6.56.1 10.05.06 2.64 0 4.74-.18 7-.24 6.8-.15 13.51 0 19.81 0 4.48 0 9.64-.08 14.22 0 2 0 4.18 0 5.87.06.64 0 1.5.2 2.22.24 1.86.08 4.75 0 7.54.06 3.72.07 6.82.37 8.92.29 2.34-.1 6.76-.92 7-1.35s-1.86-1.3-3.63-1.53c-2-.27-5.39-.14-7.25-.41C346 3 336.26 3 327.43 3c-5.44 0-11.22-.08-17-.12-1.65 0-3.39.12-5 .12-5.4 0-10.36-.22-14.23 0-2.74.15-5.51 0-8.63 0-3.82 0-7.83.23-11.72.23-5-.41-12.93 0-19-.18-13.65-.33-28.47.38-42.67 0-3.6.22-7.82 0-11.14 0-1.81 0-3.58.14-5.58.18-5.18.1-11-.12-15.89-.06-1.25 0-2.39.16-3.63.18s-2.22-.12-3.34-.12c-1.86 0-3.92.08-5.85.12-6.54.1-11.76.19-17 0-2.46.19-6.18.14-9.21.12-3.94 0-7.92-.18-12-.06-.88 0-1.91.15-2.79.17-4 .1-9.38 0-12.55-.06-2.41 0-4.82.18-7.26.18-1 0-2.1-.12-3.08-.12-2.69 0-5.65.22-8.37.18-4.63-.06-9.86 0-14.77.06-1.08 0-.34.27-1.39.23-2.76-.17-5.94-.33-9.18-.41-5.11-.12-10.62.2-15.9.18a62.07 62.07 0 0 0-7 0c-7.11-.43-17.68-.2-25.37 0-2.17.33-6.3.25-8.11.64-5.92-.09-10 .93-6.13 1.89 2.5.21 3.93.51 6.68.52s5.84-.29 8.64-.29c1.43 0 2.84.16 4.17.18 2.27 0 4.82-.18 7.26-.18 1.14 0 2.31.14 3.34.12s2-.16 3.07-.18c1.29 0 2.51.12 3.92.12.9 0 1.84-.12 2.79-.12 6.87 0 14.58.41 20.35 0 1.87.41 4.37.12 6.42.12 2.91 0 5.92.25 8.64.23.91 0 1.62-.15 2.51-.17 1.14 0 2.29.14 3.34.12s2.26-.14 3.34-.18c2.34-.08 4.91 0 7.51-.06 7-.1 14.11-.33 21.77-.29 2.07 0 4 .15 6.13.17 3.63 0 6.85-.15 10.31-.23s6.94.1 10.3.06c.94 0 1.87-.12 2.8-.12 2 0 3.7.16 5.58.12 3.91-.08 7.64-.3 11.43-.12 1.53-.35 3.34 0 5.3-.29a126.91 126.91 0 0 0 15.89-.12c2.72.1 6.87.08 10.05-.06 4.82.35 10.05.08 15.4.04z"/>
</svg>