<?xml version="1.0" encoding="UTF-8"?>
<svg width="55px" height="42px" viewBox="0 0 55 42" version="1.1" xmlns="http://www.w3.org/2000/svg" xmlns:xlink="http://www.w3.org/1999/xlink">
    <!-- Generator: Sketch 42 (36781) - http://www.bohemiancoding.com/sketch -->
    <title>Quote mark</title>
    <desc>Created with Sketch.</desc>
    <defs></defs>
    <g id="Featured-Case-studies" stroke="none" stroke-width="1" fill="none" fill-rule="evenodd">
        <g id="Work/PenguinLS" transform="translate(-205.000000, -10678.000000)" fill="#1E6B9C">
            <g id="Group-16" transform="translate(203.000000, 10674.000000)">
                <g id="Quote-mark" transform="translate(0.000000, 2.000000)">
                    <g id="Group-2" transform="translate(2.000000, 2.000000)">
                        <path d="M0.0342744172,23.0194098 C1.03427442,-4.64759023 23.7022744,0.35240977 23.7022744,0.35240977 L23.3522744,10.3524098 C10.3372744,10.3524098 12.0342744,19.0194098 12.0342744,19.0194098 C15.2512744,19.1434098 18.4922744,18.5224098 20.2012744,20.1864098 C23.1172744,23.0254098 22.3602744,27.3244098 22.4332744,30.5174098 C22.5192744,34.2594098 22.9982744,36.8574098 20.6732744,39.4084098 C18.5122744,41.7774098 14.7192744,41.7764098 10.8672744,41.6864098 C6.44027442,41.5814098 2.90627442,42.1694098 1.86727442,39.3524098 C-0.405725583,33.1864098 0.0342744172,23.0194098 0.0342744172,23.0194098 Z M54.3773744,10.3527098 C41.3623744,10.3527098 43.0593744,19.0197098 43.0593744,19.0197098 C46.2763744,19.1427098 49.5173744,18.5227098 51.2253744,20.1857098 C54.1423744,23.0257098 53.3853744,27.3247098 53.4583744,30.5177098 C53.5443744,34.2597098 54.0233744,36.8577098 51.6973744,39.4077098 C49.5373744,41.7767098 45.7433744,41.7767098 41.8923744,41.6857098 C37.4653744,41.5817098 33.9313744,42.1687098 32.8923744,39.3527098 C30.6183744,33.1857098 31.0593744,23.0197098 31.0593744,23.0197098 C32.0593744,-4.64729023 54.7273744,0.35270977 54.7273744,0.35270977 L54.3773744,10.3527098 Z" id="Combined-Shape"></path>
                    </g>
                </g>
            </g>
        </g>
    </g>
</svg>