<svg width="157" height="51" viewBox="0 0 157 51" xmlns="http://www.w3.org/2000/svg"><title>Group 3</title><g fill="none" fill-rule="evenodd"><path d="M69.91 11.958V0h-3.536v12.12c.764-.14 1.552-.215 2.357-.215.398 0 .792.018 1.18.053zm-8.96 2.567l-8.56-8.56-2.693 2.693 8.587 8.587c.752-1.033 1.65-1.95 2.665-2.72zm-4.973 8.113H43.73v3.808h12.115c-.052-.475-.078-.957-.078-1.446 0-.806.072-1.596.21-2.362zm2.298 10.105l-8.578 8.578 2.693 2.694 8.548-8.548c-1.014-.77-1.912-1.69-2.663-2.723zm8.1 5.136V50h3.535V38.042c-.388.035-.782.053-1.18.053-.804 0-1.592-.074-2.356-.216zm10.138-2.405l8.54 8.54 2.692-2.694-8.566-8.565c-.754 1.033-1.652 1.95-2.667 2.72zm5.104-9.03H93.73V22.64H81.486c.138.766.21 1.556.21 2.362 0 .49-.026.97-.078 1.446zm-2.447-9.212l8.575-8.575-2.692-2.692-8.55 8.55c1.014.77 1.914 1.686 2.667 2.717z" fill="#FFDA69"/><path d="M81.866 20.553C80.042 15.02 74.636 9.86 68.86 9.86c-10.23 0-13.783 7.19-14.433 13.727l.062 3.614 1.24 4.368s6.83 5.163 6.83 10.192l11.146.127s.266-5.607 6.8-11.083c1.498-1.254 2.767-5.984 1.36-10.25z" fill="#FFF"/><path d="M82.108 24.227v-.202c.045-2.28-.465-4.6-1.6-6.76-3.57-6.783-11.944-9.378-18.703-5.795-4.842 2.567-7.542 7.61-7.37 12.757-.046.95-.028 5.08 3.398 8.647.307.354.63.69.967 1.008 2.802 3.03 4.024 5.588 4.184 6.87v.552h10.57v-.276c0-1.183 1.222-3.972 4.35-7.305.227-.22.446-.443.655-.676 0 0 0-.002.002-.003 4.078-4.093 3.546-8.817 3.546-8.817z" stroke="#333" stroke-width="2.96"/><path d="M71.32 41.665V26.403c0-.97.784-1.755 1.75-1.755s1.75.786 1.75 1.755c0 .97-.784 1.755-1.75 1.755h-8.52c-.967 0-1.75-.785-1.75-1.755 0-.97.783-1.755 1.75-1.755.965 0 1.748.786 1.748 1.755v15.262" stroke="#333" stroke-width="1.776"/><path d="M61.404 48.592h14.258" stroke="#333" stroke-width="3.224"/><path d="M3.814 31.74l.055-.957c-.074-.237-.224-2.344-.452-6.323-.228-3.978-.35-6.405-.37-7.28-1.075-.028-1.74-.125-1.995-.294-.255-.17-.383-.344-.383-.526 0-.183.1-.33.3-.445.2-.114.397-.17.59-.17l3.8.26.45-.015c.584 0 .876.224.876.67 0 .228-.096.413-.288.554-.19.14-.405.212-.642.212l-1.285-.19-.054.286c0 1.768.155 4.416.465 7.943.31 3.527.466 6.18.466 7.957 0 .228-.085.424-.253.588-.17.164-.367.246-.595.246h-.63l-.054-2.516zm8.098 2.284l-1.053.013-1.218.055c-.52 0-.866-.17-1.04-.506 0-.273.035-.485.104-.636.068-.15.212-.225.43-.225h.793l.054-.37-.19-5.947.15-6.234c0-1.048-.047-2.042-.138-2.98H8.72c-.333 0-.577-.053-.732-.158-.155-.105-.233-.303-.233-.594 0-.438.506-.652 1.518-.643h.096c2.396 0 3.594.318 3.594.956 0 .1-.054.273-.164.52h-1.435c.073.683.11 1.485.11 2.406l-.15 5.345.204 5.948v.834c0 .163-.033.413-.097.75h1.19c.765 0 1.148.233 1.148.698 0 .21-.065.387-.197.533-.132.147-.28.22-.444.22l-1.218.014zm5.02-10.733l.165 7.247v3.172c0 .245-.064.453-.192.62-.127.17-.305.254-.533.254-.61 0-.916-.57-.916-1.71l-.054-9.87.164-5.223c0-1.256.34-1.885 1.025-1.885.41 0 .707.314.89.943.255 1.203.7 2.933 1.333 5.19.633 2.254 1.068 3.97 1.305 5.146.174.574.397 1.424.67 2.55.274 1.125.488 1.97.643 2.536.074-4.047.11-8.95.11-14.71l-.04-.753c0-.255.047-.458.143-.608.096-.152.257-.227.485-.227.228 0 .415.055.56.164.292.22.438.53.438.93 0 2.56-.073 5.85-.22 9.87-.144 4.02-.363 6.53-.655 7.534-.035.01-.113.035-.23.076-.12.04-.206.066-.26.075-.52.12-.85.097-.985-.067-.137-.164-.235-.383-.294-.656-.06-.274-.127-.54-.204-.8-.078-.26-.367-1.502-.87-3.726-1.338-5.877-2.163-9.295-2.473-10.252v4.183zm12.295 9.558c0 .91-.123 1.48-.37 1.71-.126.108-.325.163-.593.163-.27 0-.495-.204-.677-.614.21-.41.314-1.992.314-4.745 0-.518-.035-1.25-.108-2.193-.073-.943-.114-1.58-.123-1.907-.366-.63-.93-2.076-1.69-4.34-.76-2.266-1.14-3.663-1.14-4.19v-.152l.628-.465c.574.02 1.257 1.463 2.05 4.334.347 1.258.52 1.892.52 1.9.073-.2.22-.897.437-2.09.556-3.027 1.14-4.54 1.75-4.54.174 0 .33.055.472.164.14.11.212.252.212.425 0 1.148-.28 2.49-.842 4.026-.56 1.537-.84 2.897-.84 4.082v8.436zM109.056 18.643l.082 6.726c-.11.264-.164.77-.164 1.517l-.11 4.457c0 1.285.315 1.928.944 1.928l1.162-.04c1.003 0 1.504.272 1.504.82 0 .2-.086.366-.26.498-.173.132-.37.212-.587.24-.684-.22-1.518-.33-2.502-.33-.3.174-.59.26-.868.26s-.495-.095-.65-.286c-.155-.192-.232-.4-.232-.63l.273-12.51v-.204c-.055-.583-.082-1.458-.082-2.625 0-1.768.324-2.652.97-2.652.192 0 .36.068.5.205.14.136.212.3.212.492l-.192 2.133zm7.578 14.642l1.108-.068c.71 0 1.066.228 1.066.684 0 .283-.123.488-.37.616-.245.127-.523.19-.833.19h-2.64c-.236 0-.44-.08-.607-.245-.17-.163-.26-.373-.274-.628-.013-.255.005-.574.055-.957s.074-.688.074-.916l-.137-3.583.192-8.176-.152-2.364c0-1.322.392-1.982 1.176-1.982.22 0 .424.068.616.205.072.008.248.024.526.047.278.022.522.052.73.088.21.037.44.087.685.15.53.147.794.397.794.753 0 .383-.274.674-.82.875-.857-.292-1.564-.47-2.12-.533.028.4.04.802.04 1.203l-.122 4.02c0 .017.028.163.082.437l.998-.04c.903 0 1.354.254 1.354.764 0 .274-.08.515-.24.725-.16.21-.384.313-.676.313-.292 0-.547-.082-.766-.246h-.71c.054.71.08 1.386.08 2.024l-.122 5.073c0 1.048.338 1.572 1.012 1.572zm3.627-.123l1.477.205c.356 0 .666-.155.93-.465.264-.31.46-.697.588-1.162.246-.893.37-1.684.37-2.372s-.115-1.37-.343-2.044c-.228-.674-.506-1.3-.834-1.88-.328-.578-.66-1.168-.998-1.77-.784-1.413-1.176-2.807-1.176-4.184 0-.838.142-1.58.424-2.228.53-1.203 1.23-1.805 2.106-1.805.328 0 .64.105.936.315.296.21.445.437.445.683 0 .43-.228.643-.684.643-.2 0-.396-.055-.587-.164-.592.027-.993.688-1.203 1.982-.046.283-.068.613-.068.99 0 .38.082.847.246 1.403.164.555.37 1.05.622 1.482.25.433.52.912.806 1.436.287.524.56 1.032.814 1.524.574 1.14.86 2.443.86 3.91 0 1.167-.23 2.247-.696 3.24-.246.51-.595.928-1.046 1.25-.45.325-.973.49-1.565.5v.07c-.347-.047-.66-.163-.944-.35-.283-.187-.443-.43-.48-.73v-.48zm6.32 0l1.477.205c.356 0 .666-.155.93-.465.264-.31.46-.697.588-1.162.246-.893.37-1.684.37-2.372s-.115-1.37-.343-2.044c-.228-.674-.506-1.3-.834-1.88-.328-.578-.66-1.168-.998-1.77-.784-1.413-1.176-2.807-1.176-4.184 0-.838.142-1.58.424-2.228.53-1.203 1.23-1.805 2.106-1.805.328 0 .64.105.936.315.296.21.444.437.444.683 0 .43-.227.643-.683.643-.2 0-.396-.055-.587-.164-.592.027-.994.688-1.203 1.982-.046.283-.07.613-.07.99 0 .38.084.847.248 1.403.164.555.37 1.05.622 1.482.25.433.52.912.806 1.436.287.524.56 1.032.814 1.524.574 1.14.86 2.443.86 3.91 0 1.167-.23 2.247-.696 3.24-.246.51-.595.928-1.046 1.25-.45.325-.973.49-1.565.5v.07c-.347-.047-.66-.163-.944-.35-.283-.187-.443-.43-.48-.73v-.48zm7.893-12.947l.04 1.64-.013 2.68c0 .228.005.497.014.807.01.31.02.718.034 1.224.014.505.04 1.007.082 1.503.04.496.09 1.02.144 1.572.054.55.127 1.062.218 1.53.092.47.192.896.3 1.28.247.83.57 1.243.972 1.243.538 0 .948-.505 1.23-1.517.42-1.504.63-3.354.63-5.55l.04-2.886c0-2.023-.09-3.386-.266-4.088-.178-.7-.344-1.23-.5-1.586-.31-.72-.78-1.08-1.408-1.08h-.054c-.976 0-1.463 1.076-1.463 3.227zm5.195 6.59c0 5.368-1.098 8.053-3.295 8.053-2.023 0-3.158-2.543-3.404-7.63-.02-.482-.028-.965-.028-1.45l-.014-1.708v-.546c0-3.947.58-6.385 1.736-7.315.283-.23.597-.352.944-.37.264.09.587.175.97.253.383.077.666.157.848.24.337.154.702.557 1.094 1.21.392.65.68 1.52.868 2.61.187 1.09.28 2.18.28 3.275v3.377zm3.722-3.514l.164 7.247v3.172c0 .245-.063.453-.19.62-.13.17-.306.254-.534.254-.61 0-.916-.57-.916-1.71l-.055-9.87.163-5.223c0-1.256.342-1.885 1.026-1.885.41 0 .705.314.887.943.256 1.203.7 2.933 1.333 5.19.634 2.254 1.07 3.97 1.306 5.146.173.574.396 1.424.67 2.55.273 1.125.488 1.97.642 2.536.073-4.047.11-8.95.11-14.71l-.04-.753c0-.255.047-.458.142-.608.096-.152.258-.227.486-.227.228 0 .414.055.56.164.292.22.438.53.438.93 0 2.56-.073 5.85-.22 9.87-.145 4.02-.364 6.53-.655 7.534-.038.01-.115.035-.234.076-.118.04-.205.066-.26.075-.52.12-.847.097-.984-.067-.136-.164-.234-.383-.294-.656-.06-.274-.127-.54-.205-.8-.077-.26-.367-1.502-.868-3.726-1.34-5.877-2.165-9.295-2.475-10.252v4.183zm8.14 9.872l1.475.205c.356 0 .666-.155.93-.465.264-.31.46-.697.588-1.162.246-.893.37-1.684.37-2.372s-.115-1.37-.343-2.044c-.228-.674-.506-1.3-.834-1.88-.328-.578-.66-1.168-.998-1.77-.784-1.413-1.176-2.807-1.176-4.184 0-.838.142-1.58.424-2.228.53-1.203 1.23-1.805 2.106-1.805.328 0 .64.105.936.315.296.21.445.437.445.683 0 .43-.228.643-.684.643-.202 0-.398-.055-.59-.164-.59.027-.992.688-1.202 1.982-.046.283-.068.613-.068.99 0 .38.082.847.246 1.403.164.555.37 1.05.622 1.482.25.433.52.912.806 1.436.287.524.56 1.032.814 1.524.574 1.14.86 2.443.86 3.91 0 1.167-.23 2.247-.696 3.24-.246.51-.595.928-1.046 1.25-.45.325-.973.49-1.565.5v.07c-.346-.047-.66-.163-.943-.35-.282-.187-.442-.43-.478-.73v-.48z" fill="#333"/></g></svg>