<?xml version="1.0" encoding="UTF-8" standalone="no"?>
<svg width="283px" height="267px" viewBox="0 0 283 267" version="1.1" xmlns="http://www.w3.org/2000/svg" xmlns:xlink="http://www.w3.org/1999/xlink">
    <!-- Generator: Sketch 40.3 (33839) - http://www.bohemiancoding.com/sketch -->
    <title>Page 1</title>
    <desc>Created with Sketch.</desc>
    <defs></defs>
    <g id="About" stroke="none" stroke-width="1" fill="none" fill-rule="evenodd">
        <g id="About/Values" transform="translate(-658.000000, -540.000000)">
            <g id="Group" transform="translate(42.000000, 433.000000)">
                <g id="Page-1" transform="translate(618.000000, 109.000000)">
                    <path d="M119.256285,27.9817708 C119.256285,27.9817708 134.732891,24.3644206 150.427996,27.9817708 C166.123101,31.5991211 172.838833,40.7365249 176.669976,45.9008789 C186.381318,58.9916992 183.373887,95.5851237 183.373887,95.5851237" id="Path-3" stroke="#E51B54" stroke-width="13.4400003"></path>
                    <path d="M95.2189355,136.8986 C92.6052977,129.042415 84.8576726,121.713053 76.5802309,121.713053 C61.9186998,121.713053 56.8267268,131.925036 55.8948368,141.206055 L55.9848551,146.338704 L57.7606713,152.539876 C57.7606713,152.539876 67.553029,159.870605 67.553029,167.011719 L83.5247359,167.192383 C83.5247359,167.192383 83.905268,159.230957 93.2712661,151.454264 C95.4160908,149.673393 97.2347391,142.957789 95.2189355,136.8986 Z" id="Path-2" fill="#E51B54"></path>
                    <path d="M219.691508,99.8051667 C219.691508,98.1501667 218.342346,96.8085 216.678101,96.8085 L194.111061,96.8085 L173.274469,96.8085 L150.706592,96.8085 C149.042346,96.8085 147.693184,98.1501667 147.693184,99.8051667 L147.693184,114.814333 L173.274469,133.264333 L173.274469,146.546 L194.111061,146.546 L194.111061,133.264333 L219.691508,114.814333 L219.691508,99.8051667 L219.691508,99.8051667 Z" id="Stroke-1" stroke="#FFFFFF" stroke-width="4.2288961"></path>
                    <path d="M196.20971,109.064896 C203.130566,83.1514832 226.775171,64.064896 254.879307,64.064896 C282.983443,64.064896 306.628047,83.1514832 313.548904,109.064896 L196.20971,109.064896 Z" id="Combined-Shape" fill="#E51B54" transform="translate(254.879307, 86.564896) rotate(-294.000000) translate(-254.879307, -86.564896) "></path>
                    <path d="M15.9217877,71.6666667 C19.1614469,71.6666667 21.7877095,69.0549944 21.7877095,65.8333333 C21.7877095,62.6116723 19.1614469,60 15.9217877,60 C12.6821286,60 10.0558659,62.6116723 10.0558659,65.8333333 C10.0558659,69.0549944 12.6821286,71.6666667 15.9217877,71.6666667 Z M34.3575419,71.6666667 C37.597201,71.6666667 40.2234637,69.0549944 40.2234637,65.8333333 C40.2234637,62.6116723 37.597201,60 34.3575419,60 C31.1178828,60 28.4916201,62.6116723 28.4916201,65.8333333 C28.4916201,69.0549944 31.1178828,71.6666667 34.3575419,71.6666667 Z M52.7932961,71.6666667 C56.0329552,71.6666667 58.6592179,69.0549944 58.6592179,65.8333333 C58.6592179,62.6116723 56.0329552,60 52.7932961,60 C49.5536369,60 46.9273743,62.6116723 46.9273743,65.8333333 C46.9273743,69.0549944 49.5536369,71.6666667 52.7932961,71.6666667 Z M71.2290503,71.6666667 C74.4687094,71.6666667 77.0949721,69.0549944 77.0949721,65.8333333 C77.0949721,62.6116723 74.4687094,60 71.2290503,60 C67.9893911,60 65.3631285,62.6116723 65.3631285,65.8333333 C65.3631285,69.0549944 67.9893911,71.6666667 71.2290503,71.6666667 Z M89.6648045,71.6666667 C92.9044636,71.6666667 95.5307263,69.0549944 95.5307263,65.8333333 C95.5307263,62.6116723 92.9044636,60 89.6648045,60 C86.4251453,60 83.7988827,62.6116723 83.7988827,65.8333333 C83.7988827,69.0549944 86.4251453,71.6666667 89.6648045,71.6666667 Z M108.100559,71.6666667 C111.340218,71.6666667 113.96648,69.0549944 113.96648,65.8333333 C113.96648,62.6116723 111.340218,60 108.100559,60 C104.8609,60 102.234637,62.6116723 102.234637,65.8333333 C102.234637,69.0549944 104.8609,71.6666667 108.100559,71.6666667 Z M125.698324,71.6666667 C128.937983,71.6666667 131.564246,69.0549944 131.564246,65.8333333 C131.564246,62.6116723 128.937983,60 125.698324,60 C122.458665,60 119.832402,62.6116723 119.832402,65.8333333 C119.832402,69.0549944 122.458665,71.6666667 125.698324,71.6666667 Z M144.972067,71.6666667 C148.211726,71.6666667 150.837989,69.0549944 150.837989,65.8333333 C150.837989,62.6116723 148.211726,60 144.972067,60 C141.732408,60 139.106145,62.6116723 139.106145,65.8333333 C139.106145,69.0549944 141.732408,71.6666667 144.972067,71.6666667 Z" id="Combined-Shape" fill="#E51B54"></path>
                    <path d="M139.014157,149.166667 C137.676862,154.173833 136.963975,159.435889 136.963975,164.864388 C136.963975,165.417503 136.971376,165.96889 136.986084,166.518455 L116.990363,201.759082 L130.639341,201.759082 C130.595045,202.251422 130.572419,202.749963 130.572419,203.253756 L130.572419,225.654304 C130.572419,234.805621 138.043231,242.22423 147.247966,242.22423 L173.71542,242.22423 L173.71542,264.440389 L240.826755,264.440389 L240.826755,207.575599 C251.692792,196.608347 258.403533,181.519772 258.403533,164.864388 C258.403533,159.435889 257.690646,154.173833 256.353351,149.166667 L139.014157,149.166667 Z" id="Combined-Shape" fill="#E51B54"></path>
                    <path d="M144.288352,82.55225 L17.2676816,82.55225 C8.00790503,82.55225 0.502039106,75.08725 0.502039106,65.87975 L0.502039106,65.54225 C0.502039106,56.33475 8.00790503,48.86975 17.2676816,48.86975 L144.288352,48.86975 C153.548128,48.86975 161.053994,56.33475 161.053994,65.54225 L161.053994,65.87975 C161.053994,75.08725 153.548128,82.55225 144.288352,82.55225 L144.288352,82.55225 Z" id="Stroke-3" stroke="#FFFFFF" stroke-width="4.2288961"></path>
                    <path d="M67.2557263,38.5598333 L46.0688547,38.5598333 C44.4180168,38.5598333 43.0797486,37.229 43.0797486,35.5865 L43.0797486,14.5181667 C43.0797486,12.8756667 44.4180168,11.5448333 46.0688547,11.5448333 L67.2557263,11.5448333 C68.9065642,11.5448333 70.2456704,12.8756667 70.2456704,14.5181667 L70.2456704,35.5865 C70.2456704,37.229 68.9065642,38.5598333 67.2557263,38.5598333 L67.2557263,38.5598333 Z" id="Stroke-5" stroke="#FFFFFF" stroke-width="4.2288961"></path>
                    <path d="M115.601732,38.5598333 L82.9285475,38.5598333 C81.2777095,38.5598333 79.9394413,37.229 79.9394413,35.5865 L79.9394413,3.09566667 C79.9394413,1.45316667 81.2777095,0.122333333 82.9285475,0.122333333 L115.601732,0.122333333 C117.25257,0.122333333 118.591676,1.45316667 118.591676,3.09566667 L118.591676,35.5865 C118.591676,37.229 117.25257,38.5598333 115.601732,38.5598333 L115.601732,38.5598333 Z" id="Stroke-7" stroke="#FFFFFF" stroke-width="4.2288961"></path>
                    <path d="M119.684246,27.2556667 L124.957709,27.2556667" id="Stroke-9" stroke="#FFFFFF" stroke-width="2.53747206"></path>
                    <path d="M130.398184,27.2556667 L142.523045,27.2556667 C165.107682,27.2556667 183.416899,45.4623333 183.416899,67.9223333 L183.416899,86.6815" id="Stroke-11" stroke="#FFFFFF" stroke-width="2.53747206" stroke-dasharray="8.725920235006811,4.362624042669296"></path>
                    <path d="M183.416732,89.3868333 L183.416732,94.631" id="Stroke-13" stroke="#FFFFFF" stroke-width="2.53747206"></path>
                    <path d="M127.779469,212.26175 L122.506006,212.26175" id="Stroke-15" stroke="#FFFFFF" stroke-width="2.53747206"></path>
                    <path d="M117.643492,212.26175 L101.992374,212.26175 C87.8001955,212.26175 76.1772905,201.325917 75.1792458,187.465917" id="Stroke-17" stroke="#FFFFFF" stroke-width="2.53747206" stroke-dasharray="7.798559686520093,3.899616299563888"></path>
                    <path d="M75.1098603,185.048417 L75.1098603,179.80425" id="Stroke-19" stroke="#FFFFFF" stroke-width="2.53747206"></path>
                    <path d="M94.9293017,142.783333 L94.9267877,142.495833 C94.9938268,139.259167 94.2622626,135.961667 92.6348883,132.896667 C87.5189665,123.264167 75.5189665,119.58 65.8326536,124.6675 C58.8924302,128.313333 55.0242737,135.473333 55.2706425,142.783333 C55.2036034,144.13 55.230419,149.995833 60.1393575,155.060833 C60.5793017,155.564167 61.0418715,156.041667 61.5253911,156.4925 C65.5418715,160.793333 67.2924302,164.428333 67.5220391,166.25 L67.5220391,167.0325 L82.6703631,167.0325 L82.6703631,166.64 C82.6703631,164.96 84.4209218,160.999167 88.905838,156.266667 C89.2293017,155.955 89.5435475,155.6375 89.8427095,155.3075 C89.8443855,155.305833 89.8452235,155.304167 89.8468994,155.3025 C95.6918715,149.490833 94.9293017,142.783333 94.9293017,142.783333 L94.9293017,142.783333 Z" id="Stroke-21" stroke="#FFFFFF" stroke-width="4.2288961"></path>
                    <path d="M78.7091061,167.03275 L78.7091061,145.361083 C78.7091061,143.984417 79.8311732,142.868583 81.2155307,142.868583 C82.5998883,142.868583 83.7219553,143.984417 83.7219553,145.361083 C83.7219553,146.73775 82.5998883,147.853583 81.2155307,147.853583 L69.0043575,147.853583 C67.62,147.853583 66.497933,146.73775 66.497933,145.361083 C66.497933,143.984417 67.62,142.868583 69.0043575,142.868583 C70.3887151,142.868583 71.5107821,143.984417 71.5107821,145.361083 L71.5107821,167.03275" id="Stroke-23" stroke="#FFFFFF" stroke-width="2.53747206"></path>
                    <path d="M64.8935196,176.906083 L85.3262011,176.906083" id="Stroke-25" stroke="#FFFFFF" stroke-width="4.60588811"></path>
                    <path d="M31.931648,11.5448333 L12.8255028,11.5448333" id="Stroke-27" stroke="#FFFFFF" stroke-width="2.53747206"></path>
                    <path d="M9.82357542,11.5448333 L2.68893855,11.5448333" id="Stroke-29" stroke="#FFFFFF" stroke-width="2.53747206"></path>
                    <path d="M25.4034637,21.6936667 L6.29731844,21.6936667" id="Stroke-31" stroke="#FFFFFF" stroke-width="2.53747206"></path>
                </g>
            </g>
        </g>
    </g>
</svg>