<svg width="61" height="88" viewBox="0 0 61 88" xmlns="http://www.w3.org/2000/svg">
    <title>Penguin logo</title>
    <g fill="none" fill-rule="evenodd">
        <path d="M30.143.004C1.243.066.023 37.23.03 44.06c.043 20.707 8.223 43.596 30.274 43.545 22.052-.047 30.137-23.105 30.1-43.813-.012-6.82-1.354-43.84-30.26-43.788" fill="#000"/>
        <path d="M30.304 86.364c-20.95.045-26.6-22.92-26.636-42.59-.012-6.49-1.07-42.683 26.39-42.744C57.51.975 56.76 37.364 56.767 43.853c.036 19.665-5.512 42.466-26.464 42.51" fill="#F60"/>
        <path d="M44.114 33.86c-2.462-4.038-5.91-8.807-6.3-13.718-.24-3.083-.06-6.533-2.078-9.073-.58-.742-1.41-1.43-2.233-1.874-.874-.463-2.005-.768-2.995-.768-.94 0-1.874.15-2.77.427-1.06.332-2.11.723-3.206.884-1.274.177-2.3.114-3.545-.17-.737-.17-.94-.232-1.683-.4-.402-.09-1.522-.42-1.87-.064-.835.865.94 1.908 1.468 2.3 1.157.865 1.645 1.15 2.746 2.14 1.492 1.338 2.68 2.922 3.137 4.92.13.58.174 1.16.18 1.747.11 8.61-13.823 17.055-13.63 32.297.068 5.384 2.858 6.277 2.82 3.28-.042-3.548 1.182-7.382 2.445-10.67.297-.758 1.232-.99 1.02.33-.333 2.085-1.156 5.696-1.082 11.588.02 1.417.1 2.853.298 4.25.16 1.144.395 2.265.723 3.363.265.918.612 1.82 1.05 2.667.348.667.75 1.308 1.22 1.888.47.57.97.99 1.534 1.444.328.266.693.507.848.927.235.625-.533.873-.934 1.06-.447.206-.836.436-1.256.64-.607.305-1.2.626-1.79.964-.357.215-.76.34-1.106.58-.347.24-.52.616.012.706.247.044.513-.028.76-.037.422-.017.867-.08 1.276.08.544.22.513.765.537 1.292.026.56.41.75.893.607.57-.163.965-.608 1.405-.99.315-.277.66-.562 1.038-.76.75-.383 1.647-.256 2.457-.214.445.028 1.083.224 1.448-.16.372-.375.106-1.042-.055-1.462-.16-.4-.352-.792-.544-1.185-.086-.18-.21-.33-.29-.518-.316-.75 2.22-1.32 2.592-1.417 1.225-.338 2.512-.64 3.787-.758 1.2-.108 2.53-.108 3.667.385.482.204.886.56 1.213.98.18.24.6.944.223 1.23-.583.436-1.18.818-1.757 1.282-.36.287-.705.59-1.01.947-.227.27-.29.732.175.704.62-.028 1.23-.06 1.845-.07.44 0 .91.06 1.28.32.607.428.743 1.328 1.417 1.676.19.098.42.098.624.034.453-.142.655-.616.89-.99.223-.337.447-.666.8-.862.216-.128.47-.178.717-.178.453 0 .902.008 1.355.06.353.046.836.215 1.15-.035.596-.473-.97-1.535-1.28-1.73-.718-.463-1.732-.945-1.96-1.89-.26-1.114.277-2.265.722-3.246.478-1.033 1.128-1.99 1.498-3.076.34-.998.6-2.04.744-3.093.783-5.766-.51-11.89-2.147-17.4-.193-.66-.447-1.31-.632-1.97-.28-1.034.694-1.283 1.192-.267.478.973 3.61 7.167 4.525 11.784.575 2.934 2.722 3.048 2.66-2.167-.08-7.55-2.853-13.013-6.236-18.575" fill="#000"/>
        <path d="M41.535 56.61c.377 3.807.784 10.374-3.72 10.59-1.193.06-2.672-.802-4.88-.643-3.757.258-4.87 1.738-7.94 1.177-1.75-.33-3.05-1.347-3.785-3.103-.836-1.987-.916-4.252-1.046-6.388-.142-2.392-.142-4.796 0-7.196.1-1.73.278-3.45.5-5.17.366-2.854.954-5.67 1.585-8.47.556-2.476 1.13-4.944 2.165-7.263.754-1.693 1.887-3.316 3.55-4.18 1.82-.936 4.376-1.007 6.17-.065 4.053 2.142 3.946 7.133 4.078 11.19.1 3.12.474 6.328 1.02 9.395.605 3.414 1.947 6.668 2.302 10.127M34.976 14.794c.828 1.007.78 5.134-.575 6.577-.798.84-2.142.947-3.205 1.098-1.18.18-2.32.446-3.477.74-1.1.278-1.027-.927.037-1.782 1.584-1.284 5.563-1.855 6.515-6.632.036-.178.234-.57.706 0M29.21 15.88c1.107.74 2.698.258 3.54-1.078.84-1.337.623-3.03-.492-3.772-1.112-.747-2.696-.267-3.538 1.07-.847 1.34-.624 3.032.49 3.78" fill="#FFF"/>
        <path d="M30.25 13.27c.42-.626 1.15-.857 1.638-.51.49.34.544 1.125.132 1.758-.417.623-1.152.854-1.642.516-.482-.348-.543-1.132-.13-1.765" fill="#000"/>
    </g>
</svg>
