<?xml version="1.0" encoding="UTF-8"?>
<svg width="161px" height="102px" viewBox="0 0 161 102" version="1.1" xmlns="http://www.w3.org/2000/svg" xmlns:xlink="http://www.w3.org/1999/xlink">

    
    <defs></defs>
    <g id="Featured-Case-studies" stroke="none" stroke-width="1" fill="none" fill-rule="evenodd">
        <g id="Work/PenguinLS" transform="translate(-265.000000, -8574.000000)" fill="#333333">
            <g id="Group-7" transform="translate(0.000000, 7410.000000)">
                <g id="Group-26" transform="translate(202.000000, 1129.000000)">
                    <path d="M63.7,135 L82.15,135 L91.45,110.25 L126.7,110.25 L136.3,135 L155.35,135 L115.75,35.7 L101.95,35.7 L63.7,135 Z M96.7,95.55 L103.9,76.05 C106.6,68.4 108.1,64.05 109,60.6 L109.3,60.6 C110.2,63.9 111.55,68.4 114.25,75.9 L121.15,95.55 L96.7,95.55 Z M208.3,135 L223.3,135 C222.25,131.25 221.95,125.1 221.95,116.85 L221.95,88.05 C221.95,70.95 212.5,62.25 193.45,62.25 C183.55,62.25 174.4,64.65 166,69.3 L171.85,80.25 C176.95,77.55 183.4,75 190.45,75 C198.7,75 204.1,78.9 204.1,87.15 L204.1,93.3 L193,93.3 C176.8,93.3 161.65,97.2 161.65,113.85 C161.65,127.5 171.7,136.5 185.2,136.5 C194.05,136.5 200.5,132.9 205.6,128.25 L208.3,135 Z M204.1,104.4 L204.1,118.05 C201.7,120 196.9,123.3 190.3,123.3 C183.85,123.3 179.8,119.7 179.8,113.55 C179.8,105.45 188.2,104.4 194.5,104.4 L204.1,104.4 Z" id="Aa-Bliss-speciman"></path>
                </g>
            </g>
        </g>
    </g>
</svg>