<?xml version="1.0" encoding="UTF-8"?>
<svg width="72px" height="14px" viewBox="0 0 72 14" version="1.1" xmlns="http://www.w3.org/2000/svg" xmlns:xlink="http://www.w3.org/1999/xlink">

    
    <defs></defs>
    <g id="Featured-Case-studies" stroke="none" stroke-width="1" fill="none" fill-rule="evenodd">
        <g id="Work/PenguinLS" transform="translate(-313.000000, -8698.000000)" fill="#333333">
            <g id="Group-7" transform="translate(0.000000, 7410.000000)">
                <g id="Group-26" transform="translate(202.000000, 1129.000000)">
                    <path d="M111.238,172 L115.036,172 C117.79,172 119.194,170.326 119.194,168.49 C119.194,167.104 118.348,165.97 116.962,165.628 L116.962,165.592 C117.898,165.124 118.402,164.17 118.402,163.144 C118.402,161.596 117.25,160.138 114.712,160.138 L111.238,160.138 L111.238,172 Z M113.398,170.218 L113.398,166.87 L115.018,166.87 C116.224,166.87 116.998,167.482 116.998,168.49 C116.998,169.696 116.224,170.218 114.784,170.218 L113.398,170.218 Z M113.398,165.088 L113.398,161.92 L114.406,161.92 C115.702,161.92 116.26,162.622 116.26,163.504 C116.26,164.422 115.63,165.088 114.424,165.088 L113.398,165.088 Z M121.102,170.074 C121.102,171.424 121.822,172.126 123.244,172.126 C123.73,172.126 124.324,172.036 124.828,171.82 L124.414,170.164 C124.234,170.236 123.982,170.272 123.874,170.272 C123.478,170.272 123.244,170.092 123.244,169.498 L123.244,159.256 L121.102,159.256 L121.102,170.074 Z M126.196,172 L128.356,172 L128.356,163.486 L126.196,163.486 L126.196,172 Z M127.276,162.1 C128.032,162.1 128.608,161.524 128.608,160.822 C128.608,160.084 128.032,159.526 127.276,159.526 C126.52,159.526 125.962,160.102 125.962,160.822 C125.962,161.542 126.52,162.1 127.276,162.1 Z M129.796,171.352 C130.498,171.784 131.596,172.18 132.928,172.18 C134.764,172.18 136.384,171.406 136.384,169.534 C136.384,166.564 132.388,167.086 132.388,165.736 C132.388,165.178 132.874,164.962 133.594,164.962 C134.494,164.962 135.286,165.196 136.006,165.502 L136.006,163.684 C135.304,163.432 134.458,163.27 133.504,163.27 C131.506,163.27 130.282,164.332 130.282,165.844 C130.282,168.688 134.278,168.148 134.278,169.588 C134.278,170.236 133.648,170.488 132.784,170.488 C131.92,170.488 131.11,170.2 130.462,169.786 L129.796,171.352 Z M137.356,171.352 C138.058,171.784 139.156,172.18 140.488,172.18 C142.324,172.18 143.944,171.406 143.944,169.534 C143.944,166.564 139.948,167.086 139.948,165.736 C139.948,165.178 140.434,164.962 141.154,164.962 C142.054,164.962 142.846,165.196 143.566,165.502 L143.566,163.684 C142.864,163.432 142.018,163.27 141.064,163.27 C139.066,163.27 137.842,164.332 137.842,165.844 C137.842,168.688 141.838,168.148 141.838,169.588 C141.838,170.236 141.208,170.488 140.344,170.488 C139.48,170.488 138.67,170.2 138.022,169.786 L137.356,171.352 Z M149.866,172 L153.664,172 C156.418,172 157.822,170.326 157.822,168.49 C157.822,167.104 156.976,165.97 155.59,165.628 L155.59,165.592 C156.526,165.124 157.03,164.17 157.03,163.144 C157.03,161.596 155.878,160.138 153.34,160.138 L149.866,160.138 L149.866,172 Z M152.026,170.218 L152.026,166.87 L153.646,166.87 C154.852,166.87 155.626,167.482 155.626,168.49 C155.626,169.696 154.852,170.218 153.412,170.218 L152.026,170.218 Z M152.026,165.088 L152.026,161.92 L153.034,161.92 C154.33,161.92 154.888,162.622 154.888,163.504 C154.888,164.422 154.258,165.088 153.052,165.088 L152.026,165.088 Z M163.51,172.18 C166.048,172.18 167.776,170.272 167.776,167.716 C167.776,165.16 166.048,163.27 163.51,163.27 C160.972,163.27 159.262,165.16 159.262,167.716 C159.262,170.272 160.972,172.18 163.51,172.18 Z M163.51,170.452 C162.16,170.452 161.458,169.3 161.458,167.716 C161.458,166.15 162.16,164.998 163.51,164.998 C164.86,164.998 165.562,166.15 165.562,167.716 C165.562,169.3 164.86,170.452 163.51,170.452 Z M169.486,170.074 C169.486,171.424 170.206,172.126 171.628,172.126 C172.114,172.126 172.708,172.036 173.212,171.82 L172.798,170.164 C172.618,170.236 172.366,170.272 172.258,170.272 C171.862,170.272 171.628,170.092 171.628,169.498 L171.628,159.256 L169.486,159.256 L169.486,170.074 Z M178.99,172.18 C180.034,172.18 181.276,171.964 182.122,171.55 L182.122,159.256 L179.962,159.256 L179.962,163.378 C179.62,163.306 179.134,163.27 178.81,163.27 C176.11,163.27 174.148,165.124 174.148,167.824 C174.148,170.632 176.218,172.18 178.99,172.18 Z M178.954,170.398 C177.406,170.398 176.344,169.444 176.344,167.788 C176.344,166.042 177.442,165.034 178.936,165.034 C179.368,165.034 179.638,165.088 179.962,165.16 L179.962,170.254 C179.674,170.362 179.242,170.398 178.954,170.398 Z" id="Bliss-Bold"></path>
                </g>
            </g>
        </g>
    </g>
</svg>