<?xml version="1.0" encoding="UTF-8"?>
<svg width="85px" height="14px" viewBox="0 0 85 14" version="1.1" xmlns="http://www.w3.org/2000/svg" xmlns:xlink="http://www.w3.org/1999/xlink">
    <!-- Generator: Sketch 41.2 (35397) - http://www.bohemiancoding.com/sketch -->
    <title>Fort Book</title>
    <desc>Created with Sketch.</desc>
    <defs></defs>
    <g id="Featured-Case-studies" stroke="none" stroke-width="1" fill="none" fill-rule="evenodd">
        <g id="Work/PenguinLS" transform="translate(-627.000000, -8698.000000)" fill="#333333">
            <g id="Group-7" transform="translate(0.000000, 7410.000000)">
                <g id="Group-26" transform="translate(202.000000, 1129.000000)">
                    <path d="M425.140438,172 L428.092438,172 L428.092438,167.14 L433.744438,167.14 L433.744438,164.692 L428.092438,164.692 L428.092438,161.776 L434.572438,161.776 L434.572438,159.4 L425.140438,159.4 L425.140438,172 Z M442.222437,167.536 C442.222437,169.408 441.592437,170.164 440.224437,170.164 C438.838437,170.164 438.208437,169.408 438.208437,167.536 C438.208437,165.682 438.802437,164.944 440.224437,164.944 C441.628437,164.944 442.222437,165.682 442.222437,167.536 Z M435.526438,167.518 C435.526438,170.722 437.128438,172.252 440.224438,172.252 C443.302438,172.252 444.922438,170.668 444.922438,167.518 C444.922438,164.278 443.374438,162.82 440.224438,162.82 C437.272438,162.82 435.526438,164.296 435.526438,167.518 Z M446.920438,172 L449.764438,172 L449.764438,168.454 C449.782438,166.528 450.736438,165.358 452.734438,165.52 L452.716438,162.82 C451.294438,162.784 450.124438,163.522 449.512438,164.836 L449.278438,163.054 L446.920438,163.054 L446.920438,172 Z M453.400438,163.054 L453.400438,165.124 L454.768438,165.124 L454.768438,168.994 C454.768438,171.442 456.208438,172.252 458.062438,172.252 C458.908438,172.252 459.610438,172.09 460.276438,171.73 L459.898438,169.93 C459.556438,170.092 459.214438,170.164 458.800438,170.164 C458.008438,170.164 457.540438,169.786 457.540438,168.742 L457.540438,165.124 L459.934438,165.124 L459.934438,163.054 L457.540438,163.054 L457.540438,160.516 L454.768438,160.516 L454.768438,163.054 L453.400438,163.054 Z M466.378437,172 L472.462437,172 C475.288437,172 476.692437,170.776 476.692437,168.382 C476.692437,167.068 476.116437,165.79 474.712437,165.412 C475.756437,164.962 476.386437,163.99 476.386437,162.748 C476.386437,160.768 475.270437,159.4 472.642437,159.4 L466.378437,159.4 L466.378437,172 Z M472.174438,166.744 C473.308438,166.744 473.812438,167.32 473.812438,168.238 C473.812438,169.264 473.254438,169.84 472.084438,169.84 L469.222438,169.84 L469.222438,166.744 L472.174438,166.744 Z M472.048438,161.596 C472.966438,161.596 473.542438,162.118 473.542438,163.09 C473.542438,163.918 473.074438,164.584 471.994438,164.584 L469.222438,164.584 L469.222438,161.596 L472.048438,161.596 Z M484.954437,167.536 C484.954437,169.408 484.324437,170.164 482.956437,170.164 C481.570437,170.164 480.940437,169.408 480.940437,167.536 C480.940437,165.682 481.534437,164.944 482.956437,164.944 C484.360437,164.944 484.954437,165.682 484.954437,167.536 Z M478.258438,167.518 C478.258438,170.722 479.860438,172.252 482.956438,172.252 C486.034438,172.252 487.654438,170.668 487.654438,167.518 C487.654438,164.278 486.106438,162.82 482.956438,162.82 C480.004438,162.82 478.258438,164.296 478.258438,167.518 Z M495.862438,167.536 C495.862438,169.408 495.232438,170.164 493.864438,170.164 C492.478438,170.164 491.848438,169.408 491.848438,167.536 C491.848438,165.682 492.442438,164.944 493.864438,164.944 C495.268438,164.944 495.862438,165.682 495.862438,167.536 Z M489.166438,167.518 C489.166438,170.722 490.768438,172.252 493.864438,172.252 C496.942437,172.252 498.562437,170.668 498.562437,167.518 C498.562437,164.278 497.014437,162.82 493.864438,162.82 C490.912438,162.82 489.166438,164.296 489.166438,167.518 Z M500.560438,172 L503.368438,172 L503.368438,170.074 L504.466438,168.868 L506.608438,172 L509.740438,172 L506.302438,167.032 L509.704438,163.054 L506.626438,163.054 L503.314438,167.14 L503.386438,159.4 L500.560438,159.4 L500.560438,172 Z" id="Fort-Book"></path>
                </g>
            </g>
        </g>
    </g>
</svg>