<?xml version="1.0" encoding="UTF-8"?>
<svg width="166px" height="107px" viewBox="0 0 166 107" version="1.1" xmlns="http://www.w3.org/2000/svg" xmlns:xlink="http://www.w3.org/1999/xlink">
    <!-- Generator: Sketch 41.2 (35397) - http://www.bohemiancoding.com/sketch -->
    <title>Aa-Fort-speciman</title>
    <desc>Created with Sketch.</desc>
    <defs></defs>
    <g id="Featured-Case-studies" stroke="none" stroke-width="1" fill="none" fill-rule="evenodd">
        <g id="Work/PenguinLS" transform="translate(-580.000000, -8572.000000)" fill="#333333">
            <g id="Group-7" transform="translate(0.000000, 7410.000000)">
                <g id="Group-26" transform="translate(202.000000, 1129.000000)">
                    <path d="M454.798438,138 L468.898438,138 L432.148438,33 L415.348438,33 L378.598438,138 L392.248438,138 L399.448438,116.55 L447.598438,116.55 L454.798438,138 Z M423.298438,45.15 L443.698438,105.3 L403.198438,105.3 L423.298438,45.15 Z M504.598437,139.8 C517.498438,139.8 526.498438,133.95 531.148438,124.65 L532.198437,138 L543.298437,138 L543.298437,93.3 C543.298437,70.5 530.698437,63.15 511.948438,63.15 C497.548437,63.15 487.948438,67.35 482.398438,75.45 L489.598437,83.25 C493.798437,77.55 500.098437,73.5 510.748438,73.5 C523.648438,73.5 530.098438,78.3 530.398438,93.45 L511.498438,93.45 C487.648438,93.45 479.398438,104.4 479.398438,117.9 C479.398438,132 489.898438,139.8 504.598437,139.8 Z M507.448438,129.45 C496.648438,129.45 491.998438,124.95 491.998438,117.45 C491.998438,107.85 497.698438,103.35 511.648438,103.35 L530.398438,103.35 L530.398438,103.65 C530.248438,120 520.948438,129.45 507.448438,129.45 Z" id="Aa-Fort-speciman"></path>
                </g>
            </g>
        </g>
    </g>
</svg>